<svg height="512pt" viewBox="0 -37 512.001 512" width="512pt" xmlns="http://www.w3.org/2000/svg"><path d="m437.265625 375.28125c-12.660156-35.320312-22.984375-70.300781-30.679687-103.976562-7.296876-31.910157-26.085938-59.820313-52.902344-78.585938-8.457032-5.921875-17.484375-10.761719-26.910156-14.496094v-50.117187c0-5.539063-4.488282-10.03125-10.027344-10.03125h-44.339844c-5.539062 0-10.03125 4.492187-10.03125 10.03125v40.972656h-19.726562v-40.972656c0-5.539063-4.488282-10.03125-10.027344-10.03125h-41.832032c-5.539062 0-10.027343 4.492187-10.027343 10.03125v50.117187c-9.429688 3.734375-18.453125 8.574219-26.910157 14.496094-27.097656 18.964844-45.957031 47.191406-53.101562 79.484375-1.816406 8.207031-2.804688 13.574219-3.679688 18.3125-1.207031 6.558594-2.082031 11.300781-4.613281 20.289063-1.5 5.332031 1.605469 10.871093 6.9375 12.375 5.328125 1.5 10.871094-1.605469 12.371094-6.9375 2.785156-9.882813 3.777344-15.269532 5.03125-22.09375.84375-4.574219 1.800781-9.753907 3.539063-17.613282 6.058593-27.375 22.042968-51.304687 45.015624-67.382812 18.710938-13.09375 40.667969-20.015625 63.503907-20.015625h49.820312c22.835938 0 44.796875 6.917969 63.503907 20.015625 22.734374 15.910156 38.664062 39.570312 44.847656 66.625 7.875 34.449218 18.421875 70.203125 31.351562 106.269531l13.210938 36.855469h-352.761719l10.757813-31.953125c1.765624-5.25-1.054688-10.9375-6.304688-12.707031-5.25-1.765626-10.9375 1.058593-12.707031 6.304687l-14.871094 44.183594c-.347656 1.03125-.523437 2.113281-.523437 3.203125v1.003906c.003906 5.539062 4.492187 10.023438 10.027343 10.023438h380.632813c3.265625 0 6.324218-1.585938 8.203125-4.253907 1.878906-2.671875 2.339843-6.085937 1.238281-9.160156zm-214.675781-206.039062c-7.371094.347656-14.648438 1.3125-21.769532 2.871093v-33.980469h21.769532zm84.125 2.871093c-7.929688-1.734375-16.046875-2.734375-24.277344-2.964843v-31.015626h24.277344zm0 0"/><path d="m511.976562 117.425781c-.007812-.132812-.007812-.261719-.023437-.390625-.027344-.324218-.070313-.640625-.128906-.957031-.007813-.042969-.011719-.082031-.019531-.125-.074219-.378906-.171876-.75-.289063-1.117187-.003906-.007813-.003906-.015626-.007813-.023438-.53125-1.640625-13.6875-40.574219-67.9375-72.699219-4.765624-2.820312-10.917968-1.246093-13.742187 3.519531-2.820313 4.765626-1.246094 10.917969 3.519531 13.742188 28.839844 17.078125 44.449219 36.164062 52.257813 48.507812h-88.988281c-9.527344-20.597656-30.101563-33.984374-53.285157-33.984374h-174.664062c-23.183594 0-43.761719 13.386718-53.285157 33.984374h-89.050781c17.230469-27.335937 73.070313-87.824218 229.667969-87.824218 38.777344 0 74.152344 3.753906 105.140625 11.160156 5.386719 1.285156 10.796875-2.039062 12.085937-7.425781 1.285157-5.386719-2.039062-10.796875-7.425781-12.085938-32.511719-7.769531-69.457031-11.707031-109.800781-11.707031-49.105469 0-92.964844 5.820312-130.351562 17.296875-30.296876 9.300781-56.484376 22.328125-77.832032 38.71875-37.171875 28.539063-46.929687 57.574219-47.324218 58.796875-.003907.007812-.003907.015625-.007813.023438-.117187.363281-.214844.734374-.289063 1.117187-.007812.042969-.011718.089844-.023437.136719-.054687.308594-.1015625.621094-.1289062.941406-.0117188.132812-.0117188.265625-.0195313.402344-.0078125.160156-.0234375.316406-.0234375.476562v53.238282c0 5.539062 4.492188 10.03125 10.03125 10.03125h112.179688c5.539062 0 10.03125-4.492188 10.03125-10.03125v-51.539063c5.5-15.402344 19.964843-25.652344 36.425781-25.652344h174.664062c16.382813 0 30.789063 10.152344 36.347657 25.425781v51.765626c0 5.539062 4.492187 10.03125 10.03125 10.03125h112.261718c5.539063 0 10.027344-4.492188 10.027344-10.03125v-53.238282c0-.164062-.015625-.324218-.023438-.484375zm-399.796874 43.695313h-92.121094v-33.179688h92.121094zm379.761718 0h-92.203125v-33.179688h92.203125zm0 0"/><path d="m187.40625 372.273438c17.003906 16.25 40.035156 26.246093 65.359375 26.246093 52.195313 0 94.664063-42.46875 94.664063-94.667969 0-52.199218-42.46875-94.664062-94.664063-94.664062-24.976563 0-47.71875 9.726562-64.648437 25.582031-.480469.332031-.941407.707031-1.371094 1.136719-.335938.335938-.632813.691406-.910156 1.0625-17.128907 17.136719-27.738282 40.796875-27.738282 66.886719 0 24.542969 9.394532 46.9375 24.769532 63.777343.480468 1.003907 1.125 1.949219 1.953124 2.777344.777344.777344 1.652344 1.394532 2.585938 1.863282zm-8.554688-58.390626h17.410157c5.539062 0 10.03125-4.488281 10.03125-10.027343 0-5.542969-4.492188-10.03125-10.03125-10.03125h-17.410157c1.828126-13.558594 7.308594-25.964844 15.425782-36.207031l12.363281 12.367187c1.957031 1.957031 4.523437 2.9375 7.09375 2.9375 2.566406 0 5.132813-.980469 7.089844-2.9375 3.917969-3.917969 3.917969-10.269531 0-14.183594l-12.109375-12.109375c9.800781-7.195312 21.414062-12.046875 34.019531-13.75v18.070313c0 5.539062 4.488281 10.03125 10.03125 10.03125 5.539063 0 10.027344-4.492188 10.027344-10.03125v-18.070313c12.742187 1.71875 24.472656 6.652344 34.339843 13.976563l-12.511718 12.511719c-3.917969 3.914062-3.917969 10.265624 0 14.183593 1.957031 1.957031 4.523437 2.9375 7.089844 2.9375 2.566406 0 5.136718-.980469 7.09375-2.9375l12.6875-12.6875c7.980468 10.183594 13.371093 22.476563 15.183593 35.898438h-17.410156c-5.539063 0-10.03125 4.492187-10.03125 10.03125 0 5.539062 4.492187 10.027343 10.03125 10.027343h17.410156c-1.703125 12.605469-6.550781 24.21875-13.746093 34.019532l-12.203126-12.199219c-3.914062-3.914063-10.265624-3.914063-14.183593 0-3.914063 3.917969-3.914063 10.269531 0 14.183594l12.453125 12.453125c-10.238282 8.113281-22.644532 13.597656-36.203125 15.425781v-17.753906c0-5.539063-4.492188-10.03125-10.03125-10.03125-5.539063 0-10.027344 4.492187-10.027344 10.03125v17.753906c-13.425781-1.8125-25.71875-7.203125-35.898437-15.183594l12.0625-12.066406c3.917968-3.914063 3.917968-10.265625 0-14.183594-3.914063-3.917969-10.265626-3.917969-14.183594 0l-11.890625 11.890625c-7.320313-9.867187-12.253907-21.601562-13.972657-34.339844zm0 0"/><path d="m253.765625 338.390625c19.914063 0 36.109375-16.199219 36.109375-36.113281 0-19.910156-16.195312-36.109375-36.109375-36.109375-19.910156 0-36.109375 16.199219-36.109375 36.109375 0 19.914062 16.199219 36.113281 36.109375 36.113281zm0-52.164063c8.851563 0 16.050781 7.203126 16.050781 16.050782 0 8.851562-7.199218 16.050781-16.050781 16.050781s-16.050781-7.199219-16.050781-16.050781c0-8.847656 7.199218-16.050782 16.050781-16.050782zm0 0"/><path d="m393.164062 37.917969c1.578126 3.902343 5.335938 6.273437 9.304688 6.273437 1.25 0 2.523438-.234375 3.753906-.730468 5.136719-2.078126 7.617188-7.921876 5.539063-13.058594l-.183594-.453125c-2.074219-5.136719-7.917969-7.617188-13.054687-5.542969-5.136719 2.074219-7.617188 7.921875-5.542969 13.058594zm0 0"/><path d="m90.710938 359.617188c1.253906 0 2.53125-.234376 3.765624-.734376 5.132813-2.082031 7.609376-7.929687 5.527344-13.0625l-.183594-.453124c-2.078124-5.132813-7.925781-7.609376-13.0625-5.53125-5.132812 2.082031-7.609374 7.929687-5.527343 13.0625l.183593.453124c1.578126 3.902344 5.332032 6.265626 9.296876 6.265626zm0 0"/></svg>