<svg height="512pt" viewBox="-104 0 512 512.001" width="512pt" xmlns="http://www.w3.org/2000/svg"><path d="m217.660156 199.394531-14.070312-4.910156c15.761718-12.667969 26.542968-31.273437 28.917968-52.394531 15.09375-1.894532 26.808594-14.800782 26.808594-30.402344 0-15.425781-11.453125-28.21875-26.300781-30.335938v-2.835937c0-4.441406-.390625-8.792969-1.105469-13.035156-.054687-1.359375-.234375-2.769531-.546875-4.234375-3.371093-15.699219-11.710937-29.488282-23.226562-39.992188-14.046875-13.167968-32.910157-21.253906-53.640625-21.253906h-9.0625c-20.738282 0-39.613282 8.097656-53.664063 21.277344-15.285156 13.996094-24.839843 33.710937-24.839843 55.539062 0 .226563 0 .515625.007812.839844-.003906.285156-.019531.570312-.019531.859375v2.847656c-14.804688 2.160157-26.210938 14.933594-26.210938 30.324219 0 15.566406 11.667969 28.453125 26.714844 30.390625 2.425781 21.625 13.671875 40.613281 30.046875 53.289063l-11.535156 4.027343c-51.398438 17.9375-85.933594 66.566407-85.933594 121.007813v79.777344c0 5.550781 4.5 10.050781 10.050781 10.050781h27.804688c5.097656 56.964843 53.09375 101.769531 111.363281 101.769531 21.871094 0 43.054688-6.316406 61.269531-18.261719 4.640625-3.046875 5.933594-9.277343 2.890625-13.917969-3.046875-4.640624-9.277344-5.933593-13.917968-2.886718-14.925782 9.792968-32.300782 14.96875-50.242188 14.96875-50.574219 0-91.722656-41.148438-91.722656-91.722656 0-50.578126 41.148437-91.722657 91.722656-91.722657 50.476562 0 91.558594 40.984375 91.71875 91.425781 0 .097657-.011719.195313-.011719.296876 0 .097656.011719.191406.011719.289062-.019531 6.921875-.808594 13.8125-2.355469 20.484375-1.25 5.40625 2.117188 10.804687 7.523438 12.054687s10.804687-2.117187 12.058593-7.523437c1.15625-5.003906 1.964844-10.109375 2.421876-15.257813h32.957031c5.550781 0 10.050781-4.496093 10.050781-10.046874v-79.777344c0-54.441406-34.535156-103.070313-85.933594-121.007813zm15.355469-97.320312c3.65625 1.660156 6.203125 5.34375 6.203125 9.613281 0 4.273438-2.546875 7.957031-6.203125 9.617188zm-166.097656 19.183593c-3.605469-1.679687-6.113281-5.335937-6.113281-9.570312s2.507812-7.890625 6.113281-9.566406zm38.792969-85.523437c10.761718-9.679687 25.296874-15.636719 41.285156-15.636719h5.96875c15.632812 0 30.140625 5.785156 40.972656 15.367188 8.289062 7.597656 14.378906 17.550781 17.210938 28.785156-.898438.148438-2.101563.300781-3.753907.445312-.121093.011719-.203125.011719-.246093.011719-24.851563-5.566406-45.488282-6.054687-77.324219 7.851563-6.503907 2.84375-15.589844 4.945312-33.660157-1-2.707031-.890625-5.265624-1.1875-7.558593-1.1875-.34375 0-.679688.007812-1.011719.019531 1.902344-13.605469 8.503906-25.726563 18.117188-34.65625zm-18.6875 97.808594c.050781-.410157.085937-.828125.085937-1.253907v-41.199218c0-.164063-.019531-.320313-.023437-.480469 1.152343-.175781 2.039062-.207031 2.800781.042969 9.777343 3.214844 18.40625 4.820312 26.367187 4.820312 7.691406 0 14.753906-1.5 21.613282-4.492187 29.726562-12.984375 46.347656-10.820313 64.980468-6.640625 1.96875.441406 4.074219.566406 6.269532.378906 1.089843-.09375 2.390624-.207031 3.800781-.394531v48.949219c0 32.210937-26.207031 58.417968-58.421875 58.417968h-9.0625c-32.121094-.003906-58.265625-26.0625-58.410156-58.148437zm87.464843 75.65625-12.675781 27.878906c-2.316406 4.363281-6.609375 6.878906-11.582031 6.761719-4.957031-.125-9.136719-2.863282-11.226563-7.335938l-10.5-26.574218c5.457032 1.203124 11.117188 1.859374 16.929688 1.859374h9.066406c6.90625-.003906 13.601562-.90625 19.988281-2.589843zm109.007813 180.929687h-22.910156c-2.585938-28.875-16.191407-54.628906-36.574219-73.003906v-26.589844c0-5.550781-4.5-10.050781-10.050781-10.050781-5.550782 0-10.046876 4.5-10.046876 10.050781v12.144532c-16.179687-9.113282-34.839843-14.320313-54.691406-14.320313-16.898437 0-32.925781 3.773437-47.300781 10.511719v-8.335938c0-5.550781-4.5-10.046875-10.046875-10.046875-5.550781 0-10.050781 4.496094-10.050781 10.046875v20.480469c-24.457031 18.53125-41.082031 46.875-43.96875 79.117187h-17.757813v-69.730468c0-45.902344 29.121094-86.90625 72.460938-102.03125l15.53125-5.421875 12.320312 31.183593c.054688.144532.117188.289063.179688.429688 5.226562 11.625 16.390625 19.046875 29.132812 19.367188 12.757813.335937 24.261719-6.523438 30.070313-17.871094.070312-.136719.140625-.277344.203125-.417969l14.953125-32.886719 16.089843 5.617188c43.339844 15.125 72.457032 56.128906 72.457032 102.03125zm0 0"/><path d="m114.023438 128.5c1.582031 3.914062 5.347656 6.289062 9.320312 6.289062 1.253906 0 2.53125-.238281 3.761719-.738281 5.148437-2.078125 7.632812-7.933593 5.554687-13.078125l-.1875-.457031c-2.078125-5.144531-7.933594-7.632813-13.078125-5.550781-5.148437 2.078125-7.632812 7.933594-5.554687 13.082031zm0 0"/><path d="m100.542969 248.894531c-2.078125-5.144531-7.933594-7.632812-13.078125-5.550781-5.148438 2.078125-7.632813 7.933594-5.554688 13.082031l.183594.453125c1.582031 3.914063 5.347656 6.289063 9.320312 6.289063 1.253907 0 2.53125-.238281 3.761719-.734375 5.148438-2.082032 7.632813-7.9375 5.550781-13.082032zm0 0"/><path d="m170.113281 128.5c1.582031 3.914062 5.347657 6.289062 9.320313 6.289062 1.253906 0 2.527344-.238281 3.761718-.738281 5.144532-2.078125 7.632813-7.933593 5.550782-13.078125l-.183594-.457031c-2.078125-5.144531-7.9375-7.632813-13.082031-5.550781-5.144531 2.078125-7.628907 7.933594-5.550781 13.082031zm0 0"/><path d="m109.996094 439.742188c3.921875 3.925781 10.285156 3.925781 14.210937 0l25.578125-25.578126 25.582032 25.578126c3.921874 3.925781 10.285156 3.925781 14.210937 0 3.921875-3.921876 3.921875-10.285157 0-14.210938l-25.582031-25.578125 25.582031-25.582031c3.921875-3.921875 3.921875-10.285156 0-14.210938-3.925781-3.921875-10.289063-3.921875-14.210937 0l-25.582032 25.582032-25.578125-25.582032c-3.925781-3.921875-10.289062-3.921875-14.210937 0-3.925782 3.925782-3.925782 10.289063 0 14.210938l25.578125 25.582031-25.578125 25.578125c-3.925782 3.925781-3.925782 10.289062 0 14.210938zm0 0"/><path d="m238.824219 453.800781c-2.078125-5.144531-7.9375-7.632812-13.082031-5.550781-5.144532 2.078125-7.632813 7.933594-5.550782 13.078125l.183594.457031c1.578125 3.914063 5.34375 6.285156 9.320312 6.285156 1.253907 0 2.527344-.234374 3.761719-.734374 5.144531-2.078126 7.628907-7.933594 5.550781-13.082032zm0 0"/></svg>