<svg height="511pt" viewBox="-15 1 511 511.99899" width="511pt" xmlns="http://www.w3.org/2000/svg"><path d="m481.773438 211.777344c0-.417969-.035157-.835938-.085938-1.246094-.015625-.132812-.039062-.261719-.0625-.390625-.046875-.285156-.105469-.574219-.179688-.855469-.035156-.136718-.070312-.273437-.109374-.40625-.089844-.296875-.195313-.589844-.3125-.875-.039063-.097656-.070313-.199218-.113282-.296875-.164062-.375-.351562-.738281-.5625-1.089843-.050781-.085938-.109375-.160157-.160156-.242188-.171875-.265625-.351562-.527344-.546875-.777344-.085937-.117187-.183594-.226562-.277344-.335937-.089843-.105469-.171875-.222657-.269531-.324219l-68.484375-74.082031.304687-120.742188c.007813-2.679687-1.050781-5.253906-2.945312-7.148437-1.890625-1.898438-4.464844-2.964844-7.144531-2.964844h-318.574219c-2.675781 0-5.242188 1.0625-7.136719 2.957031-1.890625 1.890625-2.953125 4.457031-2.953125 7.132813l.011719 121.054687-68.953125 73.753907c-.105469.113281-.195312.238281-.296875.355468-.09375.109375-.1875.214844-.277344.328125-.207031.265625-.398437.542969-.578125.824219-.039062.066406-.089844.125-.128906.195312-.210938.351563-.398438.714844-.5625 1.089844-.050781.109375-.085938.222656-.132812.328125-.109376.277344-.210938.558594-.296876.84375-.042968.140625-.082031.277344-.117187.417969-.074219.28125-.128906.566406-.179687.851562-.019532.132813-.046876.257813-.0625.390626-.050782.414062-.085938.835937-.085938 1.257812v.003906 290.125c0 5.570313 4.519531 10.089844 10.089844 10.089844h461.09375c5.570312 0 10.089844-4.519531 10.089844-10.089844v-290.125s0-.003906 0-.007812zm-70.859376-50.867188 45.464844 49.183594-45.464844 31.390625zm-20.207031-140.730468-.589843 235.664062-120.046876 82.878906c-17.304687 11.949219-40.558593 11.949219-57.867187 0l-119.84375-82.742187-.019531-235.800781zm-318.546875 140.519531v81.335937l-46.210937-31.902344zm389.433594 331.121093h-440.914062v-260.804687l55.835937 38.5625c.042969.03125.089844.050781.136719.078125l124.085937 85.671875c1.511719 1.042969 3.054688 2.023437 4.625 2.933594 11 6.386719 23.382813 9.582031 35.773438 9.582031 14.15625 0 28.316406-4.171875 40.398437-12.511719l122.695313-84.710937c.824219-.296875 1.621093-.679688 2.363281-1.191406l55.003906-38.316407v260.707031zm0 0"/><path d="m369.890625 461.636719c-2.082031-5.167969-7.964844-7.667969-13.132813-5.585938-5.167968 2.082031-7.667968 7.960938-5.585937 13.128907l.1875.460937c1.585937 3.933594 5.367187 6.320313 9.359375 6.320313 1.257812 0 2.535156-.234376 3.769531-.734376 5.167969-2.082031 7.667969-7.960937 5.585938-13.128906zm0 0"/><path d="m155.632812 358.015625h-108.460937c-5.574219 0-10.089844 4.519531-10.089844 10.089844v58.511719c0 5.574218 4.515625 10.089843 10.089844 10.089843h108.460937c5.574219 0 10.089844-4.515625 10.089844-10.089843v-58.511719c0-5.570313-4.515625-10.089844-10.089844-10.089844zm-10.089843 58.511719h-88.28125v-38.332032h88.28125zm0 0"/><path d="m155.632812 454.085938h-108.460937c-5.574219 0-10.089844 4.515624-10.089844 10.089843 0 5.570313 4.515625 10.089844 10.089844 10.089844h108.460937c5.574219 0 10.089844-4.519531 10.089844-10.089844 0-5.574219-4.515625-10.089843-10.089844-10.089843zm0 0"/><path d="m435.792969 423.039062h-108.464844c-5.570313 0-10.085937 4.515626-10.085937 10.089844 0 5.570313 4.515624 10.089844 10.085937 10.089844h108.464844c5.570312 0 10.089843-4.519531 10.089843-10.089844 0-5.574218-4.515624-10.089844-10.089843-10.089844zm0 0"/><path d="m365.238281 402.40625c0 5.574219 4.519531 10.089844 10.089844 10.089844h60.464844c5.574219 0 10.089843-4.515625 10.089843-10.089844 0-5.570312-4.515624-10.089844-10.089843-10.089844h-60.464844c-5.570313 0-10.089844 4.519532-10.089844 10.089844zm0 0"/><path d="m435.792969 455.546875h-34.96875c-5.570313 0-10.089844 4.519531-10.089844 10.089844 0 5.574219 4.519531 10.089843 10.089844 10.089843h34.96875c5.570312 0 10.089843-4.515624 10.089843-10.089843 0-5.570313-4.515624-10.089844-10.089843-10.089844zm0 0"/><path d="m234.367188 281.710938c1.914062 2.085937 4.609374 3.273437 7.4375 3.273437 2.832031 0 5.53125-1.1875 7.441406-3.273437l65.074218-71.019532c2.703126-2.949218 3.40625-7.21875 1.796876-10.878906-1.613282-3.664062-5.234376-6.027344-9.234376-6.027344h-27.746093v-114.667968c0-5.570313-4.519531-10.089844-10.089844-10.089844h-54.480469c-5.574218 0-10.089844 4.519531-10.089844 10.089844v23.710937c0 5.574219 4.515626 10.089844 10.089844 10.089844 5.570313 0 10.089844-4.515625 10.089844-10.089844v-13.621094h34.300781v114.667969c0 5.570312 4.519531 10.089844 10.089844 10.089844h14.902344l-42.144531 45.992187-42.144532-45.992187h14.902344c5.574219 0 10.089844-4.519532 10.089844-10.089844v-19.808594c0-5.570312-4.515625-10.089844-10.089844-10.089844-5.570312 0-10.089844 4.519532-10.089844 10.089844v9.71875h-27.742187c-4 0-7.625 2.363282-9.234375 6.023438-1.613282 3.664062-.90625 7.929687 1.792968 10.882812zm0 0"/><path d="m214.902344 154.289062c1.253906 0 2.53125-.234374 3.765625-.730468 5.167969-2.082032 7.671875-7.960938 5.589843-13.128906l-.183593-.460938c-2.082031-5.167969-7.960938-7.671875-13.128907-5.589844-5.167968 2.078125-7.671874 7.957032-5.589843 13.125l.183593.460938c1.585938 3.933594 5.367188 6.324218 9.363282 6.324218zm0 0"/></svg>