<svg height="511pt" viewBox="-15 1 511 511.99899" width="511pt" xmlns="http://www.w3.org/2000/svg"><path d="m481.773438 211.777344c0-.417969-.035157-.835938-.085938-1.25-.015625-.128906-.042969-.257813-.0625-.386719-.046875-.289063-.109375-.574219-.179688-.855469-.035156-.136718-.070312-.273437-.109374-.410156-.089844-.296875-.195313-.585938-.3125-.871094-.039063-.097656-.070313-.199218-.117188-.296875-.164062-.375-.351562-.738281-.5625-1.089843-.050781-.085938-.105469-.160157-.15625-.242188-.171875-.265625-.351562-.527344-.546875-.777344-.089844-.117187-.183594-.226562-.277344-.335937-.09375-.105469-.171875-.222657-.269531-.324219l-68.484375-74.082031.304687-120.742188c.007813-2.679687-1.054687-5.253906-2.945312-7.148437-1.894531-1.898438-4.464844-2.964844-7.144531-2.964844h-318.574219c-2.675781 0-5.246094 1.0625-7.136719 2.957031-1.890625 1.890625-2.953125 4.457031-2.953125 7.132813l.007813 121.050781-68.949219 73.753906c-.105469.117188-.195312.238281-.296875.359375-.09375.109375-.1875.214844-.277344.328125-.207031.265625-.398437.542969-.578125.824219-.039062.066406-.089844.125-.128906.191406-.210938.355469-.398438.71875-.5625 1.09375-.050781.109375-.085938.21875-.132812.328125-.109376.277344-.210938.558594-.296876.84375-.042968.136719-.082031.277344-.117187.417969-.074219.28125-.128906.566406-.179687.851562-.019532.132813-.046876.257813-.0625.390626-.050782.414062-.085938.835937-.085938 1.257812v.003906 290.125c0 5.570313 4.519531 10.089844 10.089844 10.089844h461.09375c5.570312 0 10.089844-4.519531 10.089844-10.089844v-290.125s0-.003906 0-.007812zm-70.859376-50.867188 45.464844 49.183594-45.464844 31.390625zm-20.207031-140.730468-.59375 235.664062-120.042969 82.878906c-16.589843 11.453125-38.644531 11.917969-55.6875 1.414063-.734374-.453125-1.464843-.917969-2.179687-1.414063l-119.84375-82.742187-.019531-235.800781zm-318.546875 221.855468-46.210937-31.90625 46.210937-49.429687zm389.433594 249.785156h-440.914062v-260.804687l55.835937 38.5625c.046875.03125.09375.050781.140625.082031l124.082031 85.667969c1.511719 1.042969 3.054688 2.019531 4.625 2.933594 21.996094 12.773437 49.554688 12.773437 71.546875 0 1.574219-.914063 3.113282-1.890625 4.625-2.933594l122.691406-84.707031c.824219-.296875 1.625-.679688 2.363282-1.195313l55.003906-38.316406zm0 0"/><path d="m369.882812 461.621094c-2.09375-5.167969-7.984374-7.65625-13.140624-5.5625-5.164063 2.089844-7.65625 7.972656-5.5625 13.136718l.183593.460938c1.589844 3.925781 5.367188 6.304688 9.355469 6.304688 1.261719 0 2.542969-.238282 3.785156-.742188 5.164063-2.089844 7.65625-7.972656 5.5625-13.136719zm0 0"/><path d="m155.636719 358.015625h-108.464844c-5.570313 0-10.089844 4.515625-10.089844 10.089844v58.511719c0 5.570312 4.519531 10.089843 10.089844 10.089843h108.464844c5.570312 0 10.085937-4.519531 10.085937-10.089843v-58.511719c0-5.574219-4.515625-10.089844-10.085937-10.089844zm-10.089844 58.511719h-88.285156v-38.332032h88.285156zm0 0"/><path d="m155.636719 454.085938h-108.464844c-5.570313 0-10.089844 4.515624-10.089844 10.089843 0 5.570313 4.519531 10.089844 10.089844 10.089844h108.464844c5.570312 0 10.085937-4.519531 10.085937-10.089844 0-5.574219-4.515625-10.089843-10.085937-10.089843zm0 0"/><path d="m435.792969 423.035156h-108.460938c-5.574219 0-10.089843 4.519532-10.089843 10.089844 0 5.574219 4.515624 10.089844 10.089843 10.089844h108.460938c5.570312 0 10.089843-4.515625 10.089843-10.089844 0-5.570312-4.519531-10.089844-10.089843-10.089844zm0 0"/><path d="m365.238281 402.40625c0 5.570312 4.519531 10.089844 10.089844 10.089844h60.464844c5.570312 0 10.089843-4.519532 10.089843-10.089844 0-5.574219-4.519531-10.089844-10.089843-10.089844h-60.464844c-5.570313 0-10.089844 4.515625-10.089844 10.089844zm0 0"/><path d="m435.792969 455.546875h-34.96875c-5.570313 0-10.089844 4.519531-10.089844 10.089844 0 5.574219 4.519531 10.089843 10.089844 10.089843h34.96875c5.570312 0 10.089843-4.515624 10.089843-10.089843 0-5.570313-4.519531-10.089844-10.089843-10.089844zm0 0"/><path d="m176.730469 160.226562h27.746093v114.664063c0 5.574219 4.515626 10.089844 10.089844 10.089844h54.480469c5.570313 0 10.089844-4.515625 10.089844-10.089844v-23.710937c0-5.570313-4.519531-10.089844-10.089844-10.089844-5.574219 0-10.089844 4.519531-10.089844 10.089844v13.621093h-34.300781v-114.664062c0-5.570313-4.519531-10.089844-10.089844-10.089844h-14.90625l42.148438-45.992187 42.144531 45.992187h-14.90625c-5.570313 0-10.089844 4.519531-10.089844 10.089844v19.804687c0 5.574219 4.519531 10.089844 10.089844 10.089844 5.574219 0 10.089844-4.515625 10.089844-10.089844v-9.714844h27.746093c4 0 7.621094-2.363281 9.234376-6.027343 1.609374-3.660157.90625-7.929688-1.796876-10.878907l-65.074218-71.019531c-1.914063-2.085937-4.609375-3.273437-7.441406-3.273437-2.828126 0-5.527344 1.1875-7.4375 3.273437l-65.074219 71.019531c-2.703125 2.949219-3.40625 7.21875-1.796875 10.878907 1.613281 3.664062 5.234375 6.027343 9.234375 6.027343zm0 0"/><path d="m264.921875 200.464844c-5.164063 2.089844-7.65625 7.972656-5.5625 13.140625l.1875.457031c1.589844 3.925781 5.367187 6.304688 9.351563 6.304688 1.261718 0 2.546874-.238282 3.785156-.738282 5.167968-2.09375 7.65625-7.976562 5.566406-13.140625l-.1875-.460937c-2.09375-5.167969-7.980469-7.65625-13.140625-5.5625zm0 0"/></svg>