<svg height="512pt" viewBox="-31 0 512 512.00201" width="512pt" xmlns="http://www.w3.org/2000/svg"><path d="m373.023438 82.894531h-149.15625v-18.816406h62.773437c5.550781 0 10.050781-4.5 10.050781-10.050781v-43.976563c0-5.550781-4.5-10.050781-10.050781-10.050781h-72.824219c-5.550781 0-10.054687 4.5-10.054687 10.050781v72.867188c-29.609375.4375-56.363281 22.234375-64.507813 51.351562h-66.710937c-.078125 0-.152344.007813-.226563.011719-.183594.003906-.363281.011719-.542968.027344-.160157.011718-.320313.027344-.480469.046875-.15625.019531-.3125.042969-.46875.070312-.171875.03125-.347657.0625-.519531.101563-.140626.03125-.277344.070312-.417969.109375-.175781.046875-.347657.097656-.519531.152343-.140626.046876-.28125.101563-.417969.152344-.160157.0625-.320313.125-.476563.195313-.152344.066406-.296875.140625-.441406.214843-.140625.066407-.277344.136719-.410156.214844-.160156.085938-.3125.183594-.46875.28125-.113282.074219-.230469.148438-.34375.226563-.15625.109375-.308594.222656-.457032.339843-.105468.085938-.214843.167969-.320312.257813-.136719.117187-.273438.242187-.40625.371094-.109375.101562-.21875.207031-.324219.316406-.113281.121094-.222656.242187-.332031.371094-.117188.132812-.230469.269531-.339844.40625-.046875.0625-.101562.117187-.148437.179687-.042969.058594-.078125.121094-.121094.179688-.105469.152344-.210937.308594-.308594.464844-.082031.128906-.160156.253906-.230469.382812-.089843.15625-.171874.3125-.253906.472656-.070312.136719-.136718.277344-.203125.417969-.066406.152344-.125.308594-.1875.464844-.058593.15625-.117187.308593-.171875.464843-.046875.148438-.089844.300782-.132812.449219-.046875.171875-.09375.339844-.132813.511719-.03125.144531-.058593.289062-.082031.433594-.03125.183594-.0625.371094-.085938.554687-.015624.140625-.027343.277344-.039062.417969-.011719.195312-.023438.390625-.027344.585938 0 .070312-.011718.132812-.011718.203124v89.738282c0 .097656.011718.1875.015624.28125.003907.183594.011719.371094.027344.558594.015625.152343.03125.304687.050782.453124.023437.171876.046874.34375.078124.515626.03125.160156.0625.3125.097657.46875.039062.164062.078125.324218.125.484374.042969.15625.09375.308594.144531.460938.050781.160156.109375.316406.171875.46875.058594.152344.121094.296875.183594.441406.070312.152344.144531.304688.222656.457032.074219.140624.148437.28125.226563.417968.085937.144532.171874.285156.261718.429688.089844.136718.183594.273437.28125.410156.09375.128906.1875.257812.285156.382812.113282.140626.226563.277344.347657.410157.0625.074219.121093.152343.1875.222656.039062.042969.078125.074219.117187.113281.136719.144532.28125.277344.425782.410156.109374.101563.214843.203126.328124.296876.140626.121093.289063.230468.4375.339843.121094.09375.242188.191407.371094.277344.148438.101563.304688.195313.460938.289063.128906.078124.257812.164062.390625.234374.199219.109376.40625.207032.613281.300782.09375.042968.183594.09375.277344.132812.613281.261719 1.257812.460938 1.921875.597656h.007812c.324219.066407.652344.117188.984375.148438.285156.027344.570313.039062.855469.042969.054687.003906.105469.007812.15625.007812h64.773437v26.695313c0 5.550781 4.5 10.050781 10.050782 10.050781h89.875v211.039063h-19.542969c-5.550781 0-10.054687 4.5-10.054687 10.050781s4.503906 10.054687 10.054687 10.054687h137.878906c5.550781 0 10.054688-4.503906 10.054688-10.054687s-4.503907-10.050781-10.054688-10.050781h-25.675781v-44.582032c0-5.550781-4.5-10.050781-10.050781-10.050781-5.554688 0-10.054688 4.5-10.054688 10.050781v44.578125h-19.085937v-211.035156h19.085937v85.785156c0 5.554688 4.5 10.054688 10.054688 10.054688 5.550781 0 10.050781-4.5 10.050781-10.054688v-85.785156h109.5625c5.550781 0 10.054688-4.503906 10.054688-10.054687v-111.410157c0-42.183593-34.316407-76.5-76.5-76.5zm-149.15625-62.789062h52.71875v23.871093h-52.71875zm-125.832032 203.902343 28.691406-26.800781 14.636719 10.902344c1.78125 1.328125 3.894531 1.988281 6.007813 1.988281 2.109375 0 4.222656-.660156 6.003906-1.988281l14.636719-10.902344 28.691406 26.800781zm-15.4375-59.667968 27.742188 20.664062-27.742188 25.914063zm129.542969 46.578125-27.746094-25.914063 27.746094-20.660156zm-64.773437-23.40625-44.496094-33.136719h88.996094zm10.054687 56.601562h64.769531c.054688 0 .105469-.007812.15625-.007812.285156-.003907.570313-.015625.855469-.042969.335937-.035156.664063-.085938.988281-.148438h.003906c.667969-.136718 1.3125-.335937 1.925782-.597656.09375-.039062.183594-.089844.273437-.132812.207031-.09375.417969-.191406.617188-.300782.132812-.070312.257812-.15625.390625-.234374.152344-.097657.3125-.1875.460937-.289063.125-.085937.246094-.183594.371094-.277344.144531-.113281.296875-.222656.4375-.339843.109375-.09375.21875-.199219.328125-.296876.144531-.136718.285156-.269531.421875-.410156.039063-.039062.082031-.074218.117187-.113281.070313-.070313.125-.152344.191407-.226563.117187-.132812.234375-.265624.34375-.40625.101562-.125.195312-.253906.289062-.386718.097657-.132813.191407-.269532.28125-.40625.089844-.144532.175781-.285156.261719-.429688.078125-.140625.152344-.277344.226562-.417968.078126-.152344.152344-.304688.21875-.457032.066407-.144531.128907-.289062.1875-.441406.0625-.152344.117188-.308594.171876-.46875.050781-.152344.101562-.304688.144531-.460938.046875-.160156.085937-.320312.125-.484374.035156-.15625.066406-.308594.097656-.46875.03125-.171876.054687-.34375.078125-.515626.019531-.148437.035156-.300781.050781-.453124.015625-.1875.023438-.371094.027344-.558594 0-.09375.011719-.1875.011719-.28125v-89.738282c0-.070312-.007813-.132812-.007813-.203124-.003906-.195313-.015625-.390626-.03125-.585938-.007812-.140625-.023437-.277344-.039062-.417969-.019531-.183593-.050781-.371093-.082031-.554687-.027344-.144532-.054688-.289063-.085938-.433594-.035156-.171875-.082031-.339844-.128906-.511719-.042969-.148437-.085938-.300781-.136719-.449219-.050781-.15625-.109375-.308593-.167969-.464843-.0625-.15625-.121094-.308594-.191406-.464844-.0625-.140625-.132812-.28125-.203125-.417969-.078125-.160156-.160156-.316406-.25-.472656-.074219-.128906-.152344-.253906-.230469-.382812-.097656-.15625-.203125-.3125-.308594-.464844-.042968-.058594-.078124-.121094-.121093-.179688-.046875-.0625-.101563-.117187-.152344-.179687-.105469-.136719-.21875-.273438-.335937-.40625-.109376-.125-.21875-.25-.335938-.371094-.101562-.109375-.210938-.214844-.320312-.316406-.136719-.128907-.269532-.253907-.410157-.371094-.101562-.089844-.210937-.171875-.316406-.257813-.152344-.117187-.300781-.230468-.457031-.339843-.113282-.078125-.226563-.152344-.347656-.226563-.152344-.097656-.304688-.195312-.460938-.285156-.136719-.074219-.273438-.144531-.410156-.214844-.148438-.070312-.292969-.144531-.441406-.210937-.160157-.070313-.320313-.132813-.480469-.195313-.136719-.050781-.277344-.105468-.417969-.148437-.171875-.058594-.34375-.109375-.519531-.15625-.140625-.039063-.28125-.074219-.421875-.109375-.167969-.039063-.34375-.070313-.515625-.101563-.160157-.023437-.3125-.050781-.472657-.070312-.15625-.019531-.316406-.035157-.476562-.046875-.183594-.015625-.363281-.023438-.546875-.027344-.074219 0-.148437-.011719-.226563-.011719h-61.683593c7.457031-18.011719 25.304687-31.269531 44.164062-31.269531h18.285157c26.054687 0 47.253906 21.199219 47.253906 47.253906v110.5h-112.789063v-16.640625zm99.925781 247.78125v-211.035156h13.261719v211.035156zm172.070313-231.140625h-139.101563v-110.503906c0-18.394531-7.417968-35.082031-19.414062-47.25h102.121094c31.09375 0 56.394531 25.296875 56.394531 56.394531zm0 0"/><path d="m402.664062 188.386719h-32.058593c-5.550781 0-10.054688 4.5-10.054688 10.054687 0 5.550782 4.503907 10.050782 10.054688 10.050782h32.058593c5.550782 0 10.050782-4.5 10.050782-10.050782 0-5.554687-4.5-10.054687-10.050782-10.054687zm0 0"/><path d="m402.664062 224.507812h-57.238281c-5.550781 0-10.050781 4.503907-10.050781 10.054688s4.5 10.050781 10.050781 10.050781h57.238281c5.550782 0 10.050782-4.5 10.050782-10.050781s-4.5-10.054688-10.050782-10.054688zm0 0"/><path d="m329.042969 403.089844c-2.078125-5.144532-7.9375-7.632813-13.085938-5.554688-5.148437 2.078125-7.636719 7.9375-5.558593 13.085938l.265624.65625c1.582032 3.914062 5.347657 6.289062 9.324219 6.289062 1.253907 0 2.527344-.234375 3.761719-.734375 5.148438-2.078125 7.636719-7.9375 5.554688-13.085937zm0 0"/><path d="m340.3125 194.996094-.265625-.65625c-2.085937-5.148438-7.949219-7.628906-13.09375-5.542969s-7.625 7.945313-5.542969 13.089844l.265625.65625c1.585938 3.910156 5.347657 6.28125 9.320313 6.28125 1.257812 0 2.535156-.238281 3.773437-.738281 5.144531-2.085938 7.625-7.945313 5.542969-13.089844zm0 0"/><path d="m42.222656 144.320312h-28.148437c-5.550781 0-10.050781 4.5-10.050781 10.054688 0 5.550781 4.5 10.050781 10.050781 10.050781h28.148437c5.550782 0 10.050782-4.5 10.050782-10.050781 0-5.554688-4.5-10.054688-10.050782-10.054688zm0 0"/><path d="m42.222656 176.058594h-14.074218c-5.550782 0-10.054688 4.503906-10.054688 10.054687s4.503906 10.050781 10.054688 10.050781h14.074218c5.550782 0 10.050782-4.5 10.050782-10.050781s-4.5-10.054687-10.050782-10.054687zm0 0"/><path d="m42.222656 208.75h-32.167968c-5.550782 0-10.054688 4.5-10.054688 10.050781 0 5.554688 4.503906 10.054688 10.054688 10.054688h32.167968c5.550782 0 10.050782-4.5 10.050782-10.054688 0-5.550781-4.5-10.050781-10.050782-10.050781zm0 0"/></svg>