<svg height="512pt" viewBox="-48 0 512 512.001" width="512pt" xmlns="http://www.w3.org/2000/svg"><path d="m172.441406 197.882812c-25.96875-13.128906-42.101562-39.347656-42.101562-68.421874 0-42.242188 34.367187-76.609376 76.609375-76.609376 42.242187 0 76.609375 34.367188 76.609375 76.609376 0 29.078124-16.132813 55.292968-42.101563 68.421874-4.949219 2.5-6.929687 8.535157-4.429687 13.484376 1.769531 3.496093 5.300781 5.511718 8.964844 5.511718 1.523437 0 3.070312-.347656 4.519531-1.082031 32.765625-16.5625 53.121093-49.644531 53.121093-86.335937 0-53.308594-43.371093-96.679688-96.679687-96.679688-53.3125 0-96.683594 43.371094-96.683594 96.679688 0 36.691406 20.351563 69.773437 53.117188 86.335937 4.949219 2.5 10.984375.515625 13.484375-4.429687 2.5-4.949219.515625-10.984376-4.429688-13.484376zm0 0"/><path d="m259.636719 129.460938c0-29.050782-23.632813-52.6875-52.6875-52.6875-29.050781 0-52.6875 23.636718-52.6875 52.6875 0 29.054687 23.636719 52.691406 52.6875 52.691406 29.054687 0 52.6875-23.636719 52.6875-52.691406zm-52.6875 32.617187c-17.984375 0-32.613281-14.632813-32.613281-32.617187 0-17.984376 14.628906-32.613282 32.613281-32.613282s32.617187 14.628906 32.617187 32.613282c0 17.984374-14.632812 32.617187-32.617187 32.617187zm0 0"/><path d="m412.640625 326.320312-53.449219-42.261718c-3.019531-2.386719-7.136718-2.835938-10.601562-1.160156-3.464844 1.675781-5.664063 5.183593-5.664063 9.03125v32.226562h-104.757812c1.378906-1.453125 2.800781-2.992188 4.265625-4.617188 10.484375-11.625 23.109375-27.738281 37.535156-47.898437 24.371094-34.066406 45.886719-68.585937 46.101562-68.929687.164063-.265626.316407-.535157.457032-.816407 8.402344-16.808593 18.417968-41.542969 18.417968-63.902343 0-35.203126-15.054687-70.445313-41.300781-96.691407-26.25-26.246093-61.492187-41.300781-96.695312-41.300781s-70.445313 15.054688-96.691407 41.300781c-26.246093 26.246094-41.300781 61.488281-41.300781 96.691407 0 22.359374 10.015625 47.09375 18.417969 63.902343.140625.28125.296875.558594.460938.828125.214843.34375 21.785156 34.859375 46.183593 68.921875 14.433594 20.15625 27.066407 36.269531 37.535157 47.894531 1.464843 1.625 2.886718 3.164063 4.265624 4.617188h-102.292968v-32.222656c0-3.847656-2.199219-7.359375-5.664063-9.035156-3.460937-1.675782-7.582031-1.226563-10.601562 1.160156l-53.449219 42.261718c-2.40625 1.902344-3.8125 4.804688-3.8125 7.871094 0 3.070313 1.40625 5.972656 3.8125 7.875l53.449219 42.257813c1.808593 1.429687 4.007812 2.164062 6.226562 2.164062 1.488281 0 2.984375-.328125 4.371094-1.003906 3.464844-1.675781 5.664063-5.183594 5.664063-9.03125v-32.222656h123.390624v7.390625c0 5.542968 4.496094 10.035156 10.035157 10.035156 5.542969 0 10.039062-4.492188 10.039062-10.035156v-7.390625h125.9375v32.222656c0 3.847656 2.199219 7.355469 5.664063 9.03125 1.390625.675781 2.886718 1.003906 4.371094 1.003906 2.21875 0 4.421874-.734375 6.226562-2.164062l53.449219-42.257813c2.40625-1.902344 3.8125-4.804687 3.8125-7.875 0-3.066406-1.402344-5.96875-3.808594-7.871094zm-359.191406 29.402344-27.230469-21.53125 27.230469-21.53125zm95.492187-97.71875c-22.027344-30.90625-41.417968-61.671875-43.824218-65.507812-10.375-20.871094-16.085938-40.210938-16.085938-54.503906 0-62.816407 55.101562-117.917969 117.917969-117.917969 62.816406 0 117.917969 55.101562 117.917969 117.917969 0 14.292968-5.710938 33.640624-16.085938 54.507812-2.386719 3.816406-21.71875 34.566406-43.742188 65.503906-41.765624 58.664063-55.59375 65.339844-58.078124 66.09375-2.476563-.773437-16.269532-7.515625-58.019532-66.09375zm214.058594 97.71875v-43.0625l27.230469 21.53125zm0 0"/><path d="m249.082031 438.476562h-32.09375v-6.5625c0-5.542968-4.496093-10.035156-10.039062-10.035156-5.539063 0-10.035157 4.492188-10.035157 10.035156v6.5625h-32.355468c-3.847656 0-7.355469 2.199219-9.035156 5.664063-1.675782 3.460937-1.222657 7.578125 1.160156 10.597656l42.261718 53.449219c1.902344 2.410156 4.804688 3.8125 7.875 3.8125 3.066407 0 5.96875-1.402344 7.871094-3.8125l42.261719-53.449219c2.386719-3.015625 2.835937-7.132812 1.160156-10.597656s-5.183593-5.664063-9.03125-5.664063zm-42.261719 47.304688-21.53125-27.230469h43.058594zm0 0"/><path d="m197.601562 396.140625c1.578126 3.914063 5.339844 6.289063 9.3125 6.289063 1.25 0 2.519532-.234376 3.75-.730469 5.140626-2.070313 7.628907-7.917969 5.554688-13.058594l-.183594-.457031c-2.070312-5.144532-7.917968-7.632813-13.0625-5.558594-5.140625 2.070312-7.628906 7.917969-5.554687 13.058594zm0 0"/><path d="m216.035156 211.121094c-2.070312-5.144532-7.917968-7.628906-13.058594-5.558594-5.140624 2.070312-7.632812 7.921875-5.558593 13.0625l.183593.457031c1.578126 3.910157 5.339844 6.289063 9.3125 6.289063 1.25 0 2.519532-.234375 3.75-.730469 5.140626-2.074219 7.628907-7.921875 5.554688-13.0625zm0 0"/></svg>