<svg height="512pt" viewBox="-62 0 512 512.00101" width="512pt" xmlns="http://www.w3.org/2000/svg"><path d="m67.257812 134.761719c11.507813-19.890625 26.621094-37.429688 44.453126-51.722657"/><path d="m118.003906 90.890625c4.339844-3.476563 5.035156-9.8125 1.558594-14.152344-3.476562-4.335937-9.8125-5.03125-14.152344-1.554687-18.957031 15.199218-34.722656 33.546875-46.863281 54.535156-2.785156 4.8125-1.140625 10.96875 3.671875 13.753906 1.585938.917969 3.320312 1.355469 5.03125 1.355469 3.476562 0 6.855469-1.804687 8.722656-5.027344 10.886719-18.820312 25.03125-35.277343 42.03125-48.910156zm0 0"/><path d="m296.601562 194.378906c0-56.363281-45.855468-102.222656-102.222656-102.222656-56.363281 0-102.222656 45.859375-102.222656 102.222656 0 56.367188 45.859375 102.222656 102.222656 102.222656 56.367188 0 102.222656-45.855468 102.222656-102.222656zm-184.3125 0c0-45.265625 36.824219-82.089844 82.089844-82.089844s82.089844 36.824219 82.089844 82.089844-36.824219 82.089844-82.089844 82.089844-82.089844-36.824219-82.089844-82.089844zm0 0"/><path d="m283.832031 443.351562-19.175781-67.746093c72.546875-28.230469 124.101562-98.816407 124.101562-181.226563 0-107.179687-87.199218-194.378906-194.378906-194.378906-107.179687 0-194.378906 87.199219-194.378906 194.378906 0 82.320313 51.445312 152.847656 123.871094 181.140625l-19.773438 67.792969c-30.164062 2.496094-53.953125 27.824219-53.953125 58.621094 0 5.5625 4.507813 10.066406 10.066407 10.066406h266.980468c5.5625 0 10.066406-4.507812 10.066406-10.066406 0-30.617188-23.511718-55.839844-53.425781-58.582032zm-263.402343-238.90625h31.113281c5.558593 0 10.066406-4.507812 10.066406-10.066406s-4.507813-10.066406-10.066406-10.066406h-31.113281c5.234374-91.414062 81.25-164.179688 173.949218-164.179688 92.703125 0 168.714844 72.765626 173.949219 164.179688h-31.109375c-5.5625 0-10.066406 4.507812-10.066406 10.066406s4.503906 10.066406 10.066406 10.066406h31.109375c-5.234375 91.414063-81.246094 164.179688-173.949219 164.179688-92.699218 0-168.714844-72.765625-173.949218-164.179688zm163.882812 184.054688v22.730469c0 5.5625 4.507812 10.066406 10.066406 10.066406s10.066406-4.503906 10.066406-10.066406v-22.730469c14.140626-.726562 27.882813-2.980469 41.074219-6.582031l17.316407 61.175781h-137.703126l17.863282-61.242188c13.265625 3.640626 27.089844 5.917969 41.316406 6.648438zm-112.707031 103.367188c4.441406-16.480469 19.515625-28.640626 37.378906-28.640626h169.433594c17.863281 0 32.941406 12.160157 37.382812 28.640626zm0 0"/><path d="m198.28125 204.015625c5.152344-2.085937 7.640625-7.953125 5.554688-13.105469l-.25-.617187c-2.085938-5.152344-7.957032-7.636719-13.109376-5.550781-5.152343 2.085937-7.636718 7.953124-5.550781 13.105468l.246094.617188c1.585937 3.914062 5.355469 6.289062 9.335937 6.289062 1.257813 0 2.535157-.234375 3.773438-.738281zm0 0"/><path d="m145.746094 62.542969c1.582031 3.917969 5.351562 6.296875 9.335937 6.296875 1.253907 0 2.53125-.238282 3.769531-.738282 5.152344-2.082031 7.640626-7.949218 5.558594-13.105468l-.25-.613282c-2.082031-5.15625-7.953125-7.644531-13.105468-5.558593-5.15625 2.082031-7.644532 7.949219-5.558594 13.105469zm0 0"/></svg>