<svg height="512pt" viewBox="-104 0 512 512.00101" width="512pt" xmlns="http://www.w3.org/2000/svg"><path d="m284.539062 0h-264.5625c-10.945312 0-19.847656 8.902344-19.847656 19.847656v34.867188c0 5.5625 4.507813 10.074218 10.074219 10.074218 5.5625 0 10.074219-4.511718 10.074219-10.074218v-34.566406h263.957031v471.703124h-263.957031v-355.53125c0-5.5625-4.511719-10.074218-10.074219-10.074218-5.566406 0-10.074219 4.511718-10.074219 10.074218v355.835938c0 10.941406 8.902344 19.84375 19.847656 19.84375h264.5625c10.941407 0 19.847657-8.902344 19.847657-19.84375v-472.308594c0-10.945312-8.90625-19.847656-19.847657-19.847656zm0 0"/><path d="m266.421875 409.429688v-362.363282c0-5.5625-4.511719-10.074218-10.074219-10.074218h-207.542968c-5.566407 0-10.078126 4.511718-10.078126 10.074218v362.363282c0 5.5625 4.511719 10.074218 10.078126 10.074218h207.542968c5.5625 0 10.074219-4.511718 10.074219-10.074218zm-20.148437-10.078126h-187.394532v-342.210937h187.394532zm0 0"/><path d="m99.175781 428.570312c-5.5625 0-10.074219 4.511719-10.074219 10.074219v33.75c0 5.566407 4.511719 10.078125 10.074219 10.078125h106.796875c5.5625 0 10.074219-4.511718 10.074219-10.078125v-33.75c0-5.5625-4.511719-10.074219-10.074219-10.074219zm96.722657 33.75h-86.644532v-13.601562h86.644532zm0 0"/><path d="m233.976562 445.871094c-5.160156 2.085937-7.652343 7.957031-5.566406 13.117187l.25.613281c1.582032 3.925782 5.355469 6.304688 9.34375 6.304688 1.253906 0 2.53125-.238281 3.769532-.734375 5.160156-2.085937 7.652343-7.957031 5.566406-13.117187l-.246094-.613282c-2.085938-5.160156-7.957031-7.652344-13.117188-5.570312zm0 0"/><path d="m191.183594 266.382812c1.257812 0 2.535156-.234374 3.773437-.734374 5.160157-2.085938 7.648438-7.957032 5.5625-13.117188l-.246093-.617188c-2.085938-5.15625-7.960938-7.648437-13.121094-5.5625-5.15625 2.085938-7.648438 7.957032-5.5625 13.117188l.25.617188c1.585937 3.917968 5.359375 6.296874 9.34375 6.296874zm0 0"/><path d="m.992188 99.410156c1.585937 3.917969 5.355468 6.296875 9.339843 6.296875 1.257813 0 2.539063-.238281 3.777344-.742187 5.15625-2.085938 7.644531-7.960938 5.554687-13.117188l-.25-.617187c-2.085937-5.15625-7.960937-7.644531-13.121093-5.554688-5.15625 2.089844-7.640625 7.964844-5.550781 13.121094zm0 0"/><path d="m63.921875 445.871094c-5.160156 2.085937-7.652344 7.957031-5.566406 13.117187l.25.613281c1.582031 3.925782 5.355469 6.304688 9.34375 6.304688 1.253906 0 2.53125-.238281 3.769531-.734375 5.160156-2.085937 7.652344-7.957031 5.566406-13.117187l-.246094-.613282c-2.085937-5.160156-7.957031-7.652344-13.117187-5.570312zm0 0"/><path d="m110.929688 367.449219c18.148437 0 32.914062-14.761719 32.914062-32.910157 0-18.148437-14.765625-32.914062-32.914062-32.914062-18.144532 0-32.910157 14.765625-32.910157 32.914062 0 18.148438 14.765625 32.910157 32.910157 32.910157zm0-45.671875c7.039062 0 12.761718 5.722656 12.761718 12.761718 0 7.035157-5.722656 12.761719-12.761718 12.761719-7.035157 0-12.761719-5.726562-12.761719-12.761719 0-7.039062 5.726562-12.761718 12.761719-12.761718zm0 0"/><path d="m159.851562 334.539062c0 18.148438 14.765626 32.910157 32.914063 32.910157 18.144531 0 32.910156-14.761719 32.910156-32.910157 0-18.148437-14.765625-32.914062-32.910156-32.914062-18.148437 0-32.914063 14.765625-32.914063 32.914062zm45.675782 0c0 7.035157-5.726563 12.761719-12.761719 12.761719-7.039063 0-12.765625-5.726562-12.765625-12.761719 0-7.039062 5.726562-12.761718 12.765625-12.761718 7.035156 0 12.761719 5.722656 12.761719 12.761718zm0 0"/><path d="m113.722656 231.832031h79.042969c5.5625 0 10.074219-4.511719 10.074219-10.074219v-22.246093c0-16.527344-9.488282-31.457031-24.066406-38.609375 2.761718-4.574219 4.351562-9.929688 4.351562-15.652344v-13.695312c0-2.988282-.4375-5.953126-1.300781-8.808594-3.90625-12.914063-15.597657-21.589844-29.09375-21.589844-13.386719 0-25.050781 8.582031-29.03125 21.355469-.90625 2.921875-1.367188 5.964843-1.367188 9.042969v13.695312c0 5.890625 1.6875 11.390625 4.601563 16.050781-14.136719 7.296875-23.285156 21.980469-23.285156 38.210938v22.242187c-.003907 5.566406 4.507812 10.078125 10.074218 10.078125zm28.757813-100.277343c0-1.042969.15625-2.074219.460937-3.054688 1.339844-4.300781 5.273438-7.191406 9.785156-7.191406 4.480469 0 8.515626 2.992187 9.808594 7.273437.292969.960938.441406 1.960938.441406 2.972657v13.695312c0 5.648438-4.597656 10.246094-10.246093 10.246094-5.652344 0-10.25-4.597656-10.25-10.246094zm-18.683594 67.957031c0-9.707031 6.15625-18.378907 15.324219-21.582031 3.921875-1.367188 7.984375-2.121094 12.078125-2.242188 1.054687-.027344 2.058593-.035156 2.976562-.039062 4.433594.007812 8.867188.777343 13.1875 2.28125 9.164063 3.203124 15.324219 11.875 15.324219 21.582031v12.167969h-58.890625zm0 0"/><path d="m110.929688 266.363281h39.261718c5.5625 0 10.074219-4.507812 10.074219-10.074219 0-5.5625-4.511719-10.074218-10.074219-10.074218h-39.261718c-5.5625 0-10.074219 4.511718-10.074219 10.074218 0 5.566407 4.511719 10.074219 10.074219 10.074219zm0 0"/></svg>