<svg height="512pt" viewBox="-104 0 512 512.00101" width="512pt" xmlns="http://www.w3.org/2000/svg"><path d="m220.546875 167.390625-55.78125-48.417969"/><path d="m82.390625 167.390625 55.78125-48.417969"/><path d="m284.539062 0h-264.5625c-10.945312 0-19.847656 8.902344-19.847656 19.847656v34.867188c0 5.5625 4.511719 10.074218 10.074219 10.074218 5.566406 0 10.078125-4.511718 10.078125-10.074218v-34.566406h263.953125v471.703124h-263.953125v-355.53125c0-5.5625-4.511719-10.074218-10.078125-10.074218-5.5625 0-10.074219 4.511718-10.074219 10.074218v355.835938c0 10.941406 8.902344 19.84375 19.847656 19.84375h264.5625c10.941407 0 19.847657-8.902344 19.847657-19.84375v-472.308594c0-10.945312-8.90625-19.847656-19.847657-19.847656zm0 0"/><path d="m.988281 99.40625c1.585938 3.921875 5.359375 6.300781 9.34375 6.300781 1.257813 0 2.535157-.238281 3.773438-.738281 5.15625-2.085938 7.648437-7.957031 5.5625-13.117188l-.25-.613281c-2.085938-5.160156-7.953125-7.648437-13.117188-5.5625-5.15625 2.082031-7.648437 7.957031-5.5625 13.117188zm0 0"/><path d="m265.207031 408.296875v-362.359375c0-5.566406-4.507812-10.078125-10.074219-10.078125h-207.542968c-5.566406 0-10.074219 4.511719-10.074219 10.078125v362.359375c0 5.566406 4.507813 10.074219 10.074219 10.074219h207.542968c5.566407 0 10.074219-4.507813 10.074219-10.074219zm-20.148437-10.074219h-187.394532v-342.210937h187.394532zm0 0"/><path d="m97.964844 427.441406c-5.566406 0-10.074219 4.507813-10.074219 10.074219v33.75c0 5.566406 4.507813 10.074219 10.074219 10.074219h106.792968c5.566407 0 10.074219-4.507813 10.074219-10.074219v-33.75c0-5.566406-4.507812-10.074219-10.074219-10.074219zm96.71875 33.75h-86.644532v-13.601562h86.644532zm0 0"/><path d="m232.753906 444.746094c-5.15625 2.089844-7.644531 7.964844-5.554687 13.121094l.25.613281c1.585937 3.917969 5.359375 6.296875 9.339843 6.296875 1.261719 0 2.539063-.238282 3.78125-.742188 5.15625-2.089844 7.640626-7.960937 5.554688-13.121094l-.25-.613281c-2.089844-5.15625-7.960938-7.644531-13.121094-5.554687zm0 0"/><path d="m62.699219 444.746094c-5.15625 2.089844-7.644531 7.964844-5.554688 13.121094l.25.613281c1.585938 3.917969 5.359375 6.296875 9.339844 6.296875 1.261719 0 2.539063-.238282 3.78125-.742188 5.15625-2.089844 7.640625-7.960937 5.554687-13.121094l-.25-.613281c-2.089843-5.15625-7.960937-7.644531-13.121093-5.554687zm0 0"/><path d="m72.351562 168.097656c.011719.136719.015626.277344.03125.414063.019532.183593.050782.367187.082032.550781.027344.144531.046875.292969.074218.433594.039063.167968.085938.335937.132813.503906.039063.152344.074219.300781.121094.449219.050781.15625.113281.308593.171875.464843.054687.152344.109375.308594.171875.457032.0625.144531.136719.285156.207031.425781.074219.15625.144531.3125.230469.460937.070312.128907.152343.253907.230469.378907.09375.160156.191406.316406.292968.464843.082032.117188.167969.226563.253906.339844.117188.152344.234376.308594.359376.457032.027343.03125.046874.0625.074218.09375.058594.070312.125.128906.1875.199218.148438.160156.300782.320313.460938.472656.109375.105469.222656.203126.332031.300782.144531.128906.292969.253906.449219.371094.125.097656.25.195312.378906.285156.152344.109375.308594.207031.46875.308594.132812.082031.265625.167968.398438.242187.175781.097656.355468.1875.535156.273437.125.058594.246094.125.375.179688.214844.09375.433594.175781.65625.25.097656.035156.195312.078125.292968.109375.273438.085937.550782.15625.832032.222656.054687.011719.105468.027344.164062.042969.328125.066406.664063.121094 1.007813.15625.007812.003906.015625.003906.019531.003906.347656.035156.695312.054688 1.050781.054688h138.152344c.355469 0 .703125-.019532 1.046875-.054688.007812 0 .015625-.003906.023438-.003906.339843-.035156.679687-.089844 1.007812-.15625.054688-.011719.105469-.03125.15625-.042969.285156-.0625.566406-.136719.835938-.222656.097656-.03125.195312-.070313.292968-.105469.222656-.078125.445313-.160156.660156-.253906.125-.054688.246094-.121094.371094-.179688.179688-.085937.363282-.175781.539063-.273437.132812-.078125.265625-.160156.394531-.242187.160156-.101563.316406-.203126.46875-.308594.128906-.09375.257812-.1875.382812-.285156.152344-.121094.300782-.242188.445313-.371094.113281-.097656.222656-.195313.332031-.300782.160156-.152343.3125-.3125.460938-.476562.0625-.066406.128906-.125.191406-.195312.023438-.03125.046875-.0625.070312-.09375.128907-.148438.246094-.304688.359376-.460938.085937-.109375.175781-.222656.253906-.335938.105468-.148437.199218-.308593.292968-.464843.078126-.125.160157-.25.234376-.378907.082031-.152343.152343-.308593.226562-.460937.070312-.140625.144531-.28125.207031-.425781.066407-.148438.117188-.304688.175781-.457032.054688-.15625.117188-.308593.167969-.464843.046875-.148438.082031-.300781.125-.449219.042969-.167969.09375-.335938.128907-.503906.03125-.144532.050781-.289063.074218-.433594.03125-.183594.0625-.367188.082032-.550781.015624-.136719.023437-.277344.03125-.414063.015624-.195312.027343-.390625.03125-.589844 0-.039062.003906-.078124.003906-.117187v-86.929687c0-.035157-.003906-.070313-.003906-.105469-.003907-.421875-.03125-.839844-.089844-1.261719 0-.007812 0-.015625 0-.023438-.054688-.402343-.144532-.800781-.25-1.195312-.019532-.078125-.039063-.15625-.0625-.234375-.015625-.058594-.027344-.117187-.046875-.175781-.101563-.320313-.21875-.628906-.347657-.929688-.027343-.066406-.058593-.132812-.089843-.199218-.339844-.757813-.765625-1.460938-1.269531-2.097657-.039063-.050781-.074219-.101562-.117188-.148437-.25-.308594-.519531-.597656-.800781-.871094-.054688-.050781-.109375-.101562-.164063-.15625-.296875-.269531-.601562-.527344-.925781-.761719-.042969-.027343-.085937-.054687-.125-.085937-.339844-.234375-.6875-.453125-1.054687-.648438-.011719-.007812-.027344-.015625-.042969-.023437-.003907-.003907-.007813-.003907-.015625-.007813-.371094-.195312-.753906-.359375-1.148438-.507812-.0625-.019532-.121094-.042969-.179687-.066406-.375-.132813-.757813-.238282-1.152344-.328126-.070313-.015624-.144531-.027343-.21875-.042968-.390625-.078125-.789063-.140625-1.195313-.171875-.035156 0-.074218 0-.113281-.003907-.21875-.011718-.4375-.027343-.65625-.027343h-138.160156c-.226563 0-.449219.015625-.675781.027343-.03125.003907-.0625.003907-.09375.003907-.40625.03125-.808594.09375-1.203125.171875-.070313.015625-.140625.027344-.207031.042968-.394532.089844-.78125.195313-1.160157.328126-.058593.023437-.113281.046874-.171875.066406-.398437.148437-.785156.3125-1.15625.507812-.003906.003906-.007812.003906-.015625.007813-.015625.007812-.027343.015625-.042969.023437-.363281.195313-.714843.414063-1.050781.648438-.042969.03125-.085937.058594-.125.085937-.328125.234375-.632812.492188-.925781.761719-.054688.054688-.113281.105469-.167969.15625-.28125.273438-.550781.5625-.800781.871094-.039062.046875-.078125.097656-.117188.148437-.5.636719-.929687 1.339844-1.269531 2.097657-.027343.066406-.058593.128906-.089843.199218-.125.300782-.246094.609375-.34375.929688-.019532.058594-.03125.117187-.050782.175781-.019531.078125-.039062.15625-.0625.234375-.105468.394531-.191406.796875-.246094 1.195312-.003906.007813-.003906.015626-.003906.023438-.058594.421875-.082031.84375-.085937 1.261719 0 .035156-.007813.070312-.007813.105469v86.929687c0 .039063.003906.078125.007813.121094 0 .195312.011719.390625.027343.585937zm66.792969-36.625c3.875 1.859375 8.097657 2.792969 12.324219 2.792969 4.222656 0 8.449219-.933594 12.324219-2.792969l29.777343 25.84375h-84.203124zm-46.679687 13.832032v-45.644532l29.289062 20.222656zm88.71875-25.421876 29.289062-20.222656v45.644532zm7.039062-29.34375-32.089844 22.152344c-.347656.242188-.714843.453125-1.089843.632813-1.871094.902343-4.027344 1.054687-5.996094.453125-.785156-.242188-1.542969-.601563-2.242187-1.085938l-32.089844-22.152344zm0 0"/><path d="m82.390625 314.941406h138.15625c5.5625 0 10.074219-4.511718 10.074219-10.074218v-41.859376c0-5.5625-4.511719-10.074218-10.074219-10.074218h-138.15625c-5.566406 0-10.074219 4.511718-10.074219 10.074218v41.859376c0 5.5625 4.507813 10.074218 10.074219 10.074218zm10.074219-41.855468h118.007812v21.707031h-118.007812zm0 0"/><path d="m82.390625 384.710938h138.15625c5.5625 0 10.074219-4.511719 10.074219-10.074219v-41.859375c0-5.5625-4.511719-10.074219-10.074219-10.074219h-19.144531c-5.5625 0-10.074219 4.511719-10.074219 10.074219 0 5.566406 4.511719 10.074218 10.074219 10.074218h9.070312v21.707032h-118.007812v-21.707032h28.339844c5.5625 0 10.074218-4.507812 10.074218-10.074218 0-5.5625-4.511718-10.074219-10.074218-10.074219h-38.414063c-5.566406 0-10.074219 4.511719-10.074219 10.074219v41.859375c0 5.5625 4.507813 10.074219 10.074219 10.074219zm0 0"/><path d="m220.410156 202.0625c0-5.5625-4.511718-10.074219-10.074218-10.074219h-123.054688c-5.566406 0-10.078125 4.511719-10.078125 10.074219 0 5.566406 4.511719 10.074219 10.078125 10.074219h123.050781c5.566407 0 10.078125-4.507813 10.078125-10.074219zm0 0"/><path d="m110.722656 222.800781c-5.5625 0-10.074218 4.511719-10.074218 10.074219 0 5.566406 4.511718 10.074219 10.074218 10.074219h77.183594c5.5625 0 10.074219-4.507813 10.074219-10.074219 0-5.5625-4.511719-10.074219-10.074219-10.074219zm0 0"/><path d="m157.585938 323.128906c-5.160157 2.085938-7.652344 7.957032-5.566407 13.117188l.246094.613281c1.585937 3.921875 5.359375 6.304687 9.347656 6.304687 1.253907 0 2.53125-.238281 3.769531-.734374 5.160157-2.085938 7.652344-7.957032 5.566407-13.117188l-.246094-.613281c-2.085937-5.160157-7.957031-7.65625-13.117187-5.570313zm0 0"/></svg>