<svg height="512pt" viewBox="-104 0 512 512.00101" width="512pt" xmlns="http://www.w3.org/2000/svg"><path d="m284.539062 0h-264.5625c-10.945312 0-19.847656 8.902344-19.847656 19.84375v34.871094c0 5.5625 4.511719 10.074218 10.078125 10.074218 5.5625 0 10.074219-4.511718 10.074219-10.074218v-34.566406h263.957031v471.703124h-263.957031v-355.53125c0-5.5625-4.511719-10.074218-10.078125-10.074218-5.5625 0-10.074219 4.511718-10.074219 10.074218v355.835938c0 10.941406 8.902344 19.84375 19.847656 19.84375h264.5625c10.945313 0 19.847657-8.902344 19.847657-19.84375v-472.3125c0-10.941406-8.902344-19.84375-19.847657-19.84375zm0 0"/><path d="m.988281 99.40625c1.585938 3.917969 5.359375 6.300781 9.34375 6.300781 1.257813 0 2.535157-.238281 3.773438-.738281 5.15625-2.085938 7.648437-7.957031 5.5625-13.117188l-.25-.613281c-2.085938-5.160156-7.957031-7.652343-13.117188-5.566406-5.15625 2.085937-7.648437 7.960937-5.5625 13.117187zm0 0"/><path d="m263.871094 408.296875v-362.359375c0-5.566406-4.511719-10.078125-10.078125-10.078125h-207.542969c-5.5625 0-10.074219 4.511719-10.074219 10.078125v362.359375c0 5.566406 4.511719 10.078125 10.074219 10.078125h207.542969c5.566406 0 10.078125-4.511719 10.078125-10.078125zm-20.152344-10.074219h-187.394531v-342.210937h187.394531zm0 0"/><path d="m97.964844 427.441406c-5.5625 0-10.074219 4.511719-10.074219 10.074219v33.75c0 5.566406 4.511719 10.078125 10.074219 10.078125h106.796875c5.5625 0 10.074219-4.511719 10.074219-10.078125v-33.75c0-5.5625-4.511719-10.074219-10.074219-10.074219zm96.71875 33.75h-86.644532v-13.601562h86.644532zm0 0"/><path d="m232.757812 444.746094c-5.160156 2.089844-7.644531 7.964844-5.554687 13.121094l.246094.613281c1.589843 3.917969 5.359375 6.296875 9.34375 6.296875 1.257812 0 2.539062-.238282 3.777343-.742188 5.15625-2.089844 7.644532-7.960937 5.554688-13.121094l-.25-.613281c-2.085938-5.15625-7.960938-7.644531-13.117188-5.554687zm0 0"/><path d="m62.699219 444.746094c-5.15625 2.089844-7.640625 7.964844-5.550781 13.121094l.246093.613281c1.589844 3.917969 5.359375 6.296875 9.339844 6.296875 1.261719 0 2.542969-.238282 3.78125-.742188 5.15625-2.089844 7.644531-7.960937 5.554687-13.121094l-.25-.613281c-2.089843-5.15625-7.960937-7.644531-13.121093-5.554687zm0 0"/><path d="m88.296875 153.75h12.03125l8.203125 9.347656c1.871094 2.136719 4.558594 3.382813 7.398438 3.429688.058593.003906.117187.003906.175781.003906.65625 0 1.308593-.070312 1.949219-.195312v17.171874c0 5.5625 4.507812 10.074219 10.074218 10.074219h41.871094l8 9.226563c1.855469 2.136718 4.523438 3.394531 7.351562 3.46875.085938 0 .171876.003906.261719.003906 2.734375 0 5.355469-1.113281 7.257813-3.089844l9.246094-9.609375h12.3125c5.5625 0 10.074218-4.511719 10.074218-10.074219v-53.109374c0-5.566407-4.511718-10.074219-10.074218-10.074219h-29.757813v-29.757813c0-5.5625-4.511719-10.074218-10.074219-10.074218h-86.300781c-5.566406 0-10.074219 4.511718-10.074219 10.074218v53.109375c0 5.566407 4.507813 10.074219 10.074219 10.074219zm116.054687 19.683594h-6.519531c-2.742187 0-5.363281 1.113281-7.261719 3.085937l-4.574218 4.753907-3.789063-4.367188c-1.914062-2.207031-4.691406-3.472656-7.613281-3.472656h-36.394531v-32.960938h66.152343zm-105.980468-72.789063h66.152344v19.679688h-36.398438c-5.5625 0-10.074219 4.511719-10.074219 10.074219v9.285156l-1.6875 1.792968-3.898437-4.445312c-1.910156-2.179688-4.671875-3.429688-7.574219-3.429688h-6.519531zm0 0"/><path d="m88.296875 242.648438h126.132813c5.5625 0 10.074218-4.511719 10.074218-10.074219 0-5.566407-4.511718-10.074219-10.074218-10.074219h-126.132813c-5.566406 0-10.074219 4.507812-10.074219 10.074219 0 5.5625 4.507813 10.074219 10.074219 10.074219zm0 0"/><path d="m88.296875 279.015625h53.664063c5.566406 0 10.078124-4.511719 10.078124-10.074219 0-5.566406-4.511718-10.078125-10.078124-10.078125h-53.664063c-5.566406 0-10.074219 4.511719-10.074219 10.078125 0 5.5625 4.507813 10.074219 10.074219 10.074219zm0 0"/><path d="m88.296875 315.382812h97.660156c5.5625 0 10.074219-4.511718 10.074219-10.074218 0-5.566406-4.511719-10.078125-10.074219-10.078125h-97.660156c-5.566406 0-10.074219 4.511719-10.074219 10.078125 0 5.5625 4.507813 10.074218 10.074219 10.074218zm0 0"/><path d="m179.574219 259.296875c-5.15625 2.089844-7.644531 7.960937-5.554688 13.121094l.25.613281c1.585938 3.917969 5.359375 6.292969 9.339844 6.292969 1.257813 0 2.539063-.234375 3.78125-.738281 5.15625-2.089844 7.640625-7.964844 5.550781-13.121094l-.246094-.613282c-2.089843-5.160156-7.964843-7.644531-13.121093-5.554687zm0 0"/><path d="m86.140625 389.582031h46.082031c5.566406 0 10.078125-4.511719 10.078125-10.074219v-41.859374c0-5.5625-4.511719-10.074219-10.078125-10.074219h-46.082031c-5.5625 0-10.074219 4.511719-10.074219 10.074219v41.859374c0 5.5625 4.511719 10.074219 10.074219 10.074219zm10.074219-41.859375h25.933594v21.707032h-25.933594zm0 0"/><path d="m214.429688 327.574219h-46.085938c-5.5625 0-10.074219 4.511719-10.074219 10.074219v41.859374c0 5.5625 4.511719 10.074219 10.074219 10.074219h46.085938c5.5625 0 10.074218-4.511719 10.074218-10.074219v-41.859374c0-5.5625-4.511718-10.074219-10.074218-10.074219zm-10.078126 41.855469h-25.929687v-21.707032h25.929687zm0 0"/></svg>