<svg height="511pt" viewBox="0 0 511.99849 511" width="511pt" xmlns="http://www.w3.org/2000/svg"><path d="m480.007812 113.648438c-2.84375-4.808594-9.046874-6.398438-13.855468-3.550782-4.808594 2.84375-6.398438 9.050782-3.554688 13.855469 17.371094 29.34375 27.285156 62.59375 28.921875 96.742187h-20.011719c-5.589843 0-10.117187 4.53125-10.117187 10.117188s4.527344 10.117188 10.117187 10.117188h20.019532c-2.4375 51.515624-23.429688 99.792968-59.746094 136.871093-37.988281 38.789063-88.558594 61.070313-142.652344 62.949219-1.808594-11.710938-9.101562-24.179688-18.375-30.652344l-76.875-53.652344c-11.324218-7.902343-26.378906-7.710937-37.460937.480469-3.78125 2.796875-7.320313 5.894531-10.585938 9.269531-17.4375-20.019531-31.105469-43.570312-39.8125-68.722656-8.695312-25.113281-12.507812-52.050781-11.1875-78.550781.210938.027344.421875.054687.632813.082031 20.316406 2.617188 39.429687-9.875 45.449218-29.707031l12.507813-41.175781c0-.007813.003906-.015625.007813-.023438l14.609374-48.109375c3.921876-12.910156-.796874-26.851562-11.742187-34.726562-.671875-.496094-1.371094-.972657-2.070313-1.453125 34.175782-26.132813 74.527344-40.832032 117.339844-42.832032v18.503907c0 5.589843 4.53125 10.117187 10.117188 10.117187 5.585937 0 10.117187-4.527344 10.117187-10.117187v-18.503907c43.714844 2.039063 84.820313 17.292969 119.433594 44.441407 4.394531 3.445312 10.753906 2.679687 14.203125-1.714844 3.445312-4.398437 2.679688-10.753906-1.71875-14.203125-40.863281-32.058594-89.980469-49-142.035156-49-51.535156 0-100.261719 16.640625-140.910156 48.121094-2.09375 1.621094-4.125 3.402344-6.089844 5.304687-38.914063-13.761719-82.730469 2.324219-103.015625 39.265625-.03125.050782-.058594.105469-.085938.15625-.625 1.1875-1.269531 2.414063-1.921875 3.757813-.601562 1.238281-1.148437 2.457031-1.726562 3.75-4.191406 8.925781-6.105469 14.378906-9 22.621093l-.613282 1.753907c-.699218 1.960937-17.148437 48.429687-18.136718 79.539062-1.933594 60.882813 11.511718 120.066407 38.886718 171.148438 29.050782 54.21875 73.023438 97.238281 127.175782 124.417969 1.042968.550781 2.324218 1.222656 3.671875 1.878906 11.796875 5.726562 24.460937 8.613281 37.195312 8.613281 9.394531 0 18.828125-1.570313 27.96875-4.738281 21.523438-7.449219 38.859375-22.84375 48.8125-43.339844.265625-.546875.507813-1.101562.757813-1.652344.921875-.007812 1.71875-.015625 2.21875-.027344 60.425781-1.335937 117.023437-25.878906 159.367187-69.113281 42.40625-43.300781 65.761719-100.527343 65.761719-161.144531 0-41.296875-11.0625-81.816406-31.992188-117.164062zm-214.3125 340.265624c-7.589843 15.632813-20.816406 27.375-37.234374 33.058594-16.417969 5.683594-34.070313 4.632813-49.703126-2.960937-1.09375-.527344-2.128906-1.074219-3.167968-1.625-.0625-.03125-.125-.0625-.183594-.09375-50.441406-25.292969-91.417969-65.382813-118.503906-115.929688-25.699219-47.957031-38.320313-103.613281-36.5-160.953125.886718-27.929687 16.8125-72.9375 16.984375-73.425781l.636719-1.804687c2.890624-8.226563 4.480468-12.761719 8.261718-20.808594.027344-.058594.089844-.199219.117188-.257813.46875-1.046875.933594-2.097656 1.457031-3.167969.515625-1.0625 1.050781-2.078124 1.582031-3.09375 16.6875-30.289062 54.160156-42.152343 85.355469-27.003906 3.46875 1.683594 6.671875 3.609375 9.515625 5.71875.046875.03125.09375.066406.140625.097656 3.933594 2.816407 5.632813 7.816407 4.226563 12.445313l-11.953126 39.355469-23.402343-4.757813c-5.480469-1.113281-10.816407 2.421875-11.929688 7.898438-1.113281 5.472656 2.421875 10.8125 7.894531 11.929687l21.53125 4.375-9.265624 30.507813c-3.140626 10.34375-13.035157 16.871093-23.507813 15.519531-3.230469-.414062-6.464844-1.085938-9.605469-1.992188-2.875-.828124-5.96875-.34375-8.449218 1.328126-2.484376 1.671874-4.097657 4.355468-4.414063 7.332031-3.480469 32.984375.433594 67.042969 11.320313 98.488281 10.898437 31.480469 28.890624 60.6875 52.023437 84.457031 2.082031 2.140625 5.003906 3.25 7.984375 3.035157 2.976562-.214844 5.707031-1.738282 7.460938-4.15625 3.957031-5.464844 8.691406-10.253907 14.078124-14.234376 4.085938-3.023437 9.65625-3.085937 13.851563-.15625l76.875 53.648438c4.886719 3.410156 9.523437 11.917969 10.105469 18.214844-.949219 3.042968-2.152344 6.066406-3.582032 9.011718zm0 0"/><path d="m284.050781 291.203125c1.34375-1.820313 2.023438-3.945313 2.023438-6.3125 0-2.515625-.6875-4.683594-2.050781-6.441406-1.421876-1.832031-3.183594-2.761719-5.230469-2.761719h-65.367188v-10.023438c0-3.925781 1.707031-8.003906 5.070313-12.121093 3.453125-4.234375 7.789062-8.171875 12.894531-11.714844l17.339844-12.34375c6.195312-4.617187 11.996093-9.292969 17.234375-13.894531 5.324218-4.675782 9.832031-10.449219 13.40625-17.160156 3.589844-6.753907 5.414062-13.898438 5.414062-21.242188 0-12.210938-4.402344-22.496094-13.078125-30.570312-8.65625-8.054688-19.578125-12.136719-32.457031-12.136719-12.007812 0-22.296875 3.5625-30.585938 10.585937-8.339843 7.066406-12.566406 16.25-12.566406 27.289063 0 9.566406 5.003906 11.578125 9.203125 11.578125 3.109375 0 5.648438-.816406 7.550781-2.425782 1.953126-1.648437 2.945313-3.601562 2.945313-5.804687 0-7.386719 2.179687-13.09375 6.480469-16.953125 4.335937-3.890625 10.046875-5.863281 16.972656-5.863281 8.167969 0 14.503906 2.503906 18.832031 7.445312 4.359375 4.980469 6.570313 10.871094 6.570313 17.503907 0 6.226562-2.441406 12.457031-7.253906 18.519531-4.898438 6.171875-10.910157 11.820312-17.882813 16.796875l-21 15.574218c-6.910156 5.074219-12.886719 10.851563-17.757813 17.164063-4.953124 6.417969-7.464843 13.058594-7.464843 19.742187v20.96875c0 2.21875 1.050781 4.0625 3.121093 5.480469 1.945313 1.335938 3.980469 2.015625 6.046876 2.015625h76.382812c2.046875-.003906 3.796875-.976562 5.207031-2.894531zm0 0"/><path d="m349.085938 292.230469c1.949218 1.238281 4.269531 1.863281 6.902343 1.863281 2.625 0 4.949219-.625 6.898438-1.863281 2.101562-1.328125 3.167969-3.191407 3.167969-5.539063v-28.386718h10.414062c2.066406 0 3.867188-1.074219 5.351562-3.191407 1.414063-2.003906 2.125-4.242187 2.125-6.65625 0-2.542969-.632812-4.8125-1.886718-6.742187-1.347656-2.0625-3.226563-3.109375-5.589844-3.109375h-10.414062v-34.839844c0-2.359375-1.074219-4.199219-3.191407-5.457031-1.953125-1.15625-4.265625-1.742188-6.875-1.742188-2.613281 0-4.925781.585938-6.875 1.742188-2.117187 1.257812-3.191406 3.09375-3.191406 5.457031v34.839844h-34.644531l46.453125-92.480469c.65625-1.15625.992187-2.339844.992187-3.519531 0-2.347657-1.121094-4.332031-3.339844-5.894531-2.105468-1.480469-4.296874-2.230469-6.511718-2.230469-3.976563 0-7.035156 1.921875-9.09375 5.738281l-53.203125 105.140625c-.816407 1.308594-1.230469 2.871094-1.230469 4.644531 0 2.460938.703125 4.476563 2.097656 5.988282 1.410156 1.535156 3.292969 2.316406 5.59375 2.316406h52.886719v28.382812c0 2.351563 1.066406 4.214844 3.164063 5.539063zm0 0"/><path d="m232.011719 317.460938c-5.179688 2.097656-7.675781 7.996093-5.578125 13.175781l.25.617187c1.59375 3.933594 5.378906 6.320313 9.378906 6.320313 1.265625 0 2.550781-.238281 3.792969-.742188 5.179687-2.097656 7.675781-7.996093 5.578125-13.175781l-.25-.617188c-2.097656-5.175781-7.992188-7.675781-13.171875-5.578124zm0 0"/><path d="m277.273438 331.253906c1.59375 3.933594 5.378906 6.320313 9.378906 6.320313 1.265625 0 2.550781-.238281 3.792968-.742188 5.179688-2.097656 7.675782-7.996093 5.578126-13.175781l-.25-.617188c-2.097657-5.175781-7.996094-7.671874-13.175782-5.578124-5.175781 2.101562-7.671875 8-5.574218 13.175781zm0 0"/><path d="m333.191406 317.460938c-5.179687 2.097656-7.675781 7.996093-5.578125 13.175781l.25.617187c1.59375 3.933594 5.378907 6.320313 9.378907 6.320313 1.265624 0 2.550781-.238281 3.792968-.742188 5.179688-2.097656 7.675782-7.996093 5.578125-13.175781l-.25-.617188c-2.097656-5.175781-7.992187-7.675781-13.171875-5.578124zm0 0"/><path d="m437.113281 90.152344c1.59375 3.933594 5.378907 6.320312 9.378907 6.320312 1.265624 0 2.550781-.238281 3.796874-.742187 5.175782-2.097657 7.671876-7.996094 5.574219-13.175781l-.183593-.457032c-2.101563-5.175781-7.996094-7.675781-13.175782-5.578125-5.179687 2.097657-7.675781 8-5.578125 13.175781zm0 0"/><path d="m144.101562 420.113281c-2.097656-5.179687-7.996093-7.675781-13.171874-5.578125-5.179688 2.097656-7.675782 7.996094-5.578126 13.171875l.1875.460938c1.59375 3.933593 5.378907 6.320312 9.378907 6.320312 1.261719 0 2.550781-.242187 3.792969-.742187 5.179687-2.101563 7.675781-8 5.578124-13.175782zm0 0"/><path d="m220.949219 457.152344c-16.203125 3.378906-33.410157-6.542969-49.585938-17.765625-4.589843-3.183594-10.894531-2.042969-14.078125 2.546875s-2.042968 10.894531 2.546875 14.078125c10.800781 7.492187 31.738281 22.015625 54.726563 22.015625 3.464844 0 6.980468-.332032 10.511718-1.066406 5.472657-1.136719 8.984376-6.496094 7.84375-11.964844-1.136718-5.46875-6.496093-8.976563-11.964843-7.84375zm0 0"/></svg>