<svg height="511pt" viewBox="-19 1 511 511.99881" width="511pt" xmlns="http://www.w3.org/2000/svg"><path d="m470.683594 496.027344-34.574219-47.089844v-248.855469h24.59375c4.226563 0 8-2.648437 9.433594-6.621093 1.4375-3.976563.230469-8.425782-3.019531-11.128907l-210.625-175.117187c-11.53125-9.589844-28.296876-9.621094-39.867188-.082032l-212.472656 175.171876c-3.269532 2.695312-4.492188 7.148437-3.0625 11.132812 1.433594 3.988281 5.210937 6.644531 9.445312 6.644531h26.488282v248.855469l-34.578126 47.089844c-2.238281 3.046875-2.570312 7.097656-.863281 10.46875 1.707031 3.375 5.167969 5.503906 8.953125 5.503906h452.0625c3.78125 0 7.242188-2.128906 8.949219-5.503906 1.710937-3.371094 1.375-7.421875-.863281-10.46875zm-241.292969-473.410156c4.140625-3.414063 10.144531-3.402344 14.269531.027343l189.277344 157.371094h-394.457031zm186.648437 177.464843v242.113281h-195.679687v-148.464843c0-5.542969-4.496094-10.035157-10.035156-10.035157h-109.019531c-5.542969 0-10.035157 4.492188-10.035157 10.035157v148.464843h-34.179687v-242.113281zm-363.902343 262.179688h39.132812v29.667969h-60.917969zm59.203125 29.667969v-188.164063h88.949218v188.164063zm109.019531 0v-29.667969h200.632813l21.785156 29.667969zm0 0"/><path d="m248.316406 293.730469v92.929687c0 5.542969 4.492188 10.035156 10.035156 10.035156h121.027344c5.539063 0 10.03125-4.492187 10.03125-10.035156v-92.929687c0-5.542969-4.492187-10.035157-10.03125-10.035157h-121.027344c-5.542968 0-10.035156 4.492188-10.035156 10.035157zm121.027344 82.894531h-40.445312v-26.394531h40.445312zm0-46.464844h-40.445312v-26.394531h40.445312zm-100.960938-26.394531h40.445313v72.863281h-40.445313zm0 0"/><path d="m152.46875 385.871094c-2.078125-5.136719-7.929688-7.613282-13.066406-5.53125-5.136719 2.082031-7.613282 7.933594-5.53125 13.070312l.265625.652344c1.582031 3.898438 5.335937 6.265625 9.300781 6.265625 1.257812 0 2.53125-.238281 3.765625-.738281 5.136719-2.082032 7.613281-7.933594 5.53125-13.066406zm0 0"/><path d="m246.832031 246.171875c1.582031 3.902344 5.335938 6.269531 9.304688 6.269531 1.253906 0 2.527343-.238281 3.761719-.738281 5.136718-2.082031 7.613281-7.929687 5.535156-13.066406l-.265625-.65625c-2.082031-5.132813-7.933594-7.609375-13.066407-5.53125-5.136718 2.082031-7.613281 7.929687-5.535156 13.066406zm0 0"/><path d="m101.304688 252.109375h109.019531c5.539062 0 10.035156-4.492187 10.035156-10.03125 0-5.542969-4.496094-10.035156-10.035156-10.035156h-109.019531c-5.542969 0-10.035157 4.492187-10.035157 10.035156 0 5.539063 4.492188 10.03125 10.035157 10.03125zm0 0"/><path d="m214.632812 87.75c5.828126-5.019531 13.28125-7.78125 20.984376-7.78125 17.75 0 32.183593 14.4375 32.183593 32.183594s-14.4375 32.1875-32.183593 32.1875c-5.316407 0-10.582032-1.320313-15.222657-3.820313-4.878906-2.625-10.964843-.800781-13.59375 4.078125-2.625 4.882813-.796875 10.964844 4.082031 13.59375 7.554688 4.066406 16.109376 6.214844 24.734376 6.214844 28.8125 0 52.253906-23.441406 52.253906-52.253906s-23.441406-52.253906-52.253906-52.253906c-12.511719 0-24.613282 4.488281-34.082032 12.644531-4.199218 3.617187-4.671875 9.949219-1.058594 14.152343 3.621094 4.199219 9.957032 4.671876 14.15625 1.054688zm0 0"/><path d="m185.359375 119.8125c1.578125 3.90625 5.335937 6.277344 9.304687 6.277344 1.253907 0 2.523438-.234375 3.753907-.730469 5.140625-2.078125 7.625-7.925781 5.546875-13.0625l-.261719-.652344c-2.078125-5.140625-7.921875-7.625-13.0625-5.546875-5.140625 2.074219-7.625 7.921875-5.546875 13.0625zm0 0"/></svg>