<svg height="512pt" viewBox="-63 0 512 512" width="512pt" xmlns="http://www.w3.org/2000/svg"><path d="m374.949219 354.574219c-5.550781 0-10.050781 4.5-10.050781 10.054687v52.429688h-344.792969v-364.582032c0-17.847656 14.523437-32.371093 32.371093-32.371093h142.109376v98.007812c0 4.046875 2.425781 7.699219 6.15625 9.265625 3.726562 1.570313 8.035156.75 10.929687-2.082031l34.242187-33.515625 34.238282 33.515625c1.917968 1.875 4.457031 2.871094 7.035156 2.871094 1.3125 0 2.636719-.257813 3.894531-.789063 3.730469-1.566406 6.15625-5.21875 6.15625-9.265625v-98.007812h35.285157c17.851562 0 32.371093 14.523437 32.371093 32.371093v231.566407c0 5.550781 4.503907 10.050781 10.054688 10.050781s10.050781-4.5 10.050781-10.050781v-231.566407c.003906-28.9375-23.539062-52.476562-52.472656-52.476562h-280.050782c-28.9375 0-52.476562 23.539062-52.476562 52.476562v374.632813c0 15.105469 3.984375 29.289063 10.929688 41.589844.261718.578125.578124 1.125.9375 1.636719 14.808593 24.917968 41.992187 41.664062 73.023437 41.664062h290.058594c5.550781 0 10.054687-4.5 10.054687-10.050781v-137.320313c0-5.550781-4.503906-10.054687-10.054687-10.054687zm-97.8125-334.46875v74.101562l-24.191407-23.675781c-1.953124-1.914062-4.492187-2.871094-7.03125-2.871094-2.539062 0-5.078124.957032-7.03125 2.871094l-24.1875 23.675781v-74.101562zm-192.246094 471.789062c-16.988281 0-32.460937-6.578125-44.027344-17.3125h27.648438c5.554687 0 10.054687-4.5 10.054687-10.054687 0-5.550782-4.5-10.050782-10.054687-10.050782h-42.324219c-2.535156-5.410156-4.351562-11.21875-5.304688-17.3125h344.015626v17.3125h-69.59375c-5.550782 0-10.050782 4.5-10.050782 10.050782 0 5.554687 4.5 10.054687 10.050782 10.054687h69.59375v17.3125zm0 0"/><path d="m120.855469 305.3125h174.453125c5.550781 0 10.050781-4.5 10.050781-10.054688v-77.019531c0-27.988281-22.769531-50.761719-50.761719-50.761719h-174.453125c-5.550781 0-10.050781 4.5-10.050781 10.050782v77.019531c0 27.992187 22.769531 50.765625 50.761719 50.765625zm-30.65625-117.730469h164.398437c16.902344 0 30.65625 13.753907 30.65625 30.65625v66.96875h-164.398437c-16.90625 0-30.65625-13.753906-30.65625-30.660156zm0 0"/><path d="m145.097656 229.53125h86.605469c5.554687 0 10.054687-4.5 10.054687-10.054688 0-5.550781-4.5-10.050781-10.054687-10.050781h-86.605469c-5.550781 0-10.050781 4.5-10.050781 10.050781 0 5.554688 4.5 10.054688 10.050781 10.054688zm0 0"/><path d="m145.097656 266.101562h86.605469c5.554687 0 10.054687-4.5 10.054687-10.050781 0-5.554687-4.5-10.054687-10.054687-10.054687h-86.605469c-5.550781 0-10.050781 4.5-10.050781 10.054687 0 5.550781 4.5 10.050781 10.050781 10.050781zm0 0"/><path d="m221.605469 454.476562h-79.390625c-5.550782 0-10.054688 4.5-10.054688 10.050782 0 5.554687 4.503906 10.054687 10.054688 10.054687h79.390625c5.550781 0 10.054687-4.5 10.054687-10.054687 0-5.550782-4.5-10.050782-10.054687-10.050782zm0 0"/><path d="m68.015625 58.535156h50.59375c5.550781 0 10.054687-4.5 10.054687-10.054687 0-5.550781-4.503906-10.050781-10.054687-10.050781h-50.59375c-15.335937 0-27.8125 12.476562-27.8125 27.8125v35.851562c0 5.554688 4.5 10.054688 10.050781 10.054688 5.550782 0 10.054688-4.5 10.054688-10.054688v-35.851562c0-4.25 3.457031-7.707032 7.707031-7.707032zm0 0"/><path d="m59.4375 136.199219c-2.085938-5.144531-7.945312-7.625-13.09375-5.539063-5.144531 2.085938-7.625 7.945313-5.539062 13.089844l.265624.65625c1.585938 3.90625 5.347657 6.277344 9.320313 6.277344 1.257813 0 2.535156-.238282 3.773437-.738282 5.144532-2.085937 7.625-7.949218 5.539063-13.09375zm0 0"/><path d="m384.132812 320.476562c-2.085937-5.144531-7.945312-7.625-13.089843-5.542968-5.144531 2.085937-7.628907 7.949218-5.542969 13.09375l.265625.652344c1.585937 3.910156 5.347656 6.28125 9.320313 6.28125 1.257812 0 2.535156-.238282 3.773437-.742188 5.144531-2.082031 7.625-7.945312 5.539063-13.089844zm0 0"/></svg>