<svg height="512pt" viewBox="-100 0 512 512" width="512pt" xmlns="http://www.w3.org/2000/svg"><path d="m235.707031 82.894531h-149.152343v-18.816406h62.769531c5.550781 0 10.054687-4.5 10.054687-10.050781v-43.976563c0-5.550781-4.503906-10.050781-10.054687-10.050781h-72.824219c-5.550781 0-10.050781 4.5-10.050781 10.050781v72.867188c-36.722657.488281-66.449219 30.496093-66.449219 67.332031v120.554688c0 5.550781 4.5 10.054687 10.050781 10.054687h89.875v211.035156h-19.542969c-5.550781 0-10.054687 4.5-10.054687 10.054688 0 5.550781 4.503906 10.050781 10.054687 10.050781h137.882813c5.550781 0 10.054687-4.5 10.054687-10.050781 0-5.554688-4.503906-10.054688-10.054687-10.054688h-25.675781v-44.578125c0-5.550781-4.5-10.050781-10.054688-10.050781-5.550781 0-10.050781 4.5-10.050781 10.050781v44.578125h-19.085937v-211.035156h19.085937v85.785156c0 5.554688 4.5 10.054688 10.050781 10.054688 5.554688 0 10.054688-4.5 10.054688-10.054688v-85.785156h109.566406c5.550781 0 10.050781-4.503906 10.050781-10.054687v-111.410157c0-42.183593-34.316406-76.5-76.5-76.5zm-149.152343-54.34375v-8.445312h52.71875v23.871093h-52.71875zm-66.449219 232.203125v-110.503906c0-26.054688 21.199219-47.25 47.253906-47.25h18.285156c26.054688 0 47.253907 21.195312 47.253907 47.25v110.503906zm113.1875 231.140625h-13.261719v-211.035156h13.261719zm158.808593-231.140625h-139.101562v-110.503906c0-18.394531-7.417969-35.082031-19.414062-47.25h102.121093c31.097657 0 56.394531 25.296875 56.394531 56.394531zm0 0"/><path d="m265.347656 188.386719h-32.058594c-5.550781 0-10.050781 4.503906-10.050781 10.054687 0 5.550782 4.5 10.050782 10.050781 10.050782h32.058594c5.550782 0 10.054688-4.5 10.054688-10.050782 0-5.550781-4.503906-10.054687-10.054688-10.054687zm0 0"/><path d="m76.5 175.480469c-5.550781 0-10.050781 4.5-10.050781 10.054687v41.523438c0 5.550781 4.5 10.050781 10.050781 10.050781s10.054688-4.5 10.054688-10.050781v-41.523438c0-5.554687-4.5-10.054687-10.054688-10.054687zm0 0"/><path d="m265.347656 224.507812h-57.238281c-5.550781 0-10.050781 4.503907-10.050781 10.054688s4.5 10.050781 10.050781 10.050781h57.238281c5.550782 0 10.054688-4.5 10.054688-10.050781s-4.503906-10.054688-10.054688-10.054688zm0 0"/><path d="m85.691406 143.25c-2.082031-5.148438-7.9375-7.632812-13.089844-5.554688-5.144531 2.078126-7.632812 7.9375-5.554687 13.085938l.265625.652344c1.582031 3.914062 5.347656 6.289062 9.324219 6.289062 1.253906 0 2.527343-.234375 3.761719-.734375 5.148437-2.078125 7.632812-7.9375 5.554687-13.085937zm0 0"/><path d="m191.722656 403.082031c-2.082031-5.144531-7.945312-7.625-13.089844-5.542969-5.144531 2.085938-7.628906 7.945313-5.542968 13.09375l.265625.652344c1.582031 3.910156 5.34375 6.28125 9.316406 6.28125 1.257813 0 2.539063-.238281 3.773437-.738281 5.144532-2.085937 7.628907-7.945313 5.542969-13.089844zm0 0"/></svg>