<svg height="512pt" viewBox="0 -113 512 512" width="512pt" xmlns="http://www.w3.org/2000/svg"><path d="m297.0625 71.375c-5.523438 0-10.003906 4.480469-10.003906 10.007812v110.566407c0 5.527343 4.480468 10.003906 10.003906 10.003906h120.574219c5.527343 0 10.007812-4.476563 10.007812-10.003906v-110.566407c0-5.527343-4.480469-10.007812-10.007812-10.007812zm66.792969 54.625c0 4.144531-3.367188 7.511719-7.511719 7.511719-4.140625 0-7.511719-3.371094-7.511719-7.511719v-11.804688c0-.765624.113281-1.519531.335938-2.238281.984375-3.152343 3.867187-5.273437 7.175781-5.273437 3.285156 0 6.242188 2.191406 7.191406 5.332031.214844.707031.320313 1.441406.320313 2.179687zm-56.785157-34.613281h33.851563c-5.042969 3.40625-8.941406 8.46875-10.859375 14.621093-.824219 2.648438-1.242188 5.402344-1.242188 8.191407v11.800781c0 4.835938 1.257813 9.378906 3.453126 13.328125-11.917969 6.714844-19.558594 19.4375-19.558594 33.449219v9.167968h-5.644532zm25.65625 90.554687v-9.167968c0-7.804688 4.953126-14.78125 12.324219-17.355469 3.253907-1.132813 6.621094-1.757813 10.015625-1.859375.894532-.023438 1.734375-.039063 2.523438-.035156 3.671875.007812 7.351562.644531 10.933594 1.898437 7.371093 2.570313 12.324218 9.546875 12.324218 17.355469v9.167968h-48.121094zm74.902344 0h-6.769531v-9.167968c0-14.277344-7.925781-27.21875-20.234375-33.828126 2.066406-3.859374 3.242188-8.265624 3.242188-12.945312v-11.804688c0-2.707031-.394532-5.390624-1.179688-7.976562-1.890625-6.25-5.808594-11.390625-10.90625-14.832031h35.847656zm0 0"/><path d="m501.992188 0h-491.984376c-5.527343 0-10.007812 4.480469-10.007812 10.007812v266.492188c0 5.527344 4.480469 10.003906 10.007812 10.003906h491.984376c5.527343 0 10.007812-4.476562 10.007812-10.003906v-266.492188c0-5.527343-4.480469-10.007812-10.007812-10.007812zm-10.003907 51.035156-8.222656-6.984375c-4.210937-3.578125-10.527344-3.066406-14.105469 1.144531-3.578125 4.210938-3.066406 10.527344 1.148438 14.105469l21.179687 17.996094v30.460937l-8.222656-6.984374c-4.210937-3.578126-10.527344-3.066407-14.105469 1.144531-3.578125 4.210937-3.066406 10.527343 1.144532 14.105469l21.179687 17.996093v30.460938l-8.222656-6.988281c-4.210938-3.574219-10.523438-3.0625-14.101563 1.148437s-3.066406 10.527344 1.144532 14.101563l21.179687 17.996093v30.464844l-8.222656-6.988281c-4.210938-3.578125-10.523438-3.0625-14.105469 1.148437-3.574219 4.210938-3.0625 10.527344 1.148438 14.101563l21.179687 17.996094v19.03125h-86.621094l6.988281-8.222657c3.578126-4.210937 3.0625-10.527343-1.148437-14.105469-4.210937-3.578124-10.527344-3.066406-14.101563 1.148438l-17.996093 21.179688h-47.605469l6.988281-8.226563c3.578125-4.210937 3.0625-10.523437-1.148437-14.101563-4.210938-3.578124-10.527344-3.066406-14.101563 1.144532l-17.996093 21.179687h-47.605469l6.988281-8.222656c3.578125-4.210937 3.0625-10.527344-1.148438-14.105469-4.210937-3.574218-10.527343-3.0625-14.105468 1.148438l-17.992188 21.179687h-47.601562l6.984375-8.222656c3.578125-4.210937 3.066406-10.527344-1.148438-14.105469-4.207031-3.578125-10.527343-3.0625-14.101562 1.148438l-17.996094 21.179687h-47.601563l6.984376-8.222656c3.578124-4.210937 3.066406-10.527344-1.148438-14.105469-4.210938-3.578125-10.527344-3.066406-14.101562 1.144532l-17.996094 21.179687h-63.640625v-39.066406l9.820312 8.34375c1.882813 1.597656 4.183594 2.378906 6.476563 2.378906 2.832031 0 5.648437-1.195313 7.628906-3.527344 3.578125-4.207031 3.066406-10.523437-1.144531-14.101562l-22.78125-19.355469v-30.460938l9.820312 8.34375c1.882813 1.601563 4.183594 2.382813 6.476563 2.382813 2.832031 0 5.648437-1.199219 7.628906-3.527344 3.578125-4.210937 3.066406-10.527343-1.144531-14.105469l-22.78125-19.351562v-30.464844l9.820312 8.34375c1.882813 1.601563 4.183594 2.382813 6.476563 2.382813 2.832031 0 5.648437-1.199219 7.628906-3.527344 3.578125-4.210937 3.066406-10.527344-1.144531-14.105469l-22.78125-19.351562v-30.464844l9.820312 8.347656c1.882813 1.597656 4.183594 2.378906 6.476563 2.378906 2.832031 0 5.648437-1.199218 7.628906-3.527343 3.578125-4.210938 3.066406-10.527344-1.144531-14.101563l-22.78125-19.355468v-10.980469h77.476562l-7.339843 8.636719c-3.578126 4.210937-3.0625 10.527343 1.148437 14.105468 1.882813 1.597656 4.183594 2.378906 6.472656 2.378906 2.835938 0 5.652344-1.195312 7.632813-3.527343l18.34375-21.59375h47.605468l-7.339843 8.636719c-3.578125 4.210937-3.0625 10.527343 1.148437 14.105468 1.882813 1.601563 4.183594 2.382813 6.472656 2.382813 2.835938 0 5.652344-1.199219 7.632813-3.527344l18.34375-21.59375h47.605469l-7.339844 8.632813c-3.574219 4.214843-3.0625 10.527343 1.148438 14.105468 1.882812 1.601563 4.183593 2.382813 6.472656 2.382813 2.835937 0 5.652344-1.199219 7.632812-3.527344l18.347656-21.597656h47.601563l-7.335937 8.636719c-3.578126 4.210937-3.066407 10.527343 1.144531 14.105468 1.882812 1.601563 4.183593 2.382813 6.472656 2.382813 2.835937 0 5.652344-1.199219 7.632813-3.527344l18.34375-21.59375h47.605468l-7.335937 8.636719c-3.578125 4.210937-3.066407 10.523437 1.144531 14.101562 1.882812 1.601563 4.183594 2.382813 6.472656 2.382813 2.835938 0 5.652344-1.199219 7.632813-3.527344l18.347656-21.59375h72.78125v31.019531zm0 0"/><path d="m217.128906 84.824219h-79.046875c-5.523437 0-10.003906 4.480469-10.003906 10.007812 0 5.527344 4.480469 10.007813 10.003906 10.007813h79.046875c5.527344 0 10.007813-4.480469 10.007813-10.007813 0-5.527343-4.480469-10.007812-10.007813-10.007812zm0 0"/><path d="m217.128906 129.660156h-120.570312c-5.527344 0-10.007813 4.480469-10.007813 10.007813 0 5.523437 4.480469 10.003906 10.007813 10.003906h120.570312c5.527344 0 10.007813-4.480469 10.007813-10.003906 0-5.527344-4.480469-10.007813-10.007813-10.007813zm0 0"/><path d="m204.957031 174.496094h-96.226562c-5.523438 0-10.003907 4.480468-10.003907 10.007812 0 5.523438 4.480469 10.003906 10.003907 10.003906h96.226562c5.523438 0 10.003907-4.480468 10.003907-10.003906 0-5.527344-4.480469-10.007812-10.003907-10.007812zm0 0"/><path d="m87.414062 98.589844c1.578126 3.890625 5.324219 6.25 9.277344 6.25 1.25 0 2.523438-.234375 3.753906-.734375 5.121094-2.074219 7.59375-7.910157 5.519532-13.03125l-.265625-.652344c-2.074219-5.121094-7.910157-7.589844-13.03125-5.515625-5.121094 2.074219-7.589844 7.910156-5.515625 13.03125zm0 0"/></svg>