<svg height="512pt" viewBox="-25 0 512 512.00202" width="512pt" xmlns="http://www.w3.org/2000/svg"><path d="m461.507812 358.214844c1.75-3.210938 1.609376-7.125-.375-10.199219l-221.367187-343.4375c-.027344-.046875-.0625-.085937-.089844-.128906-.132812-.203125-.273437-.398438-.421875-.589844-.070312-.089844-.144531-.175781-.214844-.261719-.121093-.148437-.25-.289062-.378906-.429687-.085937-.089844-.167968-.179688-.253906-.265625-.140625-.140625-.285156-.273438-.433594-.402344-.078125-.070312-.152344-.144531-.234375-.207031-.214843-.179688-.445312-.351563-.675781-.515625-.097656-.066406-.199219-.125-.296875-.191406-.15625-.097657-.308594-.195313-.46875-.285157-.109375-.0625-.21875-.121093-.332031-.175781-.15625-.082031-.316406-.160156-.480469-.234375-.109375-.050781-.222656-.101563-.335937-.144531-.171876-.070313-.34375-.136719-.519532-.195313-.109375-.039062-.214844-.078125-.324218-.109375-.039063-.011718-.078126-.03125-.117188-.042968-.164062-.046876-.328125-.082032-.496094-.121094-.085937-.023438-.171875-.046875-.257812-.066406-.289063-.0625-.582032-.109376-.875-.1445318-.070313-.0078124-.140625-.0117187-.210938-.015625-.222656-.0234374-.449218-.0429687-.671875-.04687495-.117187-.0078125-.234375-.00390625-.351562 0-.179688 0-.355469.00390625-.53125.01171875-.132813.0078125-.265625.0195312-.398438.03125-.160156.015625-.320312.0351562-.484375.058594-.132812.023437-.269531.039062-.40625.066406-.171875.03125-.339844.074219-.507812.113281-.121094.03125-.242188.054688-.359375.089844-.273438.074219-.539063.164062-.804688.265625-.101562.039063-.199219.085937-.300781.125-.1875.078125-.375.160156-.554688.25-.097656.046875-.191406.097656-.285156.148437-.203125.105469-.398437.21875-.589844.335938-.050781.03125-.101562.054688-.152343.085938-.019531.015624-.042969.035156-.0625.046874-.261719.171876-.519531.351563-.761719.546876-.015625.015624-.03125.027343-.046875.039062-.21875.175781-.425781.363281-.628906.558594-.089844.082031-.171875.171875-.253907.257812-.121093.128906-.242187.253906-.359374.386719-.09375.109375-.183594.21875-.273438.332031-.097656.117188-.1875.242188-.28125.367188-.085938.121094-.175781.242187-.257812.367187-.019532.03125-.039063.054688-.058594.085938l-221.371094 343.441406c-1.980469 3.074219-2.125 6.988281-.375 10.199219 1.753906 3.214844 5.121094 5.210937 8.78125 5.210937h187.652344c3.984375 0 7.589844-2.363281 9.171875-6.019531l24.539062-56.640625 24.539063 56.640625c1.585937 3.65625 5.1875 6.019531 9.175781 6.019531h187.652344c3.660156.003907 7.027343-1.996093 8.777343-5.210937zm-189.867187-14.78125-30.277344-69.890625v-103.050781c0-5.519532-4.476562-9.996094-10-9.996094-5.519531 0-9.996093 4.476562-9.996093 9.996094v103.050781l-30.277344 69.890625h-162.753906l193.03125-299.476563v44.882813c0 5.523437 4.476562 10 9.996093 10 5.523438 0 10-4.476563 10-10v-44.882813l193.027344 299.476563zm0 0"/><path d="m10 388.867188c-5.523438 0-10 4.476562-10 9.996093v31.625c0 5.523438 4.476562 10 10 10 5.519531 0 9.996094-4.476562 9.996094-10v-31.625c0-5.519531-4.476563-9.996093-9.996094-9.996093zm0 0"/><path d="m75.320312 414.789062c-5.523437 0-10 4.476563-10 9.996094v61.695313c0 5.519531 4.476563 9.996093 10 9.996093 5.519532 0 9.996094-4.476562 9.996094-9.996093v-61.695313c0-5.519531-4.476562-9.996094-9.996094-9.996094zm0 0"/><path d="m145.304688 471.332031c5.523437 0 10-4.472656 10-9.996093v-61.691407c0-5.523437-4.476563-9.996093-10-9.996093-5.519532 0-9.996094 4.472656-9.996094 9.996093v61.691407c0 5.523437 4.476562 9.996093 9.996094 9.996093zm0 0"/><path d="m452.730469 388.867188c-5.523438 0-10 4.476562-10 9.996093v31.625c0 5.523438 4.476562 10 10 10 5.519531 0 9.996093-4.476562 9.996093-10v-31.625c0-5.519531-4.476562-9.996093-9.996093-9.996093zm0 0"/><path d="m387.410156 414.789062c-5.519531 0-10 4.476563-10 9.996094v61.695313c0 5.519531 4.480469 9.996093 10 9.996093 5.519532 0 9.996094-4.476562 9.996094-9.996093v-61.695313c0-5.519531-4.476562-9.996094-9.996094-9.996094zm0 0"/><path d="m317.421875 389.644531c-5.519531 0-9.996094 4.476563-9.996094 10v61.691407c0 5.519531 4.476563 9.996093 9.996094 9.996093s9.996094-4.476562 9.996094-9.996093v-61.691407c0-5.523437-4.476563-10-9.996094-10zm0 0"/><path d="m154.433594 497.574219c-2.074219-5.117188-7.898438-7.585938-13.019532-5.511719-5.117187 2.074219-7.582031 7.902344-5.511718 13.019531l.273437.675781c1.574219 3.886719 5.316407 6.246094 9.269531 6.246094 1.25 0 2.519532-.238281 3.75-.734375 5.117188-2.074219 7.585938-7.902343 5.511719-13.019531zm0 0"/><path d="m80.011719 317.210938c-2.074219-5.117188-7.898438-7.585938-13.019531-5.511719-5.117188 2.074219-7.582032 7.902343-5.511719 13.019531l.273437.675781c1.574219 3.886719 5.316406 6.246094 9.269532 6.246094 1.25 0 2.519531-.238281 3.75-.734375 5.117187-2.074219 7.585937-7.902344 5.511718-13.019531zm0 0"/><path d="m383.449219 325.394531c1.574219 3.886719 5.316406 6.246094 9.269531 6.246094 1.25 0 2.519531-.238281 3.75-.734375 5.117188-2.074219 7.585938-7.902344 5.511719-13.019531l-.273438-.675781c-2.070312-5.117188-7.898437-7.585938-13.019531-5.511719-5.117188 2.074219-7.582031 7.902343-5.511719 13.019531zm0 0"/><path d="m240.363281 125.636719c-2.066406-5.117188-7.894531-7.59375-13.015625-5.523438-5.117187 2.066407-7.59375 7.890625-5.523437 13.011719l.269531.675781c1.574219 3.894531 5.316406 6.253907 9.273438 6.253907 1.246093 0 2.515624-.230469 3.738281-.726563 5.121093-2.066406 7.597656-7.894531 5.527343-13.015625zm0 0"/></svg>