<svg height="512pt" viewBox="0 -66 512.00124 512" width="512pt" xmlns="http://www.w3.org/2000/svg"><path d="m429.210938 214.148438c-26.660157 0-50.398438 12.675781-65.550782 32.300781l-23.796875-16.113281c6.742188-11.070313 10.800781-23.695313 11.78125-36.617188.960938-12.695312-1.007812-25.566406-5.800781-37.367188-2.589844-6.375-5.980469-12.421874-10.0625-17.960937l20.617188-16.152344c8.820312 16.226563 23.09375 29.335938 40.0625 36.644531 16.269531 7.007813 34.742187 8.546876 51.972656 4.480469 17.101562-4.035156 32.574218-13.664062 43.9375-27.042969 11.558594-13.609374 18.445312-30.8125 19.488281-48.636718.898437-15.339844-2.511719-30.800782-9.855469-44.308594-6.976562-12.832031-17.359375-23.730469-29.832031-31.332031-12.8125-7.8125-27.671875-11.9921878-42.679687-12.042969-15.015626-.0507812-29.914063 4.035156-42.789063 11.769531-12.484375 7.5-22.910156 18.289063-29.964844 31.027344-7.582031 13.683594-11.097656 29.40625-10.167969 45.015625.300782 5.078125 1.066407 10.128906 2.292969 15.066406l-26.757812 20.964844c-12.5-10.445312-27.996094-17.066406-44.195313-18.789062-2.078125-.222657-4.160156-.363282-6.25-.425782-1.851562-.058594-3.714844-.152344-5.507812.402344-3.148438.972656-5.667969 3.527344-6.597656 6.6875-.953126 3.242188-.164063 6.832031 2.066406 9.371094 1.058594 1.207031 2.40625 2.152344 3.90625 2.726562 1.628906.625 3.257812.636719 4.976562.675782 13.507813.296874 26.71875 5.035156 37.351563 13.375 10.355469 8.125 18.050781 19.464843 21.695312 32.117187 4.375 15.175781 2.808594 31.832031-4.363281 45.910156-.96875 1.894531-2.03125 3.742188-3.183594 5.527344-7.769531-8.925781-17.558594-16.3125-28.476562-20.933594 9.03125-15.753906 4.664062-38.609375-11.863282-47.597656-7.019531-3.820313-15.496093-4.265625-22.847656-1.113281-7.554687 3.234375-13.292968 9.804687-16.296875 17.371094-4.0625 10.230468-3.242187 22.292968 2.390625 31.777343-10.984375 4.464844-21.039062 11.554688-28.570312 20.746094-9.347656-14.316406-12.410156-32.273437-8.457032-48.902344 1.023438-4.300781 2.515626-8.472656 4.414063-12.464843 1.46875-3.097657 1.570313-6.574219-.160156-9.601563-3.425781-6.003906-12.128907-6.664063-16.417969-1.25-1.421875 1.792969-2.25 4.113281-3.121094 6.207031-.933594 2.246094-1.769531 4.53125-2.5 6.851563-1.53125 4.859375-2.601562 9.863281-3.203125 14.921875h-21.933593c-1.808594-15.039063-7.832032-29.4375-17.222657-41.316406-9.253906-11.707032-21.648437-20.84375-35.597656-26.152344-14.457031-5.503906-30.414063-6.808594-45.582031-3.78125-14.53125 2.898437-28.148438 9.785156-39.148438 19.699218-10.863281 9.792969-19.070312 22.433594-23.519531 36.375-5 15.667969-5.179687 32.785157-.542969 48.5625 5.042969 17.164063 15.78125 32.390626 30.113282 43.070313 14.285156 10.644531 31.847656 16.351563 49.652343 16.277344 17.695313-.070313 35.097657-5.816407 49.253907-16.457031 14.363281-10.800782 25.054687-26.175782 29.996093-43.464844 1.210938-4.230469 2.078125-8.558594 2.601563-12.925782h21.949218c1.4375 12.070313 5.554688 23.769532 12.023438 34.058594 6.464844 10.273438 15.210938 19.113282 25.410156 25.691406 10.046875 6.484376 21.484375 10.699219 33.328125 12.324219 11.902344 1.632813 24.167969.695313 35.664063-2.808593 11.425781-3.484376 22.011718-9.507813 30.898437-17.480469 1.121094-1.007813 2.21875-2.046875 3.285157-3.113281l25.945312 17.570312c-6.414062 14.5-8.5 30.742188-6.035156 46.402344 2.257812 14.351562 8.363281 27.964844 17.546875 39.21875 9.113281 11.167968 21.097656 19.933594 34.566406 25.097656 13.582031 5.203125 28.503906 6.6875 42.859375 4.410156 14.140625-2.238281 27.558594-8.222656 38.6875-17.222656 11.347656-9.171875 20.242188-21.28125 25.460938-34.917969 5.039062-13.164062 6.613281-27.59375 4.59375-41.539062-1.742188-12.015625-6.175782-23.585938-12.882813-33.707031-6.609375-9.964844-15.371094-18.46875-25.53125-24.773438-10.390625-6.445312-22.179687-10.535156-34.332031-11.882812-3.054688-.332032-6.125-.5-9.191406-.5zm-39.117188-82.082032c6.976562-9.621094 17.804688-16.605468 29.261719-19.570312 5.890625-1.523438 12.117187-2.027344 18.121093-.917969 5.800782 1.074219 11.3125 3.535156 16.273438 6.6875 5.679688 3.617187 10.777344 8.214844 14.957031 13.496094-17.402343 14.117187-41.777343 17.796875-62.617187 9.574219-5.753906-2.273438-11.160156-5.414063-15.996094-9.269532zm39.117188-40.984375c-4.601563 0-7.601563-4.644531-8.652344-8.609375-1.28125-4.820312-.492188-10.578125 2.800781-14.464844 2.792969-3.296874 7.175781-4.070312 10.558594-1.15625 3.78125 3.257813 5.027343 8.914063 4.335937 13.683594-.65625 4.5625-3.707031 10.546875-9.042968 10.546875zm0-71.195312c16.585937 0 32.730468 6.71875 44.457031 18.445312 11.726562 11.730469 18.445312 27.871094 18.445312 44.460938 0 12.023437-3.46875 23.9375-9.992187 34.042969-7.761719-8.929688-17.566406-16.3125-28.476563-20.9375 9.03125-15.753907 4.664063-38.605469-11.867187-47.597657-7.019532-3.816406-15.492188-4.261719-22.847656-1.109375-7.550782 3.234375-13.289063 9.804688-16.292969 17.371094-4.0625 10.226562-3.242188 22.292969 2.386719 31.777344-10.980469 4.464844-21.035157 11.554687-28.566407 20.746094-10.871093-16.644532-13.128906-38.09375-6.046875-56.648438 5.730469-15.023438 17.285156-27.523438 31.792969-34.449219 8.410156-4.015625 17.6875-6.101562 27.007813-6.101562zm-385.539063 216.769531c6.945313-9.632812 17.828125-16.613281 29.269531-19.574219 5.886719-1.519531 12.109375-2.027343 18.113282-.914062 5.871093 1.085937 11.429687 3.59375 16.441406 6.796875 5.617187 3.589844 10.65625 8.160156 14.789062 13.386718-17.40625 14.113282-41.777344 17.796876-62.617187 9.570313-5.753907-2.269531-11.160157-5.410156-15.996094-9.265625zm39.113281-40.988281c-4.597656 0-7.597656-4.640625-8.648437-8.605469-1.285157-4.820312-.492188-10.582031 2.796875-14.464844 2.792968-3.296875 7.179687-4.070312 10.558594-1.15625 3.78125 3.257813 5.027343 8.914063 4.339843 13.683594-.65625 4.558594-3.707031 10.542969-9.046875 10.542969zm52.914063 25.753906c-7.769531-8.925781-17.5625-16.308594-28.480469-20.933594 9.03125-15.753906 4.667969-38.605469-11.863281-47.597656-7.019531-3.816406-15.492188-4.261719-22.847657-1.109375-7.550781 3.234375-13.292968 9.804688-16.296874 17.367188-4.058594 10.230468-3.238282 22.292968 2.390624 31.78125-10.984374 4.464843-21.035156 11.550781-28.570312 20.746093-10.640625-16.300781-13.046875-37.21875-6.464844-55.523437 5.535156-15.390625 17.144532-28.269532 31.851563-35.40625 15.148437-7.347656 33.035156-8.257813 48.847656-2.492188 15.367187 5.597656 28.195313 17.257813 35.269531 31.996094 8.148438 16.980469 8.15625 37.261719.027344 54.257812-1.140625 2.386719-2.433594 4.695313-3.863281 6.914063zm133.394531-51.875c4.597656 0 7.59375 4.640625 8.648438 8.605469 1.28125 4.820312.492187 10.582031-2.800782 14.464844-2.792968 3.296874-7.175781 4.070312-10.554687 1.15625-3.785157-3.257813-5.03125-8.914063-4.339844-13.683594.65625-4.558594 3.707031-10.542969 9.046875-10.542969zm-39.117188 67.109375c6.871094-9.527344 17.632813-16.507812 28.941407-19.488281 5.914062-1.558594 12.148437-2.117188 18.191406-1.046875 5.792969 1.03125 11.3125 3.453125 16.273437 6.574218 5.78125 3.640626 10.972657 8.292969 15.207032 13.65625-17.40625 14.113282-41.773438 17.796876-62.613282 9.570313-5.757812-2.269531-11.160156-5.410156-16-9.265625zm160.117188 109.554688c6.910156-9.570313 17.730469-16.570313 29.105469-19.527344 5.902343-1.535156 12.132812-2.082032 18.152343-.984375 5.859376 1.070312 11.429688 3.542969 16.433594 6.734375 5.667969 3.617187 10.753906 8.199218 14.921875 13.472656-17.40625 14.113281-41.777343 17.796875-62.617187 9.570312-5.753906-2.269531-11.160156-5.410156-15.996094-9.265624zm39.117188-40.984376c-4.601563 0-7.601563-4.644531-8.652344-8.609374-1.28125-4.820313-.492188-10.582032 2.800781-14.464844 2.792969-3.296875 7.175781-4.070313 10.558594-1.15625 3.78125 3.257812 5.027343 8.917968 4.335937 13.683594-.65625 4.5625-3.707031 10.546874-9.042968 10.546874zm52.910156 25.753907c-7.765625-8.929688-17.5625-16.316407-28.476563-20.9375 9.03125-15.753907 4.664063-38.605469-11.867187-47.597657-7.019532-3.816406-15.492188-4.261718-22.847656-1.109374-7.550782 3.234374-13.289063 9.804687-16.292969 17.367187-4.0625 10.230469-3.242188 22.292969 2.386719 31.78125-10.984376 4.46875-21.03125 11.550781-28.566407 20.746094-10.644531-16.296875-13.046875-37.214844-6.464843-55.519531 5.53125-15.390626 17.140624-28.269532 31.851562-35.40625 15.144531-7.347657 33.03125-8.257813 48.847656-2.492188 15.363282 5.597656 28.191406 17.257812 35.265625 31.996094 8.148438 16.980468 8.160157 37.261718.03125 54.257812-1.140625 2.382813-2.433593 4.691406-3.867187 6.914063zm0 0"/><path d="m221.050781 132.734375c1.710938 4.230469 6.238281 6.808594 10.75 6.101563 4.394531-.6875 7.867188-4.324219 8.355469-8.742188.429688-3.871094-1.539062-8.042969-4.84375-10.113281-3.589844-2.25-8.339844-1.949219-11.613281.746093-3.648438 3.007813-4.359375 7.777344-2.648438 12.007813zm0 0"/></svg>