<svg height="512pt" viewBox="-24 0 512 512" width="512pt" xmlns="http://www.w3.org/2000/svg"><path d="m406.667969 342.382812c-8.226563-13.769531-20.371094-24.929687-34.890625-31.949218"/><path d="m86.011719 214.964844c-22.3125 0-40.464844 18.152344-40.464844 40.464844s18.152344 40.464843 40.464844 40.464843 40.464843-18.152343 40.464843-40.464843-18.148437-40.464844-40.464843-40.464844zm0 60.730468c-11.171875 0-20.261719-9.089843-20.261719-20.265624 0-11.171876 9.089844-20.261719 20.261719-20.261719 11.175781 0 20.265625 9.089843 20.265625 20.261719 0 11.175781-9.089844 20.265624-20.265625 20.265624zm0 0"/><path d="m368.765625 138.792969c24.253906 0 43.984375-19.730469 43.984375-43.984375 0-24.25-19.730469-43.984375-43.984375-43.984375-24.25 0-43.984375 19.734375-43.984375 43.984375 0 24.253906 19.734375 43.984375 43.984375 43.984375zm0-67.765625c13.113281 0 23.785156 10.667968 23.785156 23.78125 0 13.117187-10.667969 23.785156-23.785156 23.785156-13.113281 0-23.78125-10.667969-23.78125-23.785156 0-13.113282 10.667969-23.78125 23.78125-23.78125zm0 0"/><path d="m259.222656 163.808594c1.429688 0 2.882813-.304688 4.265625-.949219l28.0625-13.09375c17.207031 24.105469 45.40625 39.855469 77.214844 39.855469 52.277344 0 94.8125-42.53125 94.8125-94.8125 0-52.277344-42.535156-94.808594-94.8125-94.808594s-94.808594 42.53125-94.808594 94.808594c0 13.238281 2.730469 25.847656 7.652344 37.304687l-26.664063 12.441407c-5.054687 2.355468-7.242187 8.367187-4.882812 13.421874 1.714844 3.671876 5.355469 5.832032 9.160156 5.832032zm109.542969-143.609375c41.140625 0 74.609375 33.472656 74.609375 74.609375 0 41.140625-33.46875 74.613281-74.609375 74.613281s-74.609375-33.472656-74.609375-74.613281c0-41.136719 33.46875-74.609375 74.609375-74.609375zm0 0"/><path d="m336.054688 256.960938c-50.582032 0-94.375 29.601562-114.976563 72.394531l-61.84375-28.859375c8.101563-13.113282 12.789063-28.550782 12.789063-45.066406 0-16.140626-4.476563-31.257813-12.246094-44.179688l29.910156-13.957031c5.058594-2.359375 7.242188-8.371094 4.882812-13.425781-2.359374-5.054688-8.367187-7.238282-13.421874-4.878907l-34.101563 15.910157c-15.59375-15.722657-37.191406-25.480469-61.035156-25.480469-47.425781 0-86.011719 38.585937-86.011719 86.011719 0 47.429687 38.585938 86.011718 86.011719 86.011718 23.445312 0 44.722656-9.4375 60.25-24.703125l67.527343 31.503907c-3.414062 11.492187-5.253906 23.652343-5.253906 36.238281 0 70.3125 57.203125 127.519531 127.519532 127.519531 70.316406 0 127.523437-57.203125 127.523437-127.519531 0-70.316407-57.207031-127.519531-127.523437-127.519531zm-250.042969 64.28125c-36.289063 0-65.808594-29.523438-65.808594-65.8125 0-36.289063 29.519531-65.808594 65.808594-65.808594 36.289062 0 65.8125 29.519531 65.8125 65.808594 0 36.289062-29.523438 65.8125-65.8125 65.8125zm250.042969 170.558593c-59.175782 0-107.320313-48.144531-107.320313-107.320312s48.144531-107.320313 107.320313-107.320313c59.175781 0 107.320312 48.144532 107.320312 107.320313s-48.140625 107.320312-107.320312 107.320312zm0 0"/><path d="m376.175781 301.339844c-5.023437-2.429688-11.0625-.324219-13.492187 4.699218-2.425782 5.023438-.324219 11.058594 4.699218 13.488282 12.753907 6.164062 23.335938 15.855468 30.613282 28.035156 1.894531 3.167969 5.242187 4.921875 8.679687 4.921875 1.765625 0 3.550781-.460937 5.171875-1.429687 4.789063-2.859376 6.351563-9.0625 3.492188-13.851563-9.308594-15.578125-22.851563-27.976563-39.164063-35.863281zm0 0"/><path d="m336.054688 327.414062c-31.464844 0-57.066407 25.597657-57.066407 57.066407s25.601563 57.070312 57.066407 57.070312c31.46875 0 57.070312-25.601562 57.070312-57.070312s-25.601562-57.066407-57.070312-57.066407zm0 93.933594c-20.328126 0-36.867188-16.539062-36.867188-36.867187s16.539062-36.867188 36.867188-36.867188c20.328124 0 36.867187 16.539063 36.867187 36.867188s-16.535156 36.867187-36.867187 36.867187zm0 0"/><path d="m412.375 369.316406c-5.171875 2.089844-7.667969 7.976563-5.578125 13.152344l.246094.605469c1.585937 3.933593 5.371093 6.320312 9.367187 6.320312 1.257813 0 2.539063-.238281 3.78125-.738281 5.171875-2.09375 7.667969-7.980469 5.578125-13.152344l-.246093-.609375c-2.089844-5.171875-7.976563-7.667969-13.148438-5.578125zm0 0"/><path d="m212.808594 174.515625c1.589844 3.929687 5.375 6.3125 9.367187 6.3125 1.261719 0 2.542969-.238281 3.785157-.738281 5.171874-2.09375 7.667968-7.980469 5.574218-13.152344l-.246094-.605469c-2.089843-5.171875-7.980468-7.667969-13.148437-5.574219-5.171875 2.089844-7.667969 7.976563-5.578125 13.148438zm0 0"/></svg>