<svg height="511pt" viewBox="0 -96 511.99961 511" width="511pt" xmlns="http://www.w3.org/2000/svg"><path d="m495.878906 78.523438c-7.601562-19.421876-28.199218-44.820313-29.046875-45.859376l-.777343-.960937c-3.640626-4.511719-6.054688-7.5-10.6875-12.1875-.632813-.660156-1.265626-1.324219-1.933594-1.980469-.691406-.679687-1.378906-1.316406-2.089844-1.972656-.042969-.039062-.085938-.078125-.132812-.121094-23.523438-20.941406-59.289063-19.730468-81.417969 2.757813-2.472657 2.507812-4.664063 5.175781-6.519531 7.925781-.714844 1.039062-1.339844 2.117188-1.878907 3.226562h-25.894531c-5.566406 0-10.078125 4.511719-10.078125 10.078126 0 5.566406 4.511719 10.078124 10.078125 10.078124h25.570312c.703126 1.589844 1.574219 3.125 2.640626 4.566407l36.160156 48.960937c8.390625 11.363282 23.011718 15.621094 35.761718 10.789063 5.640626 14.746093 8.5625 30.246093 8.6875 46.132812.128907 15.914063-2.546874 31.476563-7.957031 46.320313-12.835937-4.617188-27.386719-.128906-35.59375 11.363281l-32.523437 45.53125c-1.433594 2.011719-2.613282 4.351563-3.523438 6.867187h-108.003906c-5.566406 0-10.078125 4.511719-10.078125 10.078126 0 5.5625 4.511719 10.078124 10.078125 10.078124h106.671875c.207031.839844.433594 1.667969.714844 2.460938.3125.878906.746093 1.710938 1.289062 2.472656 1.957031 2.75 4.199219 5.371094 6.660157 7.796875 11.148437 10.96875 25.859374 16.992188 41.476562 16.992188h.484375c15.792969-.125 30.597656-6.398438 41.675781-17.652344.660156-.675781 1.285156-1.347656 1.90625-2.019531 54.769532-57.148438 69.441406-142.097656 38.28125-221.722656zm-52.890625 207.84375c-.046875.046874-.09375.097656-.140625.144531-.492187.535156-.984375 1.070312-1.515625 1.609375-7.304687 7.425781-17.066406 11.5625-27.476562 11.644531-10.375.113281-20.234375-3.894531-27.660157-11.203125-1.21875-1.199219-2.351562-2.46875-3.382812-3.785156-.527344-3.042969.273438-7.703125 1.835938-9.886719l32.523437-45.535156c3.074219-4.304688 8.828125-5.886719 13.460937-3.648438l.1875.09375c4.222657 2.082031 9.152344 2.304688 13.527344.613281 4.339844-1.675781 7.808594-5.117187 9.515625-9.445312 7.199219-18.246094 10.769531-37.480469 10.613281-57.171875-.15625-19.664063-4.03125-38.820313-11.515624-56.9375-1.777344-4.300781-5.300782-7.691406-9.667969-9.296875-4.40625-1.617188-9.335938-1.3125-13.523438.839844l-.253906.125c-4.511719 2.277344-10.289063.789062-13.429687-3.464844l-7.007813-9.488281 9.851563-7.386719c4.453124-3.339844 5.355468-9.65625 2.015624-14.109375-3.339843-4.453125-9.65625-5.355469-14.105468-2.015625l-9.738282 7.300781-17.179687-23.261719c-.988281-1.339843-1.015625-3.160156-.0625-4.527343.03125-.046875.066406-.09375.097656-.140625 1.167969-1.742188 2.582031-3.453125 4.199219-5.097656 14.570312-14.804688 38.09375-15.632813 53.589844-1.894532.515625.472656 1.03125.949219 1.550781 1.460938.527344.519531 1.023437 1.042968 1.539063 1.585937.046874.046875.089843.09375.140624.140625 3.957032 4 5.886719 6.390625 9.394532 10.734375l.808594 1.003907c5.394531 6.617187 20.566406 26.796874 25.929687 40.5 28.277344 72.257812 15.199219 149.085937-34.121094 200.5zm0 0"/><path d="m279.214844 228.203125v9.132813c0 3.929687 2.285156 7.503906 5.855468 9.148437 1.351563.625 2.789063.929687 4.21875.929687 2.355469 0 4.6875-.828124 6.546876-2.414062l54.824218-46.808594c2.242188-1.914062 3.535156-4.714844 3.535156-7.664062 0-2.945313-1.292968-5.75-3.535156-7.664063l-54.824218-46.804687c-2.992188-2.554688-7.191407-3.132813-10.761719-1.488282-3.570313 1.648438-5.859375 5.21875-5.859375 9.152344v7.722656h-72.875c-4.265625 0-7.914063 2.652344-9.382813 6.394532l-29.921875-25.542969 29.515625-25.199219c1.074219 4.40625 5.050781 7.679688 9.789063 7.679688h82.839844c5.5625 0 10.074218-4.511719 10.074218-10.078125 0-5.566407-4.511718-10.078125-10.074218-10.078125h-72.761719v-9.132813c0-3.933593-2.289063-7.503906-5.859375-9.152343-3.570313-1.644532-7.773438-1.0625-10.761719 1.488281l-54.828125 46.808593c-2.242188 1.914063-3.53125 4.714844-3.53125 7.664063 0 2.945313 1.289062 5.75 3.53125 7.664063l54.828125 46.804687c1.859375 1.589844 4.1875 2.414063 6.542969 2.414063 1.429687 0 2.871094-.304688 4.21875-.925782 3.570312-1.648437 5.859375-5.21875 5.859375-9.152344v-7.5h72.761719c3.929687 0 7.328124-2.257812 8.988281-5.539062.1875-.347656.359375-.707031.507812-1.078125l29.921875 25.546875-29.515625 25.199219c-1.074219-4.410157-5.050781-7.679688-9.789062-7.679688h-82.839844c-5.566406 0-10.078125 4.511719-10.078125 10.078125 0 5.5625 4.511719 10.078125 10.078125 10.078125h72.761719zm0 0"/><path d="m175.34375 270.039062h-28.066406c-.910156-2.515624-2.089844-4.855468-3.523438-6.867187l-17.261718-24.164063c-.171876-.316406-.359376-.628906-.570313-.933593-.257813-.367188-.539063-.703125-.828125-1.027344l-13.863281-19.40625c-8.21875-11.507813-22.800781-15.996094-35.597657-11.367187-5.40625-14.84375-8.082031-30.40625-7.957031-46.3125.128907-15.890626 3.046875-31.390626 8.6875-46.136719 12.757813 4.828125 27.375.574219 35.761719-10.785157l36.164062-48.964843c1.066407-1.441407 1.9375-2.976563 2.640626-4.566407h103.195312c5.566406 0 10.078125-4.511718 10.078125-10.078124 0-5.566407-4.511719-10.078126-10.078125-10.078126h-103.519531c-.539063-1.109374-1.160157-2.1875-1.878907-3.226562-1.855468-2.75-4.046874-5.417969-6.515624-7.925781-22.132813-22.488281-57.898438-23.699219-81.421876-2.757813-.042968.042969-.113281.101563-.15625.144532-.6875.632812-1.375 1.269531-2.0625 1.945312-.671874.660156-1.304687 1.324219-1.933593 1.984375-4.636719 4.6875-7.050781 7.679687-10.695313 12.195313l-.746094.921874c-.871093 1.070313-21.472656 26.46875-29.074218 45.890626-31.160156 79.625-16.488282 164.574218 38.28125 221.722656.621094.675781 1.242187 1.347656 1.902344 2.015625 11.082031 11.261719 25.886718 17.53125 41.679687 17.65625.164063 0 .324219.003906.484375.003906 15.617188-.003906 30.328125-6.027344 41.476562-16.996094 2.460938-2.421875 4.703126-5.046875 6.660157-7.796875.542969-.761718.972656-1.589844 1.285156-2.472656.28125-.789062.511719-1.617188.71875-2.460938h26.734375c5.5625 0 10.074219-4.511718 10.074219-10.078124 0-5.566407-4.511719-10.078126-10.074219-10.078126zm-46.15625 14.738282c-1.027344 1.316406-2.160156 2.582031-3.382812 3.785156-7.421876 7.304688-17.222657 11.308594-27.660157 11.199219-10.410156-.082031-20.167969-4.214844-27.480469-11.644531-.527343-.535157-1.019531-1.070313-1.511718-1.605469-.046875-.050781-.089844-.097657-.136719-.148438-49.324219-51.414062-62.398437-128.242187-34.125-200.496093 6.445313-16.472657 25.738281-40.265626 25.957031-40.539063l.777344-.960937c3.507812-4.347657 5.4375-6.742188 9.402344-10.738282.042968-.050781.089844-.097656.136718-.144531.503907-.527344 1.007813-1.058594 1.546876-1.589844.507812-.5 1.015624-.96875 1.539062-1.453125 15.496094-13.738281 39.023438-12.914062 53.59375 1.894532 1.617188 1.640624 3.03125 3.355468 4.199219 5.09375.03125.050781.0625.097656.097656.144531.953125 1.367187.925781 3.183593-.0625 4.523437l-36.164063 48.964844c-3.140624 4.25-8.914062 5.738281-13.445312 3.457031l-.238281-.121093c-4.1875-2.152344-9.117188-2.457032-13.523438-.839844-4.367187 1.609375-7.890625 4.996094-9.667969 9.296875-7.484374 18.117187-11.359374 37.273437-11.515624 56.941406-.15625 19.6875 3.414062 38.921875 10.613281 57.167969 1.707031 4.328125 5.175781 7.773437 9.515625 9.449218 4.375 1.6875 9.304687 1.464844 13.546875-.625l.238281-.117187c4.558594-2.203125 10.316406-.625 13.390625 3.679687l8.605469 12.046876-9.394532 6.515624c-4.574218 3.167969-5.710937 9.449219-2.539062 14.023438 1.957031 2.820312 5.097656 4.335938 8.289062 4.335938 1.980469 0 3.980469-.582032 5.734376-1.796876l9.625-6.671874 12.203124 17.082031c1.5625 2.1875 2.367188 6.847656 1.835938 9.890625zm0 0"/><path d="m224.992188 275.960938c-2.085938-5.15625-7.960938-7.644532-13.121094-5.558594-5.160156 2.089844-7.648438 7.964844-5.558594 13.121094l.242188.605468c1.589843 3.921875 5.363281 6.300782 9.34375 6.300782 1.261718 0 2.542968-.238282 3.78125-.738282 5.15625-2.089844 7.648437-7.964844 5.558593-13.125zm0 0"/><path d="m291.164062 49.003906c1.238282.5 2.519532.738282 3.777344.738282 3.984375 0 7.757813-2.378907 9.34375-6.300782l.246094-.605468c2.085938-5.160157-.402344-11.035157-5.5625-13.121094-5.160156-2.089844-11.035156.402344-13.121094 5.5625l-.246094.605468c-2.085937 5.160157.40625 11.035157 5.5625 13.121094zm0 0"/></svg>