<svg height="512pt" viewBox="-12 0 512 512.0106" width="512pt" xmlns="http://www.w3.org/2000/svg"><path d="m471.386719 176.8125c-10.242188-24.214844-24.898438-45.957031-43.5625-64.617188-18.664063-18.664062-40.40625-33.324218-64.621094-43.5625-7.40625-3.132812-15.585937-3.195312-23.039063-.171874-7.453124 3.019531-13.28125 8.765624-16.414062 16.167968-6.464844 15.289063.710938 32.988282 16 39.453125 17.039062 7.207031 32.347656 17.53125 45.503906 30.683594 13.152344 13.152344 23.476563 28.460937 30.683594 45.503906 7.453125 17.625 11.234375 36.363281 11.234375 55.699219 0 19.332031-3.78125 38.074219-11.234375 55.699219-7.207031 17.039062-17.53125 32.347656-30.683594 45.503906-13.15625 13.152344-28.464844 23.476563-45.503906 30.683594-15.285156 6.464843-22.464844 24.164062-16 39.449219 4.726562 11.167968 15.613281 18.382812 27.734375 18.382812 4.039063 0 7.984375-.800781 11.71875-2.382812 15.308594-6.472657 29.761719-14.792969 42.960937-24.730469 4.429688-3.332031 5.316407-9.625 1.980469-14.054688-3.332031-4.425781-9.621093-5.3125-14.050781-1.980469-11.886719 8.949219-24.910156 16.445313-38.710938 22.28125-1.246093.527344-2.558593.796876-3.898437.796876-4.042969 0-7.671875-2.40625-9.25-6.128907-2.152344-5.097656.238281-10.996093 5.335937-13.152343 19.429688-8.21875 36.882813-19.984376 51.875-34.976563 14.988282-14.992187 26.757813-32.445313 34.976563-51.875 8.507813-20.113281 12.820313-41.480469 12.820313-63.515625s-4.3125-43.40625-12.820313-63.519531c-8.21875-19.433594-19.988281-36.886719-34.976563-51.871094-14.992187-14.992187-32.445312-26.761719-51.875-34.980469-5.097656-2.152344-7.488281-8.054687-5.332031-13.148437 1.042969-2.46875 2.984375-4.382813 5.46875-5.390625 2.484375-1.007813 5.210938-.988282 7.679688.058594 21.824219 9.230468 41.421875 22.441406 58.25 39.269531 16.824219 16.824219 30.039062 36.421875 39.269531 58.246093 9.558594 22.597657 14.40625 46.601563 14.40625 71.335938s-4.847656 48.734375-14.40625 71.335938c-2.453125 5.792968-5.222656 11.515624-8.238281 16.996093-2.671875 4.855469-.902344 10.957031 3.953125 13.625 4.855468 2.671875 10.957031.902344 13.628906-3.953125 3.347656-6.082031 6.421875-12.425781 9.140625-18.851562 10.609375-25.085938 15.988281-51.71875 15.988281-79.152344s-5.382812-54.066406-15.992187-79.15625zm0 0"/><path d="m377.789062 299.1875c6.792969-16.058594 10.234376-33.09375 10.234376-50.640625s-3.445313-34.582031-10.234376-50.640625c-6.554687-15.492188-15.925781-29.398438-27.863281-41.335938-11.9375-11.933593-25.84375-21.308593-41.335937-27.863281-7.402344-3.128906-15.585938-3.191406-23.039063-.171875-7.449219 3.023438-13.28125 8.765625-16.410156 16.171875-3.132813 7.40625-3.195313 15.589844-.171875 23.039063 3.019531 7.453125 8.765625 13.28125 16.171875 16.414062 8.3125 3.515625 15.789063 8.558594 22.214844 14.984375s11.46875 13.902344 14.984375 22.214844c3.636718 8.597656 5.480468 17.742187 5.480468 27.1875s-1.84375 18.589844-5.480468 27.183594c-3.515625 8.316406-8.558594 15.792969-14.984375 22.21875s-13.902344 11.46875-22.21875 14.984375c-15.285157 6.46875-22.460938 24.167968-15.996094 39.453125 4.722656 11.167969 15.609375 18.382812 27.734375 18.382812 4.035156 0 7.976562-.804687 11.71875-2.386719 15.492188-6.550781 29.398438-15.925781 41.335938-27.863281 11.933593-11.9375 21.308593-25.84375 27.859374-41.332031zm-77.015624 50.710938c-1.25.53125-2.566407.800781-3.902344.800781-4.042969 0-7.675782-2.40625-9.25-6.128907-2.15625-5.097656.238281-10.996093 5.332031-13.152343 10.707031-4.527344 20.328125-11.015625 28.589844-19.277344 8.265625-8.265625 14.75-17.882813 19.277343-28.589844 4.6875-11.082031 7.0625-22.859375 7.0625-35.003906s-2.375-23.921875-7.0625-35.003906c-4.527343-10.707031-11.015624-20.324219-19.277343-28.589844-8.261719-8.261719-17.882813-14.75-28.589844-19.277344-2.46875-1.042969-4.382813-2.984375-5.390625-5.46875s-.984375-5.210937.058594-7.679687c1.042968-2.46875 2.988281-4.382813 5.46875-5.390625 1.21875-.496094 2.496094-.742188 3.773437-.742188 1.324219 0 2.648438.265625 3.90625.796875 13.101563 5.542969 24.863281 13.472656 34.964844 23.570313 10.097656 10.101562 18.027344 21.863281 23.570313 34.964843 5.738281 13.566407 8.648437 27.972657 8.648437 42.820313s-2.910156 29.253906-8.648437 42.820313c-5.539063 13.101562-13.472657 24.863281-23.570313 34.960937-10.097656 10.101563-21.863281 18.03125-34.960937 23.570313zm0 0"/><path d="m286.328125 255.96875c0-9.019531-1.773437-17.78125-5.269531-26.050781-3.371094-7.96875-8.191406-15.117188-14.324219-21.25-6.132813-6.132813-13.28125-10.953125-21.253906-14.324219-15.285157-6.464844-32.984375.714844-39.449219 15.996094-6.464844 15.289062.707031 32.988281 15.996094 39.457031.804687.339844 1.503906.8125 2.136718 1.445313.625.625 1.109376 1.339843 1.441407 2.128906.347656.820312.515625 1.667968.515625 2.597656s-.167969 1.777344-.511719 2.589844c-.335937.792968-.824219 1.511718-1.449219 2.136718-.621094.625-1.335937 1.109376-2.125 1.441407-7.40625 3.132812-13.152344 8.960937-16.175781 16.414062-3.023437 7.449219-2.960937 15.632813.167969 23.039063 4.722656 11.167968 15.609375 18.382812 27.738281 18.382812 4.035156 0 7.976563-.800781 11.710937-2.378906 7.972657-3.371094 15.121094-8.1875 21.257813-14.324219 6.136719-6.132812 10.953125-13.285156 14.324219-21.253906 3.496094-8.265625 5.269531-17.03125 5.269531-26.046875zm-23.753906 18.226562c-2.359375 5.578126-5.734375 10.585938-10.03125 14.882813s-9.304688 7.671875-14.882813 10.03125c-1.25.527344-2.5625.796875-3.898437.796875-4.042969 0-7.675781-2.40625-9.25-6.132812-1.042969-2.46875-1.0625-5.195313-.058594-7.679688 1.007813-2.484375 2.925781-4.425781 5.390625-5.46875 3.1875-1.347656 6.046875-3.277344 8.507812-5.738281 2.460938-2.460938 4.390626-5.324219 5.738282-8.507813 1.390625-3.289062 2.097656-6.792968 2.097656-10.410156s-.703125-7.117188-2.097656-10.414062c-1.347656-3.183594-3.277344-6.042969-5.734375-8.503907-2.464844-2.460937-5.324219-4.390625-8.511719-5.738281-5.09375-2.15625-7.488281-8.054688-5.332031-13.148438 1.617187-3.824218 5.34375-6.125 9.257812-6.125 1.300781 0 2.625.253907 3.894531.792969 5.578126 2.355469 10.582032 5.730469 14.878907 10.03125 4.296875 4.292969 7.671875 9.300781 10.03125 14.875 2.445312 5.78125 3.683593 11.914063 3.683593 18.230469s-1.238281 12.449219-3.683593 18.226562zm0 0"/><path d="m165.878906 347.078125c-8.363281-11.707031-23.222656-16.78125-36.976562-12.609375-5.109375 1.546875-10.050782 3.550781-14.796875 5.964844-10.707031-26.84375-16.222657-55.980469-15.992188-84.957032.230469-28.925781 6.199219-57.9375 17.316407-84.585937 7.8125 4.140625 16.175781 7.089844 24.984374 8.792969 1.417969.277344 2.84375.410156 4.261719.410156 7.128907 0 14.019531-3.382812 18.339844-9.234375l68.921875-93.3125c8.390625-11.363281 8.621094-26.777344.578125-38.382813-2.828125-4.203124-6.1875-8.289062-9.976563-12.140624-4.851562-4.929688-10.304687-9.320313-16.203124-13.054688h-.003907c-33.988281-21.507812-78.671875-17.878906-108.667969 8.824219-4.140624 3.683593-4.507812 10.027343-.824218 14.167969 3.6875 4.140624 10.03125 4.503906 14.167968.820312 20.460938-18.210938 49.703126-22.628906 74.433594-12.171875-.359375.445313-.707031.878906-1.058594 1.320313-.386718.476562-.769531.953124-1.152343 1.429687-.625.78125-1.242188 1.554687-1.859375 2.328125-.355469.449219-.714844.898438-1.070313 1.34375-.644531.808594-1.28125 1.617188-1.917969 2.421875-.316406.398437-.636718.800781-.949218 1.203125-.667969.847656-1.328125 1.691406-1.988282 2.53125-.273437.351562-.550781.703125-.824218 1.054688-.714844.914062-1.417969 1.816406-2.117188 2.722656-.210937.269531-.425781.542968-.632812.816406-2.742188 3.542969-5.386719 7.007812-7.933594 10.394531-.171875.226563-.339844.449219-.511719.675781-.664062.886719-1.324219 1.765626-1.976562 2.640626-.242188.324218-.476563.648437-.71875.96875-.574219.773437-1.148438 1.546874-1.714844 2.3125-.261719.351562-.519531.703124-.777344 1.058593-.535156.722657-1.070312 1.449219-1.59375 2.164063-.269531.371094-.539062.738281-.804687 1.105468-.507813.695313-1.015625 1.390626-1.515625 2.078126-.269531.371093-.535157.742187-.800781 1.109374-.492188.679688-.976563 1.351563-1.460938 2.023438-.261719.367188-.523438.730469-.78125 1.09375-.476562.667969-.953125 1.332031-1.421875 1.992188-.253906.359374-.507813.714843-.761719 1.070312-.46875.660156-.929687 1.316406-1.390625 1.96875-.242187.34375-.484375.6875-.726562 1.03125-.464844.660156-.925781 1.316406-1.382813 1.972656-.226562.324219-.453125.648438-.679687.972656-.464844.667969-.921875 1.328126-1.378907 1.988282-.207031.300781-.414062.601562-.617187.898437-.484375.695313-.957031 1.386719-1.425781 2.074219-.171875.25-.347656.503906-.519532.753906-.519531.761719-1.03125 1.519532-1.539062 2.269532-.113281.167968-.230469.335937-.34375.503906-1.886719 2.789062-3.6875 5.492187-5.40625 8.113281-.082031.125-.160156.25-.242188.375-.480468.730469-.957031 1.457031-1.421874 2.171875-.136719.214844-.273438.421875-.410157.632812-.40625.628907-.808593 1.25-1.207031 1.867188-.15625.246094-.3125.492188-.472656.738281-.367188.574219-.730469 1.140625-1.089844 1.703125-.167969.261719-.332031.523438-.496094.785156-.34375.539063-.683594 1.074219-1.019531 1.605469-.167969.269531-.335937.535157-.503906.800781-.324219.515626-.644531 1.03125-.960938 1.539063-.167969.265625-.335937.535156-.5.800781-.308593.496094-.613281.988282-.914062 1.476563-.164063.261719-.324219.523437-.488281.785156-.304688.496094-.601563.984375-.898438 1.46875-.148438.242187-.296875.488281-.445312.726563-.296876.492187-.589844.976562-.882813 1.457031-.140625.230469-.28125.464843-.417969.695312-.296875.488281-.585937.96875-.871094 1.445313-.128906.214844-.257812.429687-.382812.640625-.296875.496093-.585938.984375-.875 1.472656-.109375.183594-.21875.371094-.328125.550781-.324219.546875-.636719 1.085938-.953125 1.621094-.0625.113281-.132812.226562-.199219.339844-1.144531 1.960937-2.21875 3.832031-3.226562 5.613281-.066407.117187-.128907.230469-.195313.347656-.261718.464844-.519531.925781-.773437 1.378907-.09375.167968-.1875.332031-.28125.5-.21875.390624-.433594.78125-.644531 1.164062-.101563.183594-.203126.363281-.300782.546875-.199218.359375-.394531.714844-.585937 1.0625-.105469.191406-.207031.378906-.308594.566406-.179687.332031-.359375.664063-.535156.984375-.105469.191406-.207031.382813-.308594.570313-.167969.3125-.332031.617187-.492187.921875-.101563.183594-.199219.371094-.296876.550781-.160156.304687-.320312.601563-.472656.894531-.09375.175782-.183594.347656-.277344.523438-.152343.289062-.300781.570312-.445312.851562-.089844.167969-.175781.335938-.261719.5-.144531.273438-.28125.542969-.421875.808594-.082031.164062-.167968.332031-.253906.496094-.132812.253906-.257812.503906-.386719.75-.082031.160156-.164062.316406-.242187.472656-.121094.246094-.242188.480469-.359375.714844-.078125.15625-.15625.308594-.234375.460937-.113282.230469-.222656.449219-.335938.671875-.070312.144532-.144531.289063-.210937.425782-.140625.285156-.277344.558593-.410157.828124-.03125.066407-.066406.136719-.101562.203126-.164062.339843-.324219.667968-.480469.984374-.03125.066407-.058593.125-.089843.191407-.117188.242187-.234376.484375-.347657.71875-.058593.117187-.109375.226562-.164062.34375-.082031.167969-.164063.339843-.242188.503906-.058593.132813-.121093.253906-.179687.382813-.0625.132812-.125.265624-.1875.394531-.058594.132812-.121094.261719-.179688.386719-.050781.113281-.105468.230468-.15625.339843-.058594.125-.113281.246094-.167968.367188-.046876.097656-.089844.195312-.132813.289062-.054687.117188-.105469.230469-.15625.339844-.042969.089844-.082031.183594-.121094.269531-.046875.105469-.09375.203125-.136719.300782-.035156.082031-.066406.15625-.101562.230468-.042969.09375-.082031.1875-.125.277344-.027344.066406-.058594.132812-.085938.199219-.039062.085937-.074218.171875-.109374.25-.023438.046875-.039063.089843-.058594.136719-.039063.085937-.074219.171874-.109375.25-.015625.03125-.027344.058593-.039063.089843-.035156.078125-.066406.152344-.09375.21875-.007812.019531-.015625.039063-.027344.058594-.027343.070313-.054687.136719-.078124.195313-15.246094 31.9375-23.453126 67.574218-23.734376 103.082031-.285156 35.632812 7.390626 71.507812 22.199219 103.753906.019531.039063.046875.074219.0625.117187.183594.378907.378907.753907.613281 1.117188.007813.015625.046876.074219.097657.152344.015625.023437.03125.042968.050781.074218.15625.242188.441406.683594.839844 1.300782.019531.027344.035156.054687.054687.082031.074219.113281.152344.234375.234375.359375.050782.074219.097656.148438.148438.230469.070312.109375.148437.226562.226562.34375.054688.082031.105469.164062.164063.25.117187.179687.242187.375.367187.570312.015625.023438.03125.046875.046875.070313.128907.195312.265625.402344.402344.617187.042969.066407.085937.128907.128906.195313.121094.183594.246094.375.375.570312.070313.105469.140625.210938.210938.320313.121093.1875.25.382812.378906.582031.0625.097656.128906.195312.195313.292969.15625.238281.316406.484375.480468.734375.042969.066406.085938.132812.132813.199218.175781.269532.359375.546876.546875.832032.046875.070312.089844.140625.136718.210937.195313.292969.394532.59375.597657.90625.050781.074219.101562.152344.152343.230469.1875.28125.375.566406.566407.859375.09375.136719.1875.28125.28125.421875.1875.289062.382812.578125.578125.878906.058594.082032.113281.167969.171875.253906.226562.34375.457031.695313.695312 1.054688.054688.078125.109375.160156.164063.242188.246094.371093.496094.75.753906 1.136718.039062.0625.082031.128906.125.191406.269531.402344.539062.808594.820312 1.226563.042969.070313.089844.140625.136719.207031 1.890625 2.835938 4.019531 6.019532 6.375 9.519532.015625.019531.027344.039062.042969.058593.359375.539063.730469 1.085938 1.101562 1.636719.046876.070312.089844.136719.136719.203125.347657.515625.703125 1.042969 1.0625 1.570313.074219.113281.148438.222656.222657.332031.335937.496093.675781 1 1.019531 1.507812.105469.15625.210937.3125.316406.46875.316406.464844.640625.941407.960937 1.414063.140626.210937.28125.414062.425782.625.316406.464844.636718.9375.960937 1.414062.144531.210938.289063.425782.4375.640625.328125.484375.660157.972657.996094 1.464844.148437.21875.300781.4375.449219.65625.332031.488281.671875.984375 1.007812 1.476563.160156.230468.316406.460937.472656.691406.347657.507812.699219 1.019531 1.050782 1.535156.152344.222656.304687.445312.457031.667969.339844.496093.683594.996093 1.03125 1.5.191406.28125.386719.5625.582031.847656.332032.484375.664063.96875 1 1.457031.1875.269532.375.539063.5625.8125.351563.515625.710938 1.03125 1.070313 1.550782.1875.269531.371093.542968.5625.8125.355469.515624.710937 1.035156 1.074219 1.558593.195312.285157.394531.570313.59375.855469.363281.527344.726562 1.054688 1.09375 1.585938.210937.296874.417968.597656.628906.902343.347656.503907.703125 1.011719 1.058594 1.523438.234374.339843.472656.683593.710937 1.023437.351563.503906.703125 1.007813 1.054687 1.519532.230469.324218.460938.65625.6875.984374.371094.53125.742188 1.058594 1.117188 1.597657.21875.3125.4375.628906.660156.941406.382813.554687.769532 1.105469 1.160156 1.660156.207032.300781.417969.597657.628907.898438.414062.59375.832031 1.1875 1.253906 1.789062.160156.226563.324219.460938.484375.6875.460938.660157.925781 1.316407 1.394531 1.980469.15625.222656.3125.449219.472657.671875.480468.683594.964843 1.367187 1.449218 2.058594.058594.078125.117188.164062.171875.242187 2.394531 3.390625 4.855469 6.859375 7.386719 10.402344.101562.144531.203125.285156.308594.429688.515625.726562 1.039062 1.457031 1.5625 2.191406.167968.234375.332031.464844.503906.699218.460938.640626.921875 1.289063 1.386719 1.9375.246093.335938.484375.675782.730469 1.011719.441406.617188.886718 1.238281 1.335937 1.859375.257813.359375.515625.722656.777344 1.085938.445312.617187.894531 1.234375 1.339843 1.855468.273438.378907.546876.753907.820313 1.132813.429687.59375.859375 1.191406 1.292969 1.789063.300781.414062.597656.828124.898437 1.242187.433594.597656.871094 1.195313 1.304688 1.796875.292969.40625.589843.8125.882812 1.21875.445313.605469.886719 1.214844 1.332031 1.824219.300782.414062.601563.828125.90625 1.242187.4375.601563.878907 1.203125 1.320313 1.808594.320313.4375.636719.871094.957031 1.308594.421875.578125.847656 1.15625 1.273438 1.738281.335937.457031.671875.914063 1.007812 1.371094.441406.601562.886719 1.207031 1.332032 1.8125.316406.429687.632812.859375.949218 1.289062.449219.609375.894532 1.214844 1.34375 1.824219.335938.453125.671875.90625 1.007813 1.359375.441406.601563.886719 1.203125 1.335937 1.804687.332032.449219.664063.898438.996094 1.347657.460938.617187.921875 1.238281 1.382812 1.859375.328126.441406.65625.882812.984376 1.324218.460937.617188.925781 1.238282 1.390624 1.859376.113282.152343.222657.304687.335938.457031-11.644531 5.984375-24.847656 8.644531-38.078125 7.574219-16.859375-1.371094-32.691406-8.777344-44.578125-20.855469-.914062-.929688-1.832031-1.925781-2.644531-2.804688-.042969-.050781-.089844-.097656-.136719-.148437-42.042969-43.824219-69.164062-99.238282-78.425781-160.257813-8.785157-57.871093-1.539063-118.839843 20.949219-176.3125 3.769531-9.632812 10.484374-21.734375 19.957031-35.96875 3.066406-4.613281 1.816406-10.84375-2.796875-13.914062-4.613282-3.070313-10.84375-1.816407-13.914063 2.796875-10.261719 15.425781-17.640625 28.808594-21.933593 39.773437-23.773438 60.75-31.414063 125.285157-22.101563 186.636719 9.882813 65.101562 38.828125 124.25 83.714844 171.070312.898437.972657 1.914062 2.070313 3.027343 3.203126 15.265626 15.511718 35.597657 25.019531 57.257813 26.78125 2.460937.199218 4.917969.300781 7.371094.300781 18.910156 0 37.429687-5.898438 52.820312-16.941407 3.835938-2.75 7.476563-5.820312 10.832031-9.121093 3.777344-3.714844 7.214844-7.738281 10.214844-11.949219.539063-.757812.96875-1.585938 1.28125-2.460938l1.878906-5.289062c3.546876-9.984375 1.578126-24.015625-4.582031-32.636719zm50.121094-296.515625c3.167969 4.550781 3.085938 10.601562-.207031 15.0625l-68.917969 93.3125c-.613281.828125-1.652344 1.242188-2.648438 1.046875-7.238281-1.402344-14.089843-3.882813-20.457031-7.402344 2.890625-5.804687 7.695313-14.871093 14.941407-26.871093 1.71875-2.84375 3.628906-5.941407 5.730468-9.273438 12.84375-20.269531 30.742188-45.90625 54.363282-75.414062.023437-.027344.042968-.054688.066406-.082032 1.28125-1.597656 2.585937-3.210937 3.898437-4.832031 1.914063 1.570313 3.738281 3.238281 5.464844 4.996094 2.941406 2.988281 5.519531 6.121093 7.667969 9.316406.035156.046875.066406.09375.097656.140625zm-2.652344 408.957031-1.390625 3.921875c-2.132812 2.867188-4.53125 5.621094-7.148437 8.195313-.289063.285156-.585938.570312-.878906.851562-.082032-.109375-.167969-.222656-.25-.332031-1.046876-1.402344-2.085938-2.800781-3.121094-4.191406-.203125-.273438-.40625-.546875-.609375-.820313-.917969-1.234375-1.828125-2.460937-2.734375-3.6875-.183594-.25-.367188-.5-.554688-.75-1.015625-1.375-2.023437-2.742187-3.023437-4.105469-.222657-.300781-.445313-.601562-.664063-.902343-.96875-1.316407-1.929687-2.625-2.882812-3.929688-.0625-.085937-.125-.171875-.191406-.261719-1.003907-1.375-2-2.738281-2.992188-4.101562-.222656-.304688-.445312-.609375-.667969-.914062-.976562-1.347657-1.949219-2.6875-2.914062-4.015626-.066407-.09375-.136719-.191406-.207031-.285156-.925782-1.277344-1.84375-2.550781-2.753907-3.8125-.191406-.265625-.382812-.53125-.574219-.796875-.953124-1.320312-1.898437-2.632812-2.832031-3.9375-.125-.167969-.242187-.335937-.367187-.507812-.84375-1.175781-1.683594-2.347657-2.511719-3.511719-.179687-.246094-.355469-.492188-.53125-.738281-.898437-1.261719-1.792969-2.511719-2.675781-3.753907-.175782-.246093-.347656-.492187-.523438-.734374-.792968-1.121094-1.582031-2.230469-2.367187-3.335938-.132813-.1875-.265625-.375-.398438-.5625-.867187-1.222656-1.722656-2.433594-2.570312-3.632812-.179688-.257813-.363281-.515626-.542969-.773438-.835938-1.1875-1.667969-2.367188-2.488281-3.535156-.023438-.027344-.042969-.058594-.0625-.089844-.847657-1.203125-1.679688-2.390625-2.507813-3.574219-.171875-.242187-.339844-.484375-.507812-.722656-.816406-1.167969-1.625-2.324219-2.421875-3.46875-.046875-.066406-.09375-.132813-.140625-.203125-.757813-1.085938-1.5-2.15625-2.238282-3.214844-.160156-.234375-.324218-.464844-.484374-.699218-.753907-1.085938-1.5-2.164063-2.238282-3.226563-.121094-.179687-.242187-.355469-.367187-.535156-.65625-.945313-1.300781-1.882813-1.941407-2.808594-.136718-.199219-.273437-.398437-.410156-.59375-.707031-1.027344-1.40625-2.042969-2.09375-3.046875-.140625-.203125-.28125-.40625-.417968-.609375-.621094-.902344-1.234376-1.792969-1.835938-2.671875-.09375-.140625-.191406-.28125-.285156-.421875-.671875-.980469-1.332032-1.941406-1.976563-2.894531-.128906-.1875-.257812-.371094-.382812-.558594-.644531-.945312-1.28125-1.878906-1.902344-2.792969-.007813-.011719-.019531-.027343-.027344-.042969-.617187-.90625-1.21875-1.792968-1.816406-2.667968-.148437-.222656-.296875-.441406-.441406-.65625-.582031-.855469-1.152344-1.699219-1.707031-2.523438-.054688-.082031-.109376-.160156-.164063-.242187-.523437-.777344-1.035156-1.535157-1.539063-2.285157-.117187-.171874-.234374-.34375-.347656-.511718-.523437-.777344-1.035156-1.542969-1.535156-2.285156-.097656-.144532-.191406-.289063-.289062-.433594-.464844-.6875-.917969-1.367188-1.359376-2.027344-.066406-.09375-.132812-.191406-.195312-.289062-.480469-.71875-.949219-1.417969-1.40625-2.101563-.097656-.148437-.195312-.292969-.292969-.441406-.402343-.605469-.796875-1.199219-1.179687-1.773438-.058594-.082031-.113282-.167969-.167969-.25-.417969-.628906-.820313-1.238281-1.214844-1.828125-.089843-.140625-.183593-.277344-.273437-.414062-.777344-1.171875-1.5-2.261719-2.167969-3.277344-.050781-.074219-.097656-.148438-.148437-.222656 3.609374-1.8125 7.359374-3.308594 11.226562-4.480469 5.511719-1.667969 11.472656.367187 14.828125 5.070313l61.800781 86.523437c2.378906 3.335937 3.371094 10.394531 2 14.253906zm0 0"/><path d="m434.441406 372.203125c-5.136718-2.078125-10.988281.398437-13.066406 5.535156l-.246094.605469c-2.078125 5.136719.398438 10.984375 5.535156 13.066406 1.234376.5 2.507813.734375 3.761719.734375 3.96875 0 7.726563-2.367187 9.304688-6.269531l.246093-.605469c2.078126-5.136719-.398437-10.984375-5.535156-13.066406zm0 0"/><path d="m75.71875 68.9375c1.234375.496094 2.507812.734375 3.761719.734375 3.96875 0 7.722656-2.371094 9.304687-6.273437l.242188-.605469c2.078125-5.136719-.402344-10.984375-5.539063-13.0625s-10.984375.398437-13.0625 5.539062l-.246093.601563c-2.078126 5.136718.402343 10.988281 5.539062 13.066406zm0 0"/></svg>