<svg height="512pt" viewBox="0 -9 512 512" width="512pt" xmlns="http://www.w3.org/2000/svg"><path d="m481.785156 135.492188h-24.015625v-52.214844h23.050781c9.203126 0 14.199219-3.917969 16.765626-7.207032 6.902343-8.832031 3.78125-21.367187.742187-33.566406l-1.488281-5.96875c-.410156-1.644531-.785156-3.238281-1.152344-4.777344-3.34375-14.148437-7.511719-31.757812-31.238281-31.757812h-165.15625c-27.214844 0-50.394531 20.347656-53.925781 47.332031-2.832032 21.65625-4.269532 43.707031-4.269532 65.542969v22.617188h-159.273437c-16.660157 0-30.214844 13.554687-30.214844 30.214843v113.753907c-29.234375 4.824218-51.609375 30.265624-51.609375 60.847656v84.417968c0 37.972657 30.890625 68.859376 68.859375 68.859376h60.808594c14.859375 0 27.4375-9.910157 31.492187-23.464844 21.679688-3.355469 39.324219-19.066406 45.511719-39.6875h275.113281c16.660156 0 30.214844-13.554688 30.214844-30.214844v-234.511719c0-16.660156-13.554688-30.214843-30.214844-30.214843zm-4.492187-94.089844 1.507812 6.046875c1.179688 4.730469 3.0625 12.300781 2.824219 15.65625-.222656.015625-.488281.027343-.804688.027343h-22.070312c1.699219-14.460937 5.609375-28.65625 11.554688-41.945312 2.257812 1.570312 3.480468 5.476562 5.78125 15.207031.382812 1.613281.777343 3.285157 1.207031 5.007813zm-216.050781 71.472656c0-20.964844 1.378906-42.136719 4.097656-62.929688 2.222656-16.992187 16.820312-29.800781 33.953125-29.800781h149.601562c-7.402343 18.933594-11.265625 39.25-11.265625 59.578125v97.390625h-176.386718zm-131.574219 360.570312h-60.808594c-26.863281 0-48.714844-21.855468-48.714844-48.714843v-84.421875c0-19.433594 13.414063-35.785156 31.464844-40.296875v100.210937c0 16.660156 13.554687 30.214844 30.214844 30.214844h16.4375c5.742187 19.125 21.34375 34.019531 40.878906 38.753906-2.332031 2.601563-5.710937 4.253906-9.472656 4.253906zm22.800781-22.796874c-20.097656 0-36.449219-16.351563-36.449219-36.445313v-166.320313c0-20.097656 16.351563-36.445312 36.449219-36.445312 20.09375 0 36.445312 16.347656 36.445312 36.445312v166.320313c-.003906 20.09375-16.351562 36.445313-36.445312 36.445313zm339.386719-50.425782c0 5.550782-4.515625 10.070313-10.070313 10.070313h-272.730468v-162.410157c0-31.203124-25.386719-56.589843-56.589844-56.589843s-56.589844 25.386719-56.589844 56.589843v162.410157h-14.050781c-5.550781 0-10.070313-4.519531-10.070313-10.070313v-234.515625c0-5.550781 4.519532-10.070312 10.070313-10.070312h159.273437v21.476562h-2.949218c-5.5625 0-10.070313 4.507813-10.070313 10.070313s4.507813 10.074218 10.070313 10.074218h225.292968c5.558594 0 10.070313-4.511718 10.070313-10.074218s-4.511719-10.070313-10.070313-10.070313h-5.671875v-21.476562h24.015625c5.554688 0 10.070313 4.519531 10.070313 10.070312zm0 0"/><path d="m449.324219 210.722656h-198.152344c-5.5625 0-10.074219 4.511719-10.074219 10.074219v58.578125c0 5.5625 4.511719 10.070312 10.074219 10.070312h198.152344c5.5625 0 10.074219-4.507812 10.074219-10.070312v-58.578125c0-5.5625-4.511719-10.074219-10.074219-10.074219zm-10.070313 58.582032h-178.011718v-38.4375h178.011718zm0 0"/><path d="m251.171875 365.96875h43.679687c5.5625 0 10.070313-4.511719 10.070313-10.074219v-43.679687c0-5.5625-4.507813-10.070313-10.070313-10.070313h-43.679687c-5.5625 0-10.074219 4.507813-10.074219 10.070313v43.679687c0 5.5625 4.511719 10.074219 10.074219 10.074219zm10.070313-43.683594h23.539062v23.539063h-23.539062zm0 0"/><path d="m371.011719 365.96875c5.5625 0 10.070312-4.511719 10.070312-10.074219v-43.679687c0-5.5625-4.507812-10.070313-10.070312-10.070313h-43.683594c-5.558594 0-10.070313 4.507813-10.070313 10.070313v43.679687c0 5.5625 4.511719 10.074219 10.070313 10.074219zm-33.609375-43.683594h23.535156v23.539063h-23.535156zm0 0"/><path d="m449.324219 302.144531h-43.679688c-5.5625 0-10.070312 4.507813-10.070312 10.070313v43.679687c0 5.5625 4.507812 10.074219 10.070312 10.074219h43.679688c5.5625 0 10.074219-4.511719 10.074219-10.074219v-43.679687c0-5.5625-4.511719-10.070313-10.074219-10.070313zm-10.070313 43.679688h-23.539062v-23.539063h23.539062zm0 0"/><path d="m294.851562 71.820312h49.9375c5.5625 0 10.070313-4.511718 10.070313-10.074218s-4.507813-10.070313-10.070313-10.070313h-49.9375c-5.5625 0-10.070312 4.507813-10.070312 10.070313s4.507812 10.074218 10.070312 10.074218zm0 0"/><path d="m294.851562 108.699219h110.792969c5.5625 0 10.070313-4.507813 10.070313-10.070313s-4.507813-10.074218-10.070313-10.074218h-110.792969c-5.5625 0-10.070312 4.511718-10.070312 10.074218s4.507812 10.070313 10.070312 10.070313zm0 0"/><path d="m294.851562 144.621094h76.160157c5.5625 0 10.070312-4.507813 10.070312-10.070313s-4.507812-10.074219-10.070312-10.074219h-76.160157c-5.5625 0-10.070312 4.511719-10.070312 10.074219s4.507812 10.070313 10.070312 10.070313zm0 0"/><path d="m449.324219 377.042969h-198.152344c-5.5625 0-10.074219 4.511719-10.074219 10.070312 0 5.5625 4.511719 10.074219 10.074219 10.074219h198.152344c5.5625 0 10.074219-4.511719 10.074219-10.074219 0-5.558593-4.511719-10.070312-10.074219-10.070312zm0 0"/><path d="m380.667969 71.386719c1.238281.5 2.515625.738281 3.777343.738281 3.980469 0 7.753907-2.378906 9.335938-6.296875l.246094-.605469c2.085937-5.15625-.402344-11.027344-5.558594-13.113281-5.15625-2.089844-11.027344.402344-13.117188 5.558594l-.242187.605469c-2.085937 5.15625.402344 11.027343 5.558594 13.113281zm0 0"/><path d="m156.363281 340.257812c-5.160156-2.082031-11.027343.40625-13.113281 5.5625l-.246094.605469c-2.082031 5.15625.40625 11.027344 5.5625 13.113281 1.238282.5 2.515625.734376 3.773438.734376 3.984375 0 7.757812-2.378907 9.339844-6.296876l.246093-.609374c2.085938-5.15625-.40625-11.023438-5.5625-13.109376zm0 0"/><path d="m152.46875 319.460938c5.558594 0 10.070312-4.507813 10.070312-10.070313v-60.03125c0-5.5625-4.511718-10.070313-10.070312-10.070313-5.5625 0-10.074219 4.507813-10.074219 10.070313v60.03125c0 5.5625 4.511719 10.070313 10.074219 10.070313zm0 0"/></svg>