<svg height="512pt" viewBox="-32 0 512 512" width="512pt" xmlns="http://www.w3.org/2000/svg"><path d="m157.871094 45.296875c5.550781 0 10.050781-4.5 10.050781-10.054687v-25.191407c0-5.550781-4.5-10.050781-10.050781-10.050781-5.550782 0-10.054688 4.5-10.054688 10.050781v25.191407c0 5.554687 4.5 10.054687 10.054688 10.054687zm0 0"/><path d="m201.605469 57.671875c2.574219 0 5.144531-.984375 7.109375-2.945313l17.8125-17.8125c3.925781-3.925781 3.925781-10.292968 0-14.21875-3.929688-3.925781-10.289063-3.925781-14.21875 0l-17.8125 17.8125c-3.925782 3.925782-3.925782 10.292969 0 14.21875 1.964844 1.960938 4.535156 2.945313 7.109375 2.945313zm0 0"/><path d="m107.277344 54.726562c1.960937 1.960938 4.535156 2.945313 7.105468 2.945313 2.574219 0 5.148438-.984375 7.109376-2.945313 3.925781-3.925781 3.925781-10.292968 0-14.214843l-17.8125-17.816407c-3.929688-3.921874-10.292969-3.921874-14.21875 0-3.925782 3.925782-3.925782 10.292969 0 14.21875zm0 0"/><path d="m418.628906 140.773438h-202.25v-11.289063c0-36.097656-26.191406-65.46875-58.382812-65.46875s-58.382813 29.371094-58.382813 65.46875v11.289063h-15.835937c-16.628906 0-30.15625 13.527343-30.15625 30.15625v119.351562c-30.347656 4.835938-53.621094 31.183594-53.621094 62.875v87.710938c0 39.222656 31.910156 71.132812 71.132812 71.132812h28.355469c18.34375 0 35.589844-7.144531 48.554688-20.125 12.238281-12.246094 19.273437-28.296875 20.011719-45.488281h250.574218c16.628906 0 30.160156-13.527344 30.160156-30.15625v-245.300781c-.003906-16.628907-13.53125-30.15625-30.160156-30.15625zm-284.808594 336.894531c-9.167968 9.175781-21.359374 14.226562-34.332031 14.226562h-28.355469c-28.136718 0-51.027343-22.890625-51.027343-51.027343v-87.710938c0-20.5625 14.324219-37.832031 33.515625-42.386719v105.460938c0 16.628906 13.527344 30.15625 30.15625 30.15625h64.144531c-.726563 11.816406-5.660156 22.832031-14.101563 31.28125zm-50.042968-51.386719c-5.542969 0-10.050782-4.507812-10.050782-10.050781v-245.300781c0-5.542969 4.507813-10.050782 10.050782-10.050782h15.835937v166.75c0 32.257813 20.921875 59.125 48.34375 64.480469l.042969 34.171875zm74.21875-53.289062c-21.105469 0-38.277344-20.347657-38.277344-45.363282v-198.144531c0-25.011719 17.171875-45.363281 38.277344-45.363281 21.105468 0 38.277344 20.351562 38.277344 45.363281v198.144531c0 25.015625-17.171876 45.363282-38.277344 45.363282zm270.6875 43.238281c0 5.542969-4.511719 10.050781-10.054688 10.050781h-250.523437l-.046875-34.175781c27.410156-5.367188 48.320312-32.226563 48.320312-64.476563v-166.75h202.25c5.542969 0 10.054688 4.507813 10.054688 10.050782zm0 0"/><path d="m161.890625 218.757812c-5.144531-2.082031-11.003906.402344-13.085937 5.550782l-.253907.628906c-2.082031 5.144531.402344 11.003906 5.550781 13.085938 1.234376.5 2.507813.734374 3.765626.734374 3.972656 0 7.738281-2.371093 9.320312-6.285156l.253906-.628906c2.082032-5.144531-.402344-11.003906-5.550781-13.085938zm0 0"/><path d="m243.941406 391.109375c-5.136718-2.082031-11.003906.398437-13.089844 5.546875l-.253906.628906c-2.082031 5.144532.402344 11.007813 5.550782 13.089844 1.234374.5 2.507812.738281 3.765624.738281 3.972657 0 7.738282-2.375 9.320313-6.285156l.253906-.628906c2.085938-5.148438-.398437-11.007813-5.546875-13.089844zm0 0"/><path d="m157.996094 196.355469c5.550781 0 10.050781-4.5 10.050781-10.050781v-62.367188c0-5.554688-4.5-10.054688-10.050781-10.054688-5.550782 0-10.050782 4.5-10.050782 10.054688v62.367188c0 5.550781 4.5 10.050781 10.050782 10.050781zm0 0"/><path d="m404.683594 173.460938h-164.640625c-5.550781 0-10.050781 4.503906-10.050781 10.054687v50.925781c0 5.550782 4.5 10.050782 10.050781 10.050782h164.640625c5.550781 0 10.050781-4.5 10.050781-10.050782v-50.925781c0-5.550781-4.5-10.054687-10.050781-10.054687zm-10.054688 50.925781h-144.53125v-30.820313h144.53125zm0 0"/><path d="m240.042969 312.128906h37.671875c5.550781 0 10.054687-4.5 10.054687-10.050781v-37.675781c0-5.550782-4.503906-10.050782-10.054687-10.050782h-37.671875c-5.550781 0-10.050781 4.5-10.050781 10.050782v37.675781c0 5.550781 4.5 10.050781 10.050781 10.050781zm10.054687-37.671875h17.566406v17.566407h-17.566406zm0 0"/><path d="m303.527344 312.128906h37.671875c5.550781 0 10.050781-4.5 10.050781-10.050781v-37.675781c0-5.550782-4.5-10.050782-10.050781-10.050782h-37.671875c-5.550782 0-10.050782 4.5-10.050782 10.050782v37.675781c0 5.550781 4.5 10.050781 10.050782 10.050781zm10.050781-37.671875h17.570313v17.566407h-17.570313zm0 0"/><path d="m404.683594 254.351562h-37.675782c-5.550781 0-10.050781 4.5-10.050781 10.050782v37.675781c0 5.550781 4.5 10.050781 10.050781 10.050781h37.675782c5.550781 0 10.050781-4.5 10.050781-10.050781v-37.675781c0-5.550782-4.5-10.050782-10.050781-10.050782zm-10.054688 37.671876h-17.566406v-17.566407h17.566406zm0 0"/><path d="m240.042969 374.910156h37.671875c5.550781 0 10.054687-4.5 10.054687-10.050781v-37.671875c0-5.550781-4.503906-10.054688-10.054687-10.054688h-37.671875c-5.550781 0-10.050781 4.503907-10.050781 10.054688v37.671875c0 5.550781 4.5 10.050781 10.050781 10.050781zm10.054687-37.671875h17.566406v17.566407h-17.566406zm0 0"/><path d="m293.476562 364.859375c0 5.550781 4.5 10.050781 10.050782 10.050781h37.671875c5.550781 0 10.050781-4.5 10.050781-10.050781v-37.671875c0-5.550781-4.5-10.054688-10.050781-10.054688h-37.671875c-5.550782 0-10.050782 4.503907-10.050782 10.054688zm20.101563-27.621094h17.570313v17.566407h-17.570313zm0 0"/><path d="m404.683594 317.132812h-37.675782c-5.550781 0-10.050781 4.503907-10.050781 10.054688v37.671875c0 5.550781 4.5 10.050781 10.050781 10.050781h37.675782c5.550781 0 10.050781-4.5 10.050781-10.050781v-37.671875c0-5.550781-4.5-10.054688-10.050781-10.054688zm-10.054688 37.671876h-17.566406v-17.566407h17.566406zm0 0"/><path d="m400.84375 390.6875h-121.117188c-5.550781 0-10.054687 4.503906-10.054687 10.054688 0 5.550781 4.503906 10.050781 10.054687 10.050781h121.117188c5.550781 0 10.050781-4.5 10.050781-10.050781 0-5.550782-4.5-10.054688-10.050781-10.054688zm0 0"/></svg>