<svg height="512pt" viewBox="0 -40 512.001 512" width="512pt" xmlns="http://www.w3.org/2000/svg"><path d="m501.953125 155.652344h-145.292969v-145.289063c0-5.546875-4.496094-10.046875-10.046875-10.046875h-207.664062c-5.550781 0-10.050781 4.5-10.050781 10.046875 0 5.550781 4.5 10.050781 10.050781 10.050781h197.617187v135.242188h-171.179687c-5.550781 0-10.046875 4.496094-10.046875 10.046875v47.796875l-36.585938 38.886719-36.421875-41.53125c-1.910156-2.175781-4.660156-3.421875-7.554687-3.421875h-54.679688v-187.019532h32.4375c5.546875 0 10.046875-4.5 10.046875-10.050781 0-5.546875-4.5-10.046875-10.046875-10.046875h-42.488281c-5.546875 0-10.046875 4.5-10.046875 10.046875v207.117188c0 5.550781 4.5 10.050781 10.046875 10.050781h60.179687l40.714844 46.417969c1.867188 2.128906 4.546875 3.371093 7.378906 3.421875h.175782c2.769531 0 5.417968-1.144532 7.316406-3.160156l29.527344-31.382813v129.992187c0 5.546876 4.496094 10.046876 10.046875 10.046876h176.640625l39.949218 46.0625c1.847657 2.132812 4.507813 3.386718 7.332032 3.460937.085937.003906.171875.003906.257812.003906 2.730469 0 5.34375-1.109375 7.242188-3.082031l44.691406-46.445312h60.453125c5.546875 0 10.046875-4.5 10.046875-10.046876v-207.117187c0-5.550781-4.5-10.050781-10.046875-10.050781zm-10.050781 207.117187h-54.679688c-2.730468 0-5.34375 1.113281-7.238281 3.082031l-40.03125 41.601563-35.75-41.21875c-1.90625-2.199219-4.675781-3.464844-7.589844-3.464844h-171.179687v-187.019531h316.46875zm0 0"/><path d="m223.101562 227.632812h188.90625c5.550782 0 10.046876-4.5 10.046876-10.050781 0-5.546875-4.496094-10.046875-10.046876-10.046875h-188.90625c-5.546874 0-10.046874 4.5-10.046874 10.046875 0 5.550781 4.5 10.050781 10.046874 10.050781zm0 0"/><path d="m223.101562 277.6875h118.570313c5.546875 0 10.046875-4.5 10.046875-10.046875 0-5.550781-4.5-10.050781-10.046875-10.050781h-118.570313c-5.546874 0-10.046874 4.5-10.046874 10.050781 0 5.546875 4.5 10.046875 10.046874 10.046875zm0 0"/><path d="m223.101562 325.769531h188.90625c5.550782 0 10.046876-4.5 10.046876-10.046875 0-5.550781-4.496094-10.050781-10.046876-10.050781h-188.90625c-5.546874 0-10.046874 4.5-10.046874 10.050781 0 5.546875 4.5 10.046875 10.046874 10.046875zm0 0"/><path d="m89.90625 64.480469h188.90625c5.550781 0 10.050781-4.5 10.050781-10.050781 0-5.546876-4.5-10.046876-10.050781-10.046876h-188.90625c-5.546875 0-10.046875 4.5-10.046875 10.046876 0 5.550781 4.5 10.050781 10.046875 10.050781zm0 0"/><path d="m92.808594 94.4375c-5.546875 0-10.046875 4.5-10.046875 10.050781 0 5.546875 4.5 10.046875 10.046875 10.046875h118.570312c5.546875 0 10.046875-4.5 10.046875-10.046875 0-5.550781-4.5-10.050781-10.046875-10.050781zm0 0"/><path d="m89.90625 162.617188h49.796875c5.546875 0 10.046875-4.5 10.046875-10.050782 0-5.546875-4.5-10.046875-10.046875-10.046875h-49.796875c-5.546875 0-10.046875 4.5-10.046875 10.046875 0 5.550782 4.5 10.050782 10.046875 10.050782zm0 0"/><path d="m375.152344 263.566406-.253906.628906c-2.085938 5.144532.390624 11.003907 5.535156 13.089844 1.234375.5 2.515625.738282 3.769531.738282 3.972656 0 7.734375-2.367188 9.316406-6.273438l.257813-.628906c2.085937-5.144532-.394532-11.003906-5.535156-13.089844-5.148438-2.089844-11.003907.394531-13.089844 5.535156zm0 0"/><path d="m93.480469 19.996094c1.234375.5 2.507812.734375 3.761719.734375 3.972656 0 7.738281-2.375 9.320312-6.285157l.253906-.628906c2.078125-5.148437-.40625-11.003906-5.550781-13.082031s-11.003906.40625-13.082031 5.550781l-.253906.628906c-2.078126 5.144532.40625 11.003907 5.550781 13.082032zm0 0"/></svg>