<svg height="512pt" viewBox="0 -73 512.00013 512" width="512pt" xmlns="http://www.w3.org/2000/svg"><path d="m171.730469 182.757812c2.988281-4.777343 4.71875-10.417968 4.71875-16.457031v-14.234375c0-3.066406-.449219-6.105468-1.335938-9.03125-4.003906-13.238281-15.992187-22.136718-29.828125-22.136718-13.726562 0-25.683594 8.796874-29.761718 21.894531-.933594 2.996093-1.40625 6.113281-1.40625 9.273437v14.234375c0 6.207031 1.832031 11.996094 4.976562 16.859375-14.792969 7.433594-24.398438 22.683594-24.398438 39.550782v23.125c0 5.542968 4.496094 10.039062 10.039063 10.039062h82.171875c5.542969 0 10.035156-4.496094 10.035156-10.039062v-23.125c0-17.175782-9.953125-32.671876-25.210937-39.953126zm-37.535157-30.691406c0-1.132812.167969-2.242187.496094-3.304687 1.449219-4.65625 5.707032-7.785157 10.59375-7.785157 4.847656 0 9.214844 3.234376 10.613282 7.871094 0 0 0 0 .003906.003906.3125 1.039063.472656 2.121094.472656 3.214844v14.234375c0 6.117188-4.976562 11.089844-11.089844 11.089844-6.117187 0-11.089844-4.972656-11.089844-11.089844zm42.671876 83.734375h-62.097657v-13.085937c0-10.28125 6.519531-19.464844 16.226563-22.851563 4.117187-1.4375 8.386718-2.226562 12.6875-2.355469 1.097656-.03125 2.148437-.042968 3.109375-.042968 4.65625.011718 9.3125.816406 13.851562 2.398437 9.703125 3.386719 16.222657 12.570313 16.222657 22.851563zm0 0"/><path d="m501.960938 0h-247.472657c-5.542969 0-10.035156 4.492188-10.035156 10.039062v33.96875h-217.238281c-5.542969 0-10.039063 4.492188-10.039063 10.035157v137.289062c0 5.542969 4.496094 10.035157 10.039063 10.035157 5.542968 0 10.035156-4.492188 10.035156-10.035157v-127.25h207.203125v13.65625h-185.5625c-5.542969 0-10.035156 4.492188-10.035156 10.035157v201.226562c0 5.542969 4.492187 10.039062 10.035156 10.039062h327.542969c5.542968 0 10.035156-4.496093 10.035156-10.039062v-116.632812h11.605469v140.324218h-370.824219v-43.066406c0-5.542969-4.492188-10.039062-10.035156-10.039062-5.542969 0-10.039063 4.496093-10.039063 10.039062v43.066406h-7.136719c-4.074218 0-7.742187 2.460938-9.289062 6.226563-1.542969 3.765625-.6601562 8.09375 2.234375 10.953125l34.464844 34.019531c1.878906 1.855469 4.410156 2.894531 7.050781 2.894531h356.324219c2.648437 0 5.1875-1.042968 7.066406-2.90625l34.328125-34.019531c2.890625-2.863281 3.765625-7.1875 2.214844-10.949219-1.546875-3.761718-5.210938-6.21875-9.28125-6.21875h-7.003906v-140.324218h73.8125c5.542968 0 10.039062-4.492188 10.039062-10.039063v-152.289063c0-5.546874-4.492188-10.039062-10.039062-10.039062zm-125.566407 278.960938h-307.464843v-181.148438h175.523437v64.515625c0 5.542969 4.492187 10.039063 10.035156 10.039063h43.324219l32.078125 33.335937c1.894531 1.96875 4.507813 3.078125 7.234375 3.078125.085938 0 .171875 0 .257812-.003906 2.820313-.070313 5.476563-1.328125 7.324219-3.457032l28.582031-32.957031h3.105469zm20.300781 67.75h-348.074218l-14.125-13.945313h376.269531zm95.230469-194.421876h-123.21875c-2.90625 0-5.675781 1.265626-7.582031 3.460938l-24.386719 28.117188-27.421875-28.5c-1.894531-1.964844-4.503906-3.078126-7.234375-3.078126h-37.554687v-132.214843h227.398437zm0 0"/><path d="m303.976562 58.222656h138.898438c5.542969 0 10.039062-4.492187 10.039062-10.035156 0-5.546875-4.496093-10.039062-10.039062-10.039062h-138.898438c-5.542968 0-10.039062 4.492187-10.039062 10.039062 0 5.542969 4.496094 10.035156 10.039062 10.035156zm0 0"/><path d="m303.976562 95.027344h87.179688c5.542969 0 10.039062-4.492188 10.039062-10.035156 0-5.546876-4.496093-10.039063-10.039062-10.039063h-87.179688c-5.542968 0-10.039062 4.492187-10.039062 10.039063 0 5.542968 4.496094 10.035156 10.039062 10.035156zm0 0"/><path d="m303.976562 130.382812h138.898438c5.542969 0 10.039062-4.492187 10.039062-10.039062 0-5.542969-4.496093-10.035156-10.039062-10.035156h-138.898438c-5.542968 0-10.039062 4.492187-10.039062 10.035156 0 5.546875 4.496094 10.039062 10.039062 10.039062zm0 0"/><path d="m413.320312 81.003906-.1875.460938c-2.082031 5.140625.394532 10.992187 5.535157 13.074218 1.234375.5 2.507812.734376 3.761719.734376 3.96875 0 7.726562-2.367188 9.308593-6.269532l.1875-.460937c2.082031-5.140625-.398437-10.992188-5.535156-13.074219-5.140625-2.078125-10.988281.398438-13.070313 5.535156zm0 0"/><path d="m23.414062 239.664062c1.242188.507813 2.523438.746094 3.789063.746094 3.957031 0 7.714844-2.359375 9.304687-6.25 2.101563-5.128906-.355468-10.992187-5.488281-13.089844-5.132812-2.097656-10.992187.359376-13.09375 5.488282l-.007812.023437c-2.097657 5.128907.363281 10.980469 5.496093 13.082031zm0 0"/><path d="m343.957031 235.734375h-121.363281c-5.542969 0-10.035156 4.496094-10.035156 10.039063 0 5.542968 4.492187 10.035156 10.035156 10.035156h121.363281c5.542969 0 10.039063-4.492188 10.039063-10.035156 0-5.542969-4.496094-10.039063-10.039063-10.039063zm0 0"/><path d="m222.59375 218.632812h38.378906c5.542969 0 10.039063-4.496093 10.039063-10.039062s-4.496094-10.039062-10.039063-10.039062h-38.378906c-5.542969 0-10.035156 4.496093-10.035156 10.039062s4.492187 10.039062 10.035156 10.039062zm0 0"/></svg>