<svg height="511pt" viewBox="-96 1 511 511.99899" width="511pt" xmlns="http://www.w3.org/2000/svg"><path d="m135.015625 213.550781c-2.085937-5.167969-7.96875-7.667969-13.132813-5.582031-5.167968 2.082031-7.667968 7.960938-5.582031 13.128906l.234375.582032c1.585938 3.929687 5.367188 6.316406 9.359375 6.316406 1.257813 0 2.535157-.234375 3.769531-.734375 5.167969-2.085938 7.667969-7.964844 5.582032-13.132813zm0 0"/><path d="m188.171875 221.695312c1.589844 3.921876 5.367187 6.300782 9.351563 6.300782 1.261718 0 2.542968-.238282 3.785156-.738282 5.164062-2.09375 7.65625-7.976562 5.5625-13.140624l-.234375-.582032c-2.089844-5.164062-7.972657-7.652344-13.136719-5.5625-5.164062 2.09375-7.65625 7.976563-5.5625 13.140625zm0 0"/><path d="m319.40625 206.597656c0-20.410156-11.367188-38.214844-28.097656-47.425781v-27.816406c0-72.429688-58.925782-131.355469-131.355469-131.355469s-131.355469 58.925781-131.355469 131.355469v27.816406c-16.730468 9.210937-28.097656 27.011719-28.097656 47.425781 0 29.832032 24.269531 54.101563 54.101562 54.101563h3.769532c5.03125 26.535156 20.839844 49.300781 42.691406 63.550781.128906.40625.28125.804688.464844 1.199219l-22.65625 22.652343c-19.753906 19.757813-21.617188 51.203126-4.332032 73.152344l59.945313 76.113282c7.324219 9.300781 18.3125 14.632812 30.148437 14.632812 11.835938 0 22.824219-5.332031 30.148438-14.632812l59.941406-76.113282c17.289063-21.949218 15.425782-53.394531-4.328125-73.152344l-25.839843-25.835937.648437-1.109375c.414063-.707031.71875-1.441406.945313-2.191406 1.980468-1.570313 3.894531-3.214844 5.75-4.933594l8.605468 2.863281c4.058594 1.34375 8.203125 2.007813 12.304688 2.007813 7.953125 0 15.757812-2.492188 22.472656-7.339844 10.183594-7.347656 16.027344-18.765625 16.027344-31.320312v-26.21875c16.730468-9.207032 28.097656-27.011719 28.097656-47.425782zm-270.628906-75.242187c0-61.304688 49.875-111.175781 111.175781-111.175781s111.175781 49.871093 111.175781 111.175781v21.460937c-1.914062-.207031-3.855468-.320312-5.824218-.320312h-3.894532c-.074218-.429688-.15625-.867188-.253906-1.308594-4.214844-19.648438-14.714844-36.878906-29.207031-49.957031-17.414063-16.160157-40.722657-26.058594-66.296875-26.058594h-11.4375c-24.765625 0-47.402344 9.28125-64.625 24.542969-15.769532 13.628906-26.972656 32.019531-31.128906 52.78125h-3.859376c-1.96875 0-3.910156.113281-5.824218.320312zm54.175781-16.519531c14.078125-12.09375 32.734375-19.488282 53.191406-19.488282h7.617188c19.820312 0 38.285156 7.054688 52.394531 18.832032 12.535156 10.828124 21.570312 25.585937 25.15625 42.351562-1.191406.371094-3.46875.839844-7.835938 1.214844-.671874.058594-.988281-.003906-1.019531-.011719-31.226562-7.007813-57.128906-7.640625-97.140625 9.832031-8.773437 3.832032-20.972656 6.691406-44.914062-1.183594-3.128906-1.027343-6.105469-1.375-8.796875-1.375-1.578125 0-3.054688.125-4.40625.296876 1.917969-20.019532 11.492187-37.828126 25.753906-50.46875zm-82.277344 91.761718c0-18.703125 15.21875-33.921875 33.925781-33.921875h2.058594v.050781 67.792969h-2.058594c-18.707031.003907-33.925781-15.214843-33.925781-33.921875zm56.199219 37.402344v-58.179688c2.695312-.542968 5.035156-.988281 7.222656-.269531 12.183594 4.007813 22.914063 6.007813 32.785156 6.007813 9.453126 0 18.117188-1.835938 26.511719-5.5 38.707031-16.910156 60.359375-14.085938 84.644531-8.636719 2.234376.5 4.648438.644531 7.164063.425781 2.5625-.21875 5.21875-.503906 7.824219-1v65.636719c0 18.273437-6.378906 35.078125-17.011719 48.332031l-34.75-11.546875c-10.953125-3.640625-22.355469-5.484375-33.894531-5.484375-5.570313 0-10.089844 4.515625-10.089844 10.085938 0 5.574218 4.519531 10.089844 10.089844 10.089844 9.371094 0 18.636718 1.5 27.53125 4.457031l24.214844 8.046875c-12.398438 8.449218-27.363282 13.398437-43.46875 13.398437h-11.433594c-42.15625.003907-76.527344-33.894531-77.339844-75.863281zm116.238281 92.101562-21.1875 36.289063c-2.394531 4.097656-6.328125 4.621094-7.910156 4.65625-1.570313.03125-5.53125-.3125-8.105469-4.304687l-22.539062-34.945313c6.71875 1.464844 13.691406 2.246094 20.84375 2.246094h11.4375c9.53125 0 18.746094-1.378907 27.460937-3.941407zm43.011719 26.273438c12.53125 12.527344 13.710938 32.472656 2.746094 46.394531l-59.941406 76.113281c-3.472657 4.410157-8.683594 6.9375-14.296876 6.9375-5.609374 0-10.820312-2.527343-14.292968-6.9375l-59.945313-76.113281c-10.964843-13.921875-9.78125-33.867187 2.746094-46.394531l19.5-19.5 26.3125 40.804688c5.492187 8.519531 14.738281 13.546874 24.835937 13.546874.226563 0 .449219 0 .675782-.007812 10.359375-.230469 19.660156-5.707031 24.886718-14.652344l24.6875-42.28125zm35.003906-82.132812c0 5.996093-2.789062 11.449218-7.652344 14.957031-4.863281 3.507812-10.914062 4.4375-16.609374 2.542969l-.699219-.230469c7.464843-10.894531 12.78125-23.367188 15.328125-36.8125h3.8125c1.964844 0 3.90625-.109375 5.820312-.316407zm-5.824218-39.71875h-2.097657v-67.847657h2.097657c18.707031 0 33.925781 15.21875 33.925781 33.921875 0 18.707032-15.21875 33.925782-33.925781 33.925782zm0 0"/></svg>