<svg height="511pt" viewBox="-121 1 511 511.99899" width="511pt" xmlns="http://www.w3.org/2000/svg"><path d="m234.007812 177.261719c0-5.550781-4.5-10.050781-10.050781-10.050781h-177.890625c-5.550781 0-10.050781 4.5-10.050781 10.050781v90.429687c0 5.550782 4.5 10.050782 10.050781 10.050782h177.890625c5.550781 0 10.050781-4.5 10.050781-10.050782zm-20.101562 80.378906h-157.789062v-70.328125h157.789062zm0 0"/><path d="m36.015625 339.125c0 5.550781 4.5 10.050781 10.050781 10.050781h41.042969c5.550781 0 10.050781-4.5 10.050781-10.050781v-41.042969c0-5.550781-4.5-10.050781-10.050781-10.050781h-41.042969c-5.550781 0-10.050781 4.5-10.050781 10.050781zm20.101563-30.992188h20.941406v20.941407h-20.941406zm0 0"/><path d="m165.214844 298.082031c0-5.550781-4.5-10.050781-10.050782-10.050781h-41.046874c-5.550782 0-10.050782 4.5-10.050782 10.050781v41.042969c0 5.550781 4.5 10.050781 10.050782 10.050781h41.046874c5.550782 0 10.050782-4.5 10.050782-10.050781zm-20.101563 30.992188h-20.945312v-20.941407h20.945312zm0 0"/><path d="m234.007812 298.082031c0-5.550781-4.5-10.050781-10.050781-10.050781h-41.042969c-5.550781 0-10.050781 4.5-10.050781 10.050781v41.042969c0 5.550781 4.5 10.050781 10.050781 10.050781h41.042969c5.550781 0 10.050781-4.5 10.050781-10.050781zm-20.101562 30.992188h-20.941406v-20.941407h20.941406zm0 0"/><path d="m36.015625 404.789062c0 5.550782 4.5 10.050782 10.050781 10.050782h41.042969c5.550781 0 10.050781-4.5 10.050781-10.050782v-41.046874c0-5.546876-4.5-10.050782-10.050781-10.050782h-41.042969c-5.550781 0-10.050781 4.503906-10.050781 10.050782zm20.101563-30.996093h20.941406v20.945312h-20.941406zm0 0"/><path d="m165.214844 363.742188c0-5.546876-4.5-10.050782-10.050782-10.050782h-41.046874c-5.550782 0-10.050782 4.503906-10.050782 10.050782v41.046874c0 5.550782 4.5 10.050782 10.050782 10.050782h41.046874c5.550782 0 10.050782-4.5 10.050782-10.050782zm-20.101563 30.996093h-20.945312v-20.945312h20.945312zm0 0"/><path d="m234.007812 363.742188c0-5.546876-4.5-10.050782-10.050781-10.050782h-41.042969c-5.550781 0-10.050781 4.503906-10.050781 10.050782v41.046874c0 5.550782 4.5 10.050782 10.050781 10.050782h41.042969c5.550781 0 10.050781-4.5 10.050781-10.050782zm-20.101562 30.996093h-20.941406v-20.945312h20.941406zm0 0"/><path d="m36.015625 470.453125c0 5.550781 4.5 10.050781 10.050781 10.050781h41.042969c5.550781 0 10.050781-4.5 10.050781-10.050781v-41.046875c0-5.546875-4.5-10.050781-10.050781-10.050781h-41.042969c-5.550781 0-10.050781 4.503906-10.050781 10.050781zm20.101563-30.996094h20.941406v20.945313h-20.941406zm0 0"/><path d="m155.164062 419.355469h-41.046874c-5.550782 0-10.050782 4.503906-10.050782 10.050781v41.046875c0 5.550781 4.5 10.050781 10.050782 10.050781h41.046874c5.550782 0 10.050782-4.5 10.050782-10.050781v-41.046875c0-5.546875-4.5-10.050781-10.050782-10.050781zm-10.050781 41.046875h-20.945312v-20.945313h20.945312zm0 0"/><path d="m223.957031 419.355469h-41.042969c-5.550781 0-10.050781 4.503906-10.050781 10.050781v41.046875c0 5.550781 4.5 10.050781 10.050781 10.050781h41.042969c5.550781 0 10.050781-4.5 10.050781-10.050781v-41.046875c0-5.546875-4.5-10.050781-10.050781-10.050781zm-10.050781 41.046875h-20.941406v-20.945313h20.941406zm0 0"/><path d="m258.585938 0c-5.550782 0-10.050782 4.5-10.050782 10.050781v122.765625h-227.808594c-11.085937 0-20.101562 9.019532-20.101562 20.101563v223.515625c0 5.550781 4.5 10.050781 10.050781 10.050781s10.050781-4.5 10.050781-10.050781v-223.515625h227.808594v338.980469h-227.808594v-34.976563c0-5.550781-4.5-10.050781-10.050781-10.050781s-10.050781 4.5-10.050781 10.050781v34.976563c0 11.082031 9.015625 20.101562 20.101562 20.101562h227.808594c11.085938 0 20.101563-9.019531 20.101563-20.101562v-481.847657c0-5.550781-4.5-10.050781-10.050781-10.050781zm0 0"/><path d="m89.234375 232.527344h45.375c5.550781 0 10.050781-4.5 10.050781-10.050782 0-5.550781-4.5-10.050781-10.050781-10.050781h-45.375c-5.550781 0-10.050781 4.5-10.050781 10.050781 0 5.550782 4.5 10.050782 10.050781 10.050782zm0 0"/><path d="m170.808594 226.550781c1.585937 3.910157 5.347656 6.28125 9.320312 6.28125 1.253906 0 2.53125-.238281 3.769532-.738281 5.144531-2.082031 7.628906-7.941406 5.542968-13.085938l-.242187-.605468c-2.082031-5.144532-7.941407-7.625-13.089844-5.542969-5.144531 2.082031-7.625 7.941406-5.542969 13.085937zm0 0"/><path d="m1.480469 420.660156c1.582031 3.910156 5.347656 6.28125 9.320312 6.28125 1.253907 0 2.53125-.238281 3.769531-.738281 5.144532-2.082031 7.625-7.941406 5.542969-13.085937l-.246093-.605469c-2.082032-5.144531-7.941407-7.625-13.085938-5.542969s-7.628906 7.941406-5.542969 13.085938zm0 0"/></svg>