<svg height="511pt" viewBox="0 -92 511.99969 511" width="511pt" xmlns="http://www.w3.org/2000/svg"><path d="m511.933594 29.921875c-.882813-13.171875-16.5625-19.070313-27.300782-21.996094-16.484374-4.484375-34.066406-5.441406-51.070312-4.773437-8.707031.339844-17.417969 1.191406-25.980469 2.835937-7.460937 1.4375-14.972656 3.445313-21.773437 6.902344-5.058594 2.574219-10.097656 6.195313-12.539063 11.488281-1.328125 2.878906-1.476562 5.875-1.476562 8.96875v28.289063 24.738281 18.222656 27.078125c0 14.417969 4.089843 28.5625 12.269531 40.484375 8.761719 12.777344 21.769531 22.40625 36.546875 27.066406 3.652344 1.152344 7.398437 2.003907 11.1875 2.546876v19.222656 24.566406c0 11.210938-2.550781 22.101562-8.207031 31.847656-6.691406 11.523438-17.152344 20.714844-29.460938 25.832032-12.878906 5.359374-27.511718 6.097656-40.871094 2.089843-12.804687-3.84375-24.148437-11.964843-31.976562-22.792969-7.515625-10.394531-11.519531-22.972656-11.542969-35.785156-.007812-5.917968 0-11.832031 0-17.75 0-9.71875 0-19.4375 0-29.15625 0-5.882812.304688-11.894531-.226562-17.761718-1.226563-13.546876-7.535157-26.351563-17.460938-35.644532-9.917969-9.289062-23.089843-14.710937-36.675781-15.050781-13.746094-.347656-27.316406 4.496094-37.742188 13.460937-10.203124 8.769532-17.03125 21.140626-18.914062 34.46875-.871094 6.171876-.546875 12.550782-.546875 18.765626v28.636718 21.191406c0 10.917969-2.609375 21.554688-8.195313 30.984376-6.847656 11.550781-17.625 20.601562-30.210937 25.296874-6.46875 2.414063-13.355469 3.660157-20.261719 3.695313-2.414062.007813-4.832031-.125-7.230468-.40625-1.984376-.230469-3.964844-.753906-5.976563-.507813-3.378906.414063-6.398437 2.585938-7.871094 5.660157-1.527343 3.191406-1.25 7.042969.71875 9.980469 2.277344 3.40625 5.777344 4.273437 9.613281 4.78125 8.003907 1.054687 16.171876.894531 24.125-.492188 13.269532-2.320312 25.84375-8.101562 36.28125-16.613281 10.351563-8.441407 18.519532-19.488281 23.511719-31.882813 3.96875-9.859375 5.691407-20.265625 5.691407-30.863281 0-7.300781 0-14.597656 0-21.898437 0-9.496094 0-18.996094 0-28.496094 0-6.367188-.457032-12.976563 1.203124-19.183594 3.511719-13.132812 14.621094-23.394531 27.996094-25.828125 13.613282-2.476563 27.710938 3.378906 35.613282 14.71875 3.910156 5.617187 6.132812 12.320313 6.347656 19.160156.054687 1.742188.019531 3.488281.019531 5.226563v25.660156 25.753906c0 1.683594-.011719 3.367188.003906 5.054688.074219 6.992187 1.042969 13.972656 2.902344 20.710937 3.570313 12.949219 10.414063 24.917969 19.707031 34.609375 9.269532 9.671875 20.910156 17.003906 33.660156 21.128906 13.285157 4.296876 27.660157 5.070313 41.332032 2.257813 13.214844-2.714844 25.652344-8.792969 35.953125-17.492187 10.210937-8.621094 18.25-19.742188 23.1875-32.164063 4.023437-10.132813 5.699219-20.773437 5.699219-31.636719 0-8.445312 0-16.886718 0-25.328125 0-6.007812 0-12.019531 0-18.027343 9.910156-1.414063 19.476562-4.964844 27.898437-10.371094 8.269531-5.308594 15.386719-12.371094 20.753906-20.601563 5.519531-8.46875 9.140625-18.121093 10.601563-28.121093.804687-5.511719.753906-11.023438.753906-16.570313 0-6.742187 0-13.480469 0-20.222656 0-5.664063 0-11.328125 0-16.996094 0-1.921875 0-3.847656 0-5.773437 0-5.863282 0-11.726563 0-17.589844 0-7.054688 0-14.109375 0-21.164063 0-4.269531 0-8.542969 0-12.8125 0-.546875-.003906-1.085937-.066406-1.628906zm-20.128906 49.675781c-1.769532.484375-3.546876.921875-5.335938 1.320313-1.628906.367187-3.347656.574219-4.921875 1.144531-2.511719.917969-4.589844 2.84375-5.707031 5.273438-2.363282 5.140624.113281 11.382812 5.328125 13.542968 3.503906 1.453125 7.113281.347656 10.636719-.464844v30.441407c-12.5 3.429687-25.550782 4.894531-38.472657 5.480469-13.488281.613281-27.050781.195312-40.449219-1.476563-7.039062-.878906-14.050781-2.125-20.894531-4.003906v-30.441407c3.273438.753907 6.816407 1.925782 10.164063.988282 2.652344-.742188 4.933594-2.585938 6.21875-5.023438 2.6875-5.101562.414062-11.621094-4.859375-13.941406-1.683594-.742188-3.574219-.945312-5.355469-1.335938-2.070312-.449218-4.125-.945312-6.167969-1.503906v-27.738281c12.171875 4.511719 25.414063 6.1875 38.308594 6.898437 13.613281.75 27.390625.285157 40.867187-1.808593 7.003907-1.085938 13.988282-2.621094 20.640626-5.089844zm-49.90625-56.414062c24.320312 0 40.820312 4.402344 47.492187 7.847656-3.820313 1.972656-8.066406 3.167969-12.226563 4.164062-6.738281 1.617188-13.632812 2.566407-20.535156 3.117188-15.875 1.265625-32.269531.765625-47.871094-2.628906-4.871093-1.0625-9.898437-2.347656-14.355468-4.652344 6.671875-3.445312 23.175781-7.847656 47.496094-7.847656zm0 159.109375c-20.351563 0-37.945313-12.039063-45.695313-29.710938 11.601563 2.34375 23.433594 3.539063 35.25 4 12.148437.476563 24.335937.148438 36.433594-1.078125 6.605469-.671875 13.195312-1.605468 19.703125-2.921875-7.75 17.671875-25.34375 29.710938-45.691406 29.710938zm0 0"/><path d="m82.210938 264.015625c-2.304688-8.742187-1.945313-17.65625-1.945313-26.597656 0-9.511719 0-19.027344 0-28.539063 0-2.371094 0-4.738281 0-7.105468 12.792969-1.828126 24.972656-7.230469 34.894531-15.507813 9.824219-8.195313 17.285156-19.066406 21.386719-31.1875 2.300781-6.804687 3.546875-13.96875 3.707031-21.152344.046875-2.015625.019532-4.039062.019532-6.054687 0-8.503906 0-17.003906 0-25.507813 0-5.140625 0-10.28125 0-15.421875 0-5.414062 0-10.828125 0-16.242187 0-9.039063 0-18.078125 0-27.117188 0-3.230469 0-6.457031 0-9.6875 0-2.148437.105468-4.347656-.039063-6.480469-.714844-10.25-10.863281-16.125-19.441406-19.414062-12.707031-4.871094-26.671875-6.558594-40.183594-7.222656-14.308594-.7070315-28.820313-.113282-42.9375 2.40625-6.359375 1.132812-12.695313 2.675781-18.714844 5.046875-4.855469 1.914062-9.6875 4.410156-13.4375 8.109375-3.160156 3.125-5.285156 7.148437-5.441406 11.644531-.0703125 2.054687-.0117188 4.140625-.0117188 6.203125v23.214844 24.679687 9.246094 25.410156c0 6.105469-.1796872 12.246094.0546878 18.351563.519531 13.476562 4.914062 26.699218 12.679687 37.738281 7.3125 10.394531 17.46875 18.691406 29.113281 23.78125 5.78125 2.53125 11.910157 4.265625 18.15625 5.160156v9.46875 19.414063 15.828125c0 7.589843.589844 15.132812 2.5625 22.492187 1.265626 4.707032 5.601563 8.050782 10.539063 7.6875 4.882813-.359375 8.902344-4.304687 9.335937-9.183594.101563-1.160156 0-2.335937-.296874-3.460937zm35.570312-132.550781c-12.378906 3.117187-25.21875 4.460937-37.949219 4.949218-13.09375.496094-26.246093.03125-39.246093-1.625-6.847657-.875-13.664063-2.105468-20.324219-3.933593v-30.445313c12.644531 2.914063 25.65625 4.351563 38.609375 4.882813 13.195312.542969 26.445312.175781 39.574218-1.289063 7.265626-.8125 14.507813-1.953125 21.632813-3.59375v30.445313c-.765625.210937-1.527344.417969-2.296875.609375zm2.296875-51.871094c-12.542969 3.445312-25.644531 4.910156-38.613281 5.488281-13.292969.59375-26.683594.214844-39.894532-1.433593-7.179687-.894532-14.328124-2.136719-21.308593-4.054688v-30.199219c12.171875 4.511719 25.414062 6.1875 38.308593 6.898438 13.609376.75 27.386719.285156 40.867188-1.808594 7-1.085937 13.984375-2.625 20.640625-5.089844zm-49.90625-58.875c24.316406 0 40.820313 4.398438 47.492187 7.847656-3.820312 1.972656-8.066406 3.164063-12.226562 4.164063-6.738281 1.617187-13.632812 2.566406-20.535156 3.117187-15.875 1.265625-32.269532.765625-47.871094-2.628906-4.871094-1.0625-9.898438-2.351562-14.355469-4.652344 6.671875-3.449218 23.175781-7.847656 47.496094-7.847656zm-45.695313 131.863281c11.722657 2.371094 23.683594 3.566407 35.625 4.015625 12.15625.457032 24.351563.113282 36.453126-1.136718 6.472656-.667969 12.929687-1.589844 19.308593-2.878907-6.03125 13.75-18.285156 24.214844-32.800781 28.046875-14.867188 3.925782-31.128906.75-43.34375-8.613281-6.609375-5.070313-11.894531-11.804687-15.242188-19.433594zm0 0"/><path d="m100.058594 295.882812c-1.605469-3.964843-5.671875-6.539062-9.945313-6.292968-4.316406.25-8.078125 3.335937-9.179687 7.511718-1.035156 3.917969.496094 8.460938 3.636718 11.011719 3.671876 2.984375 9.089844 2.988281 12.761719-.011719 3.730469-3.042968 4.46875-7.910156 2.726563-12.21875zm0 0"/><path d="m432.414062 97.15625c1.628907 4.035156 5.113282 6.925781 9.609376 6.921875 4.632812 0 8.757812-3.277344 9.824218-7.777344.910156-3.832031-.617187-8.230469-3.660156-10.726562-3.292969-2.707031-8.050781-3.035157-11.691406-.8125-4.15625 2.542969-5.910156 7.878906-4.082032 12.394531zm0 0"/></svg>