<svg height="512pt" viewBox="-1 0 512 512" width="512pt" xmlns="http://www.w3.org/2000/svg"><path d="m500.230469 37.8125h-115.746094v-27.800781c0-5.527344-4.484375-10.011719-10.011719-10.011719s-10.011718 4.484375-10.011718 10.011719v27.800781h-99.160157v-27.800781c0-5.527344-4.484375-10.011719-10.011719-10.011719-5.53125 0-10.011718 4.484375-10.011718 10.011719v27.800781h-108.902344v-27.800781c0-5.527344-4.480469-10.011719-10.007812-10.011719-5.53125 0-10.011719 4.484375-10.011719 10.011719v27.800781h-106.007813c-5.527344 0-10.011718 4.484375-10.011718 10.011719v304.152343c0 5.527344 4.484374 10.011719 10.011718 10.011719s10.011719-4.484375 10.011719-10.011719v-189.90625h469.859375v329.910157h-469.859375v-29.902344c0-5.527344-4.484375-10.007813-10.011719-10.007813s-10.011718 4.480469-10.011718 10.007813v39.910156c0 5.527344 4.484374 10.011719 10.011718 10.011719h489.882813c5.527343 0 10.011719-4.484375 10.011719-10.011719v-454.164062c0-5.527344-4.484376-10.011719-10.011719-10.011719zm-479.871094 104.234375v-84.210937h469.859375v84.210937zm0 0"/><path d="m1.070312 409.410156c1.574219 3.890625 5.324219 6.253906 9.28125 6.253906 1.25 0 2.519532-.234374 3.75-.734374 5.128907-2.074219 7.597657-7.910157 5.523438-13.035157l-.332031-.824219c-2.074219-5.125-7.914063-7.597656-13.035157-5.523437-5.125 2.074219-7.597656 7.910156-5.523437 13.035156zm0 0"/><path d="m264.234375 95.769531c-2.074219-5.121093-7.914063-7.59375-13.035156-5.519531-5.125 2.074219-7.597657 7.910156-5.523438 13.035156l.332031.824219c1.578126 3.894531 5.328126 6.257813 9.285157 6.257813 1.25 0 2.519531-.234376 3.75-.734376 5.128906-2.074218 7.597656-7.910156 5.523437-13.035156zm0 0"/><path d="m443.835938 89.929688h-149.765626c-5.527343 0-10.007812 4.484374-10.007812 10.011718s4.480469 10.011719 10.007812 10.011719h149.765626c5.527343 0 10.011718-4.484375 10.011718-10.011719s-4.484375-10.011718-10.011718-10.011718zm0 0"/><path d="m216.324219 89.929688h-152.335938c-5.527343 0-10.011719 4.484374-10.011719 10.011718s4.484376 10.011719 10.011719 10.011719h152.335938c5.527343 0 10.007812-4.484375 10.007812-10.011719s-4.480469-10.011718-10.007812-10.011718zm0 0"/><path d="m108.722656 273.816406c21.910156 0 39.738282-17.828125 39.738282-39.738281s-17.828126-39.738281-39.738282-39.738281-39.738281 17.828125-39.738281 39.738281 17.828125 39.738281 39.738281 39.738281zm0-59.453125c10.871094 0 19.714844 8.84375 19.714844 19.714844s-8.84375 19.714844-19.714844 19.714844-19.714844-8.84375-19.714844-19.714844 8.84375-19.714844 19.714844-19.714844zm0 0"/><path d="m208.589844 273.816406c21.910156 0 39.734375-17.828125 39.734375-39.738281s-17.824219-39.738281-39.734375-39.738281-39.738282 17.828125-39.738282 39.738281 17.828126 39.738281 39.738282 39.738281zm0-59.453125c10.871094 0 19.714844 8.84375 19.714844 19.714844s-8.84375 19.714844-19.714844 19.714844-19.714844-8.84375-19.714844-19.714844 8.84375-19.714844 19.714844-19.714844zm0 0"/><path d="m308.453125 273.816406c21.914063 0 39.738281-17.828125 39.738281-39.738281s-17.824218-39.738281-39.738281-39.738281c-21.910156 0-39.734375 17.828125-39.734375 39.738281s17.824219 39.738281 39.734375 39.738281zm0-59.453125c10.875 0 19.71875 8.84375 19.71875 19.714844s-8.84375 19.714844-19.71875 19.714844c-10.871094 0-19.714844-8.84375-19.714844-19.714844s8.84375-19.714844 19.714844-19.714844zm0 0"/><path d="m108.722656 366.800781c21.910156 0 39.738282-17.828125 39.738282-39.738281s-17.828126-39.734375-39.738282-39.734375-39.738281 17.824219-39.738281 39.734375 17.828125 39.738281 39.738281 39.738281zm0-59.453125c10.871094 0 19.714844 8.84375 19.714844 19.714844s-8.84375 19.714844-19.714844 19.714844-19.714844-8.84375-19.714844-19.714844 8.84375-19.714844 19.714844-19.714844zm0 0"/><path d="m208.589844 366.800781c21.910156 0 39.734375-17.828125 39.734375-39.738281s-17.824219-39.734375-39.734375-39.734375-39.738282 17.824219-39.738282 39.734375 17.828126 39.738281 39.738282 39.738281zm0-59.453125c10.871094 0 19.714844 8.84375 19.714844 19.714844s-8.84375 19.714844-19.714844 19.714844-19.714844-8.84375-19.714844-19.714844 8.84375-19.714844 19.714844-19.714844zm0 0"/><path d="m308.453125 366.800781c21.914063 0 39.738281-17.828125 39.738281-39.738281s-17.824218-39.734375-39.738281-39.734375c-21.910156 0-39.734375 17.824219-39.734375 39.734375s17.824219 39.738281 39.734375 39.738281zm0-59.453125c10.875 0 19.71875 8.84375 19.71875 19.714844s-8.84375 19.714844-19.71875 19.714844c-10.871094 0-19.714844-8.84375-19.714844-19.714844s8.84375-19.714844 19.714844-19.714844zm0 0"/><path d="m108.722656 460.789062c21.910156 0 39.738282-17.828124 39.738282-39.738281 0-21.910156-17.828126-39.734375-39.738282-39.734375s-39.738281 17.824219-39.738281 39.734375c0 21.910157 17.828125 39.738281 39.738281 39.738281zm0-59.453124c10.871094 0 19.714844 8.84375 19.714844 19.714843 0 10.871094-8.84375 19.714844-19.714844 19.714844s-19.714844-8.84375-19.714844-19.714844c0-10.871093 8.84375-19.714843 19.714844-19.714843zm0 0"/><path d="m208.589844 460.789062c21.910156 0 39.734375-17.828124 39.734375-39.738281 0-21.910156-17.824219-39.734375-39.734375-39.734375s-39.738282 17.824219-39.738282 39.734375c0 21.910157 17.828126 39.738281 39.738282 39.738281zm0-59.453124c10.871094 0 19.714844 8.84375 19.714844 19.714843 0 10.871094-8.84375 19.714844-19.714844 19.714844s-19.714844-8.84375-19.714844-19.714844c-.003906-10.871093 8.84375-19.714843 19.714844-19.714843zm0 0"/><path d="m308.453125 460.789062c21.914063 0 39.738281-17.828124 39.738281-39.738281 0-21.910156-17.824218-39.734375-39.738281-39.734375-21.910156 0-39.734375 17.824219-39.734375 39.734375 0 21.910157 17.824219 39.738281 39.734375 39.738281zm0-59.453124c10.875 0 19.71875 8.84375 19.71875 19.714843 0 10.871094-8.84375 19.714844-19.71875 19.714844-10.871094 0-19.714844-8.84375-19.714844-19.714844 0-10.871093 8.84375-19.714843 19.714844-19.714843zm0 0"/><path d="m406.414062 273.816406c21.910157 0 39.738282-17.828125 39.738282-39.738281s-17.828125-39.738281-39.738282-39.738281c-21.910156 0-39.738281 17.828125-39.738281 39.738281s17.828125 39.738281 39.738281 39.738281zm0-59.453125c10.871094 0 19.714844 8.84375 19.714844 19.714844s-8.84375 19.714844-19.714844 19.714844c-10.871093 0-19.714843-8.84375-19.714843-19.714844s8.84375-19.714844 19.714843-19.714844zm0 0"/><path d="m406.414062 366.800781c21.910157 0 39.738282-17.828125 39.738282-39.738281s-17.828125-39.734375-39.738282-39.734375c-21.910156 0-39.738281 17.824219-39.738281 39.734375s17.828125 39.738281 39.738281 39.738281zm0-59.453125c10.871094 0 19.714844 8.84375 19.714844 19.714844s-8.84375 19.714844-19.714844 19.714844c-10.871093 0-19.714843-8.84375-19.714843-19.714844s8.84375-19.714844 19.714843-19.714844zm0 0"/><path d="m406.414062 460.789062c21.910157 0 39.738282-17.828124 39.738282-39.738281 0-21.910156-17.828125-39.734375-39.738282-39.734375-21.910156 0-39.738281 17.824219-39.738281 39.734375 0 21.910157 17.828125 39.738281 39.738281 39.738281zm0-59.453124c10.871094 0 19.714844 8.84375 19.714844 19.714843 0 10.871094-8.84375 19.714844-19.714844 19.714844-10.871093 0-19.714843-8.84375-19.714843-19.714844 0-10.871093 8.84375-19.714843 19.714843-19.714843zm0 0"/></svg>