<svg height="512pt" viewBox="0 -20 512 512" width="512pt" xmlns="http://www.w3.org/2000/svg"><path d="m321.804688 129.214844c-17.316407 0-31.40625 14.089844-31.40625 31.40625 0 17.320312 14.089843 31.410156 31.40625 31.410156 17.320312 0 31.410156-14.089844 31.410156-31.410156 0-17.316406-14.089844-31.40625-31.410156-31.40625zm0 42.777344c-6.265626 0-11.367188-5.101563-11.367188-11.371094 0-6.269532 5.101562-11.367188 11.367188-11.367188 6.269531 0 11.371093 5.097656 11.371093 11.367188 0 6.269531-5.101562 11.371094-11.371093 11.371094zm0 0"/><path d="m249.15625 129.214844c-17.316406 0-31.40625 14.089844-31.40625 31.40625 0 17.320312 14.089844 31.410156 31.40625 31.410156 17.320312 0 31.410156-14.089844 31.410156-31.410156 0-17.316406-14.089844-31.40625-31.410156-31.40625zm0 42.777344c-6.269531 0-11.367188-5.101563-11.367188-11.371094 0-6.269532 5.097657-11.367188 11.367188-11.367188s11.371094 5.097656 11.371094 11.367188c0 6.269531-5.101563 11.371094-11.371094 11.371094zm0 0"/><path d="m497.238281 115.28125c-9.105469-4.503906-19.777343-3.476562-27.851562 2.691406l-50.980469 38.910156h-35.507812v-51.1875c0-5.53125-4.488282-10.019531-10.019532-10.019531h-93.320312v-2.070312c0-10.507813-1.730469-20.828125-5.144532-30.675781-1.816406-5.226563-7.523437-7.992188-12.75-6.183594-5.230468 1.8125-7.996093 7.519531-6.183593 12.75 2.679687 7.730468 4.039062 15.839844 4.039062 24.109375v2.070312h-153.710937v-2.070312c0-40.5625 33.003906-73.566407 73.566406-73.566407h6.574219c5.484375 0 10.953125.605469 16.246093 1.796876 5.398438 1.210937 10.761719-2.175782 11.976563-7.574219 1.21875-5.398438-2.171875-10.757813-7.570313-11.976563-6.738281-1.515625-13.6875-2.285156-20.652343-2.285156h-6.574219c-51.613281 0-93.605469 41.992188-93.605469 93.605469v2.070312h-75.75c-5.535156 0-10.019531 4.488281-10.019531 10.019531v355.757813c0 5.53125 4.484375 10.019531 10.019531 10.019531h362.859375c5.53125 0 10.019532-4.488281 10.019532-10.019531v-195.25h35.507812l50.980469 38.914063c4.738281 3.617187 10.371093 5.46875 16.058593 5.46875 4.003907 0 8.03125-.917969 11.792969-2.777344 9.105469-4.507813 14.761719-13.613282 14.761719-23.773438v-144.980468c0-10.160157-5.65625-19.269532-14.761719-23.773438zm-134.378906 140.902344v142.863281h-342.820313v-177.484375h342.820313zm-342.820313-140.46875h342.820313v85.808594h-342.820313zm342.820313 335.714844h-342.820313v-32.34375h342.820313zm20.039063-239.886719v-34.621094h28.875v69.242187h-28.875zm109.0625 72.492187c0 3.632813-2.523438 5.273438-3.609376 5.8125-1.082031.535156-3.917968 1.546875-6.808593-.660156l-49.730469-37.957031v-79.371094l49.730469-37.960937c2.886719-2.203126 5.722656-1.191407 6.808593-.65625 1.085938.535156 3.609376 2.179687 3.609376 5.8125zm0 0"/><path d="m154.480469 385.640625c1.445312.746094 3.019531 1.113281 4.585937 1.113281 2.046875 0 4.085938-.628906 5.816406-1.859375l91.535157-65.242187c2.636719-1.882813 4.203125-4.921875 4.203125-8.160156 0-3.242188-1.566406-6.28125-4.203125-8.160157l-91.535157-65.242187c-3.054687-2.179688-7.070312-2.46875-10.402343-.75-3.335938 1.71875-5.433594 5.15625-5.433594 8.90625v130.488281c0 3.753906 2.097656 7.1875 5.433594 8.90625zm14.605469-119.945313 64.253906 45.796876-64.253906 45.796874zm0 0"/><path d="m50.035156 317.097656c-5.535156 0-10.019531 4.484375-10.019531 10.019532v45.820312c0 5.53125 4.484375 10.019531 10.019531 10.019531h45.816406c5.535157 0 10.019532-4.488281 10.019532-10.019531 0-5.535156-4.484375-10.019531-10.019532-10.019531h-35.796874v-35.800781c0-5.535157-4.488282-10.019532-10.019532-10.019532zm0 0"/><path d="m39.800781 287.828125c1.574219 3.902344 5.328125 6.269531 9.292969 6.269531 1.25 0 2.519531-.234375 3.75-.730468 5.128906-2.074219 7.609375-7.914063 5.535156-13.046876l-.347656-.859374c-2.070312-5.128907-7.910156-7.609376-13.042969-5.535157-5.132812 2.070313-7.609375 7.910157-5.539062 13.042969zm0 0"/><path d="m186.585938 150.601562h-140.496094c-5.535156 0-10.019532 4.488282-10.019532 10.019532 0 5.535156 4.484376 10.019531 10.019532 10.019531h140.496094c5.535156 0 10.019531-4.484375 10.019531-10.019531 0-5.53125-4.484375-10.019532-10.019531-10.019532zm0 0"/><path d="m231.179688 36.375c1.578124 3.898438 5.332031 6.261719 9.292968 6.261719 1.25 0 2.523438-.234375 3.757813-.734375 5.128906-2.078125 7.601562-7.917969 5.523437-13.046875l-.347656-.859375c-2.078125-5.128906-7.917969-7.605469-13.046875-5.527344s-7.601563 7.917969-5.527344 13.046875zm0 0"/></svg>