<svg height="511pt" viewBox="-3 0 511 511.99878" width="511pt" xmlns="http://www.w3.org/2000/svg"><path d="m503.792969 221.410156c-.980469-6.585937-8.304688-10.449218-14.292969-7.535156-2.828125 1.375-4.890625 4.082031-5.464844 7.167969-.332031 1.773437-.027344 3.472656.21875 5.234375.304688 2.183594.578125 4.367187.824219 6.558594 1.84375 16.566406 1.929687 33.328124.242187 49.90625-1.53125 15.078124-4.535156 30.003906-8.96875 44.496093-4.429687 14.46875-10.28125 28.503907-17.441406 41.835938-7.191406 13.378906-15.699218 26.046875-25.351562 37.777343-1.199219 1.457032-2.417969 2.898438-3.652344 4.328126-9.429688-7.382813-19.339844-14.175782-29.617188-20.324219 9.03125-17.289063 16.300782-35.496094 21.605469-54.269531 5.394531-19.085938 8.765625-38.738282 10.09375-58.527344 1.417969-21.105469.523438-42.363282-2.675781-63.273438-2.859375-18.660156-7.402344-37.0625-13.753906-54.84375-6.183594-17.308594-14.074219-34-23.582032-49.730468-1.171874-1.941407-2.371093-3.867188-3.589843-5.78125 8.820312-4.722657 16.375-9.375 24.734375-15.214844 10.722656 10.085937 20.492187 21.179687 29.136718 33.09375 4.40625 6.074218 8.519532 12.363281 12.320313 18.832031 1.902344 3.238281 3.710937 6.527344 5.46875 9.84375 1.40625 2.648437 3.777344 4.609375 6.726563 5.289063 5.875 1.347656 11.726562-2.960938 12.222656-8.945313.265625-3.183594-1.234375-5.746094-2.699219-8.453125-1.792969-3.320312-3.660156-6.597656-5.601563-9.832031-7.601562-12.675781-16.308593-24.675781-25.996093-35.835938-4.722657-5.441406-9.671875-10.679687-14.839844-15.703125-2.585937-2.511718-5.21875-4.964844-7.90625-7.363281-2.242187-2-4.335937-4.160156-6.550781-6.191406-8.9375-8.179688-18.722656-15.417969-28.953125-21.898438-11.046875-6.996093-22.648438-13.117187-34.589844-18.449219-12.25-5.464843-24.875-10.101562-37.75-13.859374-12.789063-3.730469-25.835937-6.601563-39.035156-8.402344-13.894531-1.898438-28.121094-1.566406-42.066407-.320313-13.070312 1.167969-26.042968 3.4375-38.746093 6.738281-12.707031 3.300782-25.140625 7.640626-37.148438 12.957032-11.898437 5.265625-23.371093 11.492187-34.253906 18.625-10.863281 7.125-21.140625 15.148437-30.640625 24.011718-2.355469 2.199219-4.585938 4.535157-6.988281 6.679688-2.421875 2.160156-4.804688 4.367188-7.144531 6.617188-4.574219 4.40625-8.988282 8.988281-13.21875 13.726562-8.402344 9.402344-16.09375 19.433594-23.003907 29.980469-6.894531 10.535156-13.003906 21.582031-18.261719 33.023437-5.253906 11.433594-9.652343 23.261719-13.148437 35.351563-3.5 12.097656-6.09375 24.453125-7.753906 36.9375-1.6875 12.722656-2.40625 25.570312-2.148438 38.398437.261719 13.132813 1.535157 26.246094 3.824219 39.183594 2.253906 12.753906 5.488281 25.332031 9.675781 37.585938 4.195313 12.277343 9.34375 24.230468 15.378907 35.710937 6.070312 11.546875 13.039062 22.617187 20.820312 33.085937 7.800781 10.5 16.417969 20.394532 25.730469 29.582032 9.15625 9.03125 18.996093 17.375 29.414062 24.921875 10.304688 7.464843 21.179688 14.152343 32.5 19.976562 11.242188 5.785157 22.921875 10.714844 34.90625 14.738281 12.101563 4.058594 24.511719 7.195313 37.085938 9.375 13.273437 2.300782 26.730469 3.539063 40.199219 3.730469 7.175781.105469 14.425781.074219 21.550781-.808593 6.644531-.820313 13.253906-1.886719 19.824219-3.175782 13.324218-2.621094 26.464843-6.160156 39.324218-10.523437 12.777344-4.339844 25.28125-9.492188 37.390625-15.449219 11.675781-5.746094 22.992188-12.242188 33.757813-19.550781 10.203125-6.925781 19.925781-14.585938 28.859375-23.089844 9.226562-8.78125 17.589843-18.503906 25.234375-28.679687 7.804687-10.390626 14.804687-21.378907 20.917968-32.847657 6.105469-11.449219 11.324219-23.371093 15.585938-35.625 4.257812-12.226562 7.566406-24.785156 9.894531-37.519531 2.359375-12.917969 3.710938-26.015625 4.046875-39.140625.382813-14.75-.507812-29.539063-2.679687-44.136719zm-185.578125 234.335938c-17.671875 13.886718-36.210938 25.589844-53.921875 35.953125-.203125.011719-.40625.019531-.613281.027343v-29.101562c13.328124-3.488281 24.210937-13.945312 28.230468-27.121094 4.109375-13.460937.691406-28.421875-8.816406-38.785156-5.191406-5.65625-11.980469-9.777344-19.410156-11.722656v-14.363282c37.816406 1.46875 75.847656 11.195313 109.027344 27.875-11.390626 16.878907-25.191407 32-40.425782 45.472657-4.582031 4.050781-9.28125 7.96875-14.070312 11.765625zm79.707031-380.535156c-6.667969 4.441406-13.492187 8.648437-20.578125 12.394531-14.582031-21.179688-34.835938-39.460938-54.890625-54.234375 28.703125 10.019531 55.503906 24.699218 75.46875 41.839844zm-134.402344 25.402343c.074219-3.871093.152344-7.742187.230469-11.613281.148438-7.515625.296875-15.035156.445312-22.554688.097657-5.027343.199219-10.050781.300782-15.078124.078125-3.976563.011718-7.957032.011718-11.933594 0-6.132813 0-12.269532 0-18.402344 0-.121094 0-.238281 0-.359375 13.828126 7.660156 27.429688 15.773437 40.386719 24.84375 13.117188 9.183594 25.605469 19.371094 36.789063 30.851563 6.125 6.28125 11.855468 12.953124 17.066406 20.015624-23.53125 9.890626-48.304688 16.472657-73.664062 19.421876-7.191407.839843-14.414063 1.390624-21.648438 1.660156zm1.460938 36.847657c14.128906-.539063 28.21875-2.078126 42.117187-4.675782 13.898438-2.597656 27.613282-6.246094 40.988282-10.824218 7.519531-2.574219 14.933593-5.460938 22.207031-8.667969 9.371093 14.371093 17.242187 29.703125 23.515625 45.671875 6.425781 16.355468 11.167968 33.359375 14.320312 50.644531 3.492188 19.136719 4.980469 38.613281 4.324219 58.058594-.632813 18.824219-3.234375 37.585937-7.804687 55.859375-4.417969 17.648437-10.679688 34.828125-18.636719 51.191406-1.007813 2.070312-2.042969 4.128906-3.101563 6.175781-36.921875-18.714843-77.8125-29.222656-119.371094-30.679687l-.144531-212.679688c.527344-.019531 1.054688-.054687 1.585938-.074218zm-34.613281-108.835938c4.570312-2.828125 9.238281-5.5 13.984374-8.019531v26.703125c0 1.535156-.105468 3.128906.09375 4.652344-.175781 8.761718-.347656 17.523437-.519531 26.28125-.15625 7.785156-.410156 15.570312-.445312 23.355468-.027344 5.300782-.054688 10.605469-.078125 15.90625-29.714844-1.007812-56.914063-6.628906-85.851563-17.75 7.199219-11.207031 15.441407-21.753906 24.511719-31.503906 9.136719-9.820312 19.132812-18.835938 29.820312-26.9375 5.957032-4.515625 12.128907-8.753906 18.484376-12.6875zm-119.542969 183.5625c12.84375.136719 25.183593-6.074219 32.777343-16.429688 8.03125-10.953124 9.960938-25.605468 5.007813-38.261718-2.90625-7.421875-8.058594-13.898438-14.617187-18.433594 3.664062-7.003906 8.007812-14.425781 12.855468-21.988281 32.605469 12.949219 63.046875 19.398437 96.511719 20.457031l.144531 213.042969c-38.445312 1.300781-75.394531 10.089843-110.105468 26.191406-9.816407-19.898437-17.097657-41.035156-21.675782-62.742187-4.480468-21.238282-6.601562-43.234376-5.496094-64.9375.628907-12.390626 2.332032-24.710938 4.597657-36.898438zm-19.675781-40.109375c0-8.316406 5.339843-15.964844 13.140624-18.847656 7.898438-2.921875 16.992188-.453125 22.375 6.003906 5.390626 6.464844 6.144532 15.890625 1.820313 23.125-4.304687 7.191406-12.859375 11.039063-21.09375 9.433594-9.308594-1.808594-16.242187-10.234375-16.242187-19.714844zm105.265624-144.171875c-17.546874 13.75-33.265624 29.824219-46.535156 47.742188-3.839844 5.183593-7.492187 10.519531-10.910156 15.992187-10.28125-4.976563-20.257812-10.382813-29.855469-16.585937 24.675781-22.058594 54.886719-38.265626 87.300781-47.148438zm-108.097656 374.976562c-3.78125 2.679688-7.511718 5.4375-11.164062 8.296876-7.761719-8.980469-14.84375-18.550782-21.152344-28.609376-6.222656-9.917968-11.695312-20.308593-16.347656-31.054687-4.671875-10.777344-8.515625-21.914063-11.496094-33.273437-2.984375-11.378907-5.101562-22.980469-6.332031-34.675782-1.238281-11.757812-1.589844-23.617187-1.039063-35.429687.53125-11.410157 1.902344-22.777344 4.101563-33.984375 2.191406-11.171875 5.203125-22.179688 9.003906-32.910156 3.773437-10.652344 8.324219-21.03125 13.597656-31.023438 5.3125-10.0625 11.363281-19.738281 18.082031-28.917969 6.777344-9.25 14.230469-18 22.289063-26.152343 1.964844-1.988282 3.964844-3.941407 5.996094-5.855469 10.839843 7.515625 22.621093 13.796875 34.464843 19.566406-4.296874 6.839844-9.003906 14.859375-13.292968 23.28125-14.066406-1.324219-28.035156 5.027344-36.316406 16.46875-8.433594 11.660156-9.941407 27.390625-3.824219 40.433594 3.511719 7.488281 9.351562 13.800781 16.535156 17.898437-2.285156 12.03125-4.050781 24.175782-4.917969 36.398438-.804687 11.394531-.707031 22.835937.039063 34.230468 1.566406 23.976563 6.152343 47.753907 13.617187 70.589844 4.210938 12.898438 9.34375 25.492188 15.355469 37.652344-9.378906 5.171875-18.457031 10.886719-27.199219 17.070312zm2.652344 22.964844c10.773438-8.316406 22.152344-15.800781 34.066406-22.378906 7.273438 12.433594 15.511719 24.324219 24.566406 35.53125 8.78125 10.871094 18.359376 21.097656 28.636719 30.566406 5.804688 5.347656 11.832031 10.457032 18.058594 15.304688-39.492187-9.945313-75.722656-30.140625-105.328125-59.023438zm152.542969 65.878906c-.238281-.007812-.476563-.019531-.710938-.03125-16.183593-9.019531-31.414062-19.71875-45.378906-31.890624-13.789063-12.015626-26.34375-25.441407-37.398437-40.011719-6.167969-8.125-11.867188-16.605469-17.066407-25.382813 31.730469-14.535156 65.46875-22.519531 100.554688-23.796875v14.34375c-13.351563 3.445313-24.269531 13.882813-28.332031 27.054688-4.164063 13.507812-.734376 28.542969 8.828124 38.9375 5.214844 5.667969 12.042969 9.789062 19.503907 11.714843zm10.019531-47.832031c-8.320312 0-15.964844-5.335937-18.847656-13.136719-2.921875-7.898437-.457032-16.992187 6-22.375 6.46875-5.394531 15.894531-6.148437 23.125-1.820312 7.195312 4.304688 11.039062 12.855469 9.4375 21.09375-1.8125 9.308594-10.238282 16.238281-19.714844 16.238281zm136.941406-35.554687c8.832032 5.308594 17.367188 11.132812 25.53125 17.417968-24.460937 22.871094-59.300781 42.191407-96.386718 54.171876 25.433593-18.648438 52.359374-42.882813 70.855468-71.589844zm0 0"/><path d="m372.96875 257.792969c0 10.121093-.570312 20.316406-1.703125 30.296875-.625 5.496094 3.328125 10.457031 8.824219 11.082031.382812.042969.765625.0625 1.140625.0625 5.027343 0 9.363281-3.777344 9.941406-8.890625 1.21875-10.726562 1.832031-21.675781 1.832031-32.550781 0-14.074219-1.03125-28.21875-3.066406-42.03125-.804688-5.476563-5.90625-9.253907-11.371094-8.453125-5.472656.808594-9.257812 5.898437-8.449218 11.371094 1.894531 12.851562 2.851562 26.011718 2.851562 39.113281zm0 0"/><path d="m475.394531 186.71875.359375.890625c1.574219 3.902344 5.328125 6.269531 9.289063 6.269531 1.25 0 2.519531-.238281 3.75-.730468 5.128906-2.074219 7.609375-7.914063 5.535156-13.042969l-.359375-.890625c-2.074219-5.128906-7.914062-7.605469-13.039062-5.535156-5.128907 2.070312-7.609376 7.910156-5.535157 13.039062zm0 0"/><path d="m365.957031 330.640625c1.578125 3.894531 5.328125 6.257813 9.285157 6.257813 1.253906 0 2.527343-.234376 3.757812-.734376 5.128906-2.078124 7.601562-7.917968 5.523438-13.042968l-.359376-.894532c-2.078124-5.128906-7.917968-7.597656-13.042968-5.523437-5.128906 2.078125-7.601563 7.917969-5.527344 13.046875zm0 0"/></svg>