<svg height="512pt" viewBox="-26 0 512 512" width="512pt" xmlns="http://www.w3.org/2000/svg"><path d="m447.871094 411.128906-5.710938-7.472656c-3.375-4.421875-9.695312-5.269531-14.117187-1.890625-4.417969 3.378906-5.265625 9.699219-1.886719 14.117187l5.707031 7.476563c13.910157 18.203125 11.429688 43.800781-5.640625 58.28125-.398437.339844-.804687.667969-1.210937.988281-9 7.097656-20.226563 10.265625-31.613281 8.921875-11.382813-1.347656-21.5625-7.042969-28.617188-15.992187l-94.679688-121.777344c25.976563-13.015625 48.511719-31.90625 65.855469-54.929688l41.207031 52.914063 2.457032 3.214844c1.984375 2.59375 4.976562 3.957031 8.007812 3.957031 2.132813 0 4.285156-.675781 6.109375-2.070312 4.417969-3.378907 5.265625-9.699219 1.886719-14.121094l-2.511719-3.285156-45.371093-58.261719c16.332031-27.730469 25.71875-60.023438 25.71875-94.46875 0-102.964844-83.769532-186.730469-186.730469-186.730469-102.964844 0-186.730469 83.765625-186.730469 186.730469 0 60.65625 29.640625 117.757812 79.289062 152.742187 6.855469 4.828125 14.097657 9.234375 21.53125 13.089844 10.636719 5.523438 21.851563 10.027344 33.339844 13.390625 17.003906 4.980469 34.691406 7.507813 52.570313 7.507813 22.578125 0 44.238281-4.03125 64.289062-11.40625l97.902344 125.921874c10.429687 13.226563 25.386719 21.601563 42.113281 23.578126 2.519532.296874 5.03125.445312 7.527344.445312 14.09375 0 27.6875-4.691406 38.929688-13.558594.597656-.472656 1.1875-.953125 1.761718-1.441406 25.253906-21.417969 29.039063-59.136719 8.617188-85.871094zm-308.050782-64.503906c-10.238281-3-20.238281-7.015625-29.722656-11.9375-6.628906-3.441406-13.089844-7.371094-19.207031-11.683594-44.300781-31.214844-70.746094-82.160156-70.746094-136.273437 0-91.855469 74.726563-166.585938 166.585938-166.585938 91.855469 0 166.585937 74.730469 166.585937 166.585938s-74.730468 166.585937-166.585937 166.585937c-15.960938 0-31.746094-2.25-46.910157-6.691406zm0 0"/><path d="m186.78125 51.046875c-16.824219 0-33.242188 3.058594-48.800781 9.09375-5.183594 2.011719-7.757813 7.84375-5.746094 13.03125s7.847656 7.757813 13.03125 5.746094c13.222656-5.128907 27.191406-7.726563 41.515625-7.726563 63.324219 0 114.84375 51.515625 114.84375 114.84375 0 63.324219-51.519531 114.84375-114.84375 114.84375-63.328125 0-114.84375-51.519531-114.84375-114.84375 0-21.140625 5.789062-41.800781 16.742188-59.746094 2.898437-4.746093 1.398437-10.945312-3.351563-13.84375-4.75-2.898437-10.945313-1.398437-13.84375 3.351563-12.882813 21.101563-19.691406 45.390625-19.691406 70.238281 0 74.429688 60.554687 134.988282 134.988281 134.988282s134.988281-60.554688 134.988281-134.988282-60.554687-134.988281-134.988281-134.988281zm0 0"/><path d="m402.058594 385.722656c1.585937 3.917969 5.359375 6.292969 9.339844 6.292969 1.257812 0 2.539062-.238281 3.773437-.738281 5.15625-2.085938 7.644531-7.957032 5.558594-13.113282l-.363281-.902343c-2.089844-5.15625-7.960938-7.640625-13.117188-5.558594-5.15625 2.085937-7.644531 7.960937-5.554688 13.113281zm0 0"/><path d="m97.320312 93.960938c1.585938 3.917968 5.355469 6.296874 9.339844 6.296874 1.257813 0 2.535156-.238281 3.773438-.738281 5.15625-2.085937 7.644531-7.960937 5.558594-13.113281l-.367188-.90625c-2.085938-5.15625-7.960938-7.640625-13.113281-5.554688-5.15625 2.085938-7.644531 7.957032-5.558594 13.113282zm0 0"/><path d="m100.1875 171.789062c1.722656 2.386719 4.472656 3.9375 7.40625 4.179688 3.722656.3125 6.640625 3.488281 6.640625 7.230469v.378906c0 3.929687-3.074219 7.117187-6.984375 7.253906-3 .097657-5.785156 1.503907-7.644531 3.859375-1.820313 2.304688-2.5625 5.371094-1.996094 8.253906 3.5625 18.210938 12.507813 34.714844 25.9375 47.796876 2.207031 2.113281 5.210937 3.109374 8.253906 2.742187 2.957031-.359375 5.667969-2.054687 7.289063-4.550781 2.105468-3.226563 6.367187-4.246094 9.714844-2.3125l.238281.136718c1.703125.984376 2.921875 2.570313 3.429687 4.46875.503906 1.882813.25 3.847657-.710937 5.542969-.019531.027344-.035157.058594-.050781.089844-1.515626 2.636719-1.773438 5.785156-.703126 8.632813 1.050782 2.804687 3.355469 5.054687 6.183594 6.035156 9.625 3.34375 19.699219 5.039062 29.949219 5.039062 8.53125 0 16.984375-1.183594 25.0625-3.496094 3.03125-.84375 5.460937-2.992187 6.664063-5.898437 1.1875-2.867187.980468-6.210937-.550782-8.910156-1.957031-3.457031-.753906-7.882813 2.691406-9.871094l.242188-.140625c1.699219-.984375 3.679688-1.242188 5.578125-.734375s3.488281 1.726563 4.46875 3.429687l.3125.535157c1.519531 2.652343 4.121094 4.460937 7.136719 4.96875 2.972656.496093 6.097656-.386719 8.371094-2.371094 14.414062-12.582031 24.363281-29.019531 28.765624-47.507813.738282-3.046874.050782-6.210937-1.890624-8.679687-1.910157-2.425781-4.902344-3.878906-7.992188-3.878906-4.058594 0-7.359375-3.300781-7.359375-7.359375v-.183594c0-4.058594 3.300781-7.359375 7.359375-7.359375h.550781c3.050781 0 5.914063-1.351563 7.855469-3.710937 1.929688-2.347657 2.71875-5.523438 2.109375-8.503907-3.800781-18.511719-13.140625-35.160156-26.933594-48.085937-2.222656-2.125-5.246093-3.121094-8.296875-2.738282-3.03125.382813-5.796875 2.167969-7.394531 4.773438-.546875.894531-1.257813 1.636719-2.117187 2.214844-.128907.089844-.257813.179687-.382813.273437-.039063.027344-3.785156 2.734375-8.179687-.503906-.679688-.503906-.535157-.527344-1.117188-.757813-.617188-.542968-2.035156-2.242187-1.925781-6.3125.007812-.292968.113281-1.125.925781-2.535156.015625-.027344.042969-.074218.058594-.101562 1.484375-2.628906 1.714844-5.785156.621094-8.601563-1.09375-2.8125-3.390626-4.988281-6.257813-5.929687-9.148437-2.988282-18.695313-4.507813-28.375-4.507813-8.882813 0-17.675781 1.28125-26.089844 3.796875-2.886719.84375-5.234375 2.90625-6.445312 5.660156-1.195313 2.710938-1.132813 5.894532.167969 8.558594 1.664062 3.40625.390624 7.558594-2.910157 9.464844l-.3125.183594c-3.382812 1.949218-7.667969.898437-9.804687-2.472656-1.613282-2.492188-4.226563-4.152344-7.167969-4.550782-2.914063-.394531-5.9375.527344-8.136719 2.484375-13.824218 12.328125-23.464844 28.300781-27.890625 46.242188-.699219 2.894531-.101562 5.933593 1.636719 8.339843zm22.019531 66.164063c-.011719.015625-.019531.027344-.03125.042969.015625-.019532.027344-.039063.039063-.058594 0 .003906-.003906.007812-.007813.015625zm-1.371093-78.351563c2.953124-7.625 7.203124-14.667968 12.585937-20.855468 8.324219 5.1875 19.125 5.679687 28.210937.441406l.3125-.183594c8.734376-5.042968 13.699219-14.304687 13.683594-23.84375 8.046875-1.3125 16.394532-1.230468 24.398438.238282-.335938 15.125 8.507812 21.992187 11.644531 23.945312 12.007813 8.558594 24.511719 4.777344 30.519531.984375 5.242188 6.382813 9.292969 13.570313 12.015625 21.300781-9.28125 4.421875-15.707031 13.894532-15.707031 24.839844v.1875c0 10.632812 6.066406 19.878906 14.921875 24.449219-2.976563 7.683593-7.265625 14.757812-12.714844 20.976562-2.59375-1.8125-5.515625-3.179687-8.664062-4.023437-7.089844-1.902344-14.503907-.925782-20.875 2.75l-.238281.140625c-9.058594 5.226562-14.007813 14.941406-13.667969 24.753906-8.101563 1.15625-16.453125.910156-24.445313-.726563.199219-2.976562-.09375-5.996093-.886718-8.964843-1.902344-7.09375-6.453126-13.027344-12.820313-16.703125l-.238281-.136719c-8.828125-5.097656-19.363282-4.742187-27.613282.113281-5.070312-6.425781-8.972656-13.640625-11.558593-21.402344 8.769531-4.566406 14.679687-13.71875 14.679687-24.304687v-.378906c0-9.921875-5.433594-18.789063-13.542968-23.597657zm0 0"/><path d="m187.882812 219.847656c19.753907 0 35.828126-16.070312 35.828126-35.824218 0-12.335938-6.546876-24.027344-17.089844-30.539063-.058594-.039063-.121094-.074219-.179688-.109375-5.613281-3.386719-12.027344-5.179688-18.558594-5.179688-7.339843 0-14.398437 2.207032-20.410156 6.378907-1.628906 1.128906-3.175781 2.40625-4.597656 3.792969-6.976562 6.800781-10.820312 15.914062-10.820312 25.65625.003906 19.753906 16.074218 35.824218 35.828124 35.824218zm-10.941406-47.058594c.621094-.609374 1.300782-1.167968 2.015625-1.664062 2.625-1.824219 5.710938-2.785156 8.925781-2.785156 2.832032 0 5.621094.769531 8.074219 2.230468.011719.011719.023438.019532.039063.023438 4.671875 2.867188 7.570312 8.011719 7.570312 13.429688 0 8.648437-7.035156 15.683593-15.683594 15.683593-8.648437 0-15.683593-7.035156-15.683593-15.683593 0-4.265626 1.683593-8.253907 4.742187-11.234376zm0 0"/></svg>