<svg height="512pt" viewBox="-26 0 512 512" width="512pt" xmlns="http://www.w3.org/2000/svg"><path d="m447.871094 411.128906-5.710938-7.472656c-3.375-4.421875-9.695312-5.269531-14.117187-1.890625-4.417969 3.378906-5.265625 9.699219-1.886719 14.117187l5.707031 7.476563c13.910157 18.203125 11.429688 43.800781-5.640625 58.28125-.398437.339844-.804687.667969-1.210937.988281-9 7.097656-20.226563 10.269532-31.613281 8.921875-11.382813-1.347656-21.5625-7.042969-28.621094-15.996093l-94.726563-121.75c25.996094-13.015626 48.550781-31.917969 65.902344-54.953126l41.210937 52.914063 2.457032 3.214844c1.980468 2.59375 4.976562 3.957031 8.007812 3.957031 2.132813 0 4.285156-.675781 6.109375-2.070312 4.417969-3.378907 5.261719-9.699219 1.886719-14.121094l-2.511719-3.285156-45.375-58.261719c16.335938-27.730469 25.722657-60.023438 25.722657-94.46875 0-102.964844-83.769532-186.730469-186.730469-186.730469-102.964844 0-186.730469 83.765625-186.730469 186.730469 0 60.65625 29.640625 117.757812 79.289062 152.742187 6.855469 4.828125 14.097657 9.234375 21.53125 13.089844 10.636719 5.523438 21.851563 10.027344 33.339844 13.390625 17.003906 4.980469 34.691406 7.507813 52.570313 7.507813 22.558593 0 44.195312-4.023438 64.234375-11.386719l97.957031 125.902343c10.429687 13.226563 25.386719 21.601563 42.113281 23.578126 2.519532.296874 5.03125.445312 7.527344.445312 14.09375 0 27.6875-4.691406 38.929688-13.558594.597656-.472656 1.1875-.953125 1.761718-1.441406 25.253906-21.417969 29.039063-59.136719 8.617188-85.871094zm-308.050782-64.503906c-10.238281-3-20.238281-7.015625-29.722656-11.9375-6.628906-3.441406-13.089844-7.371094-19.207031-11.683594-44.300781-31.214844-70.746094-82.160156-70.746094-136.273437 0-91.855469 74.726563-166.585938 166.585938-166.585938 91.855469 0 166.585937 74.730469 166.585937 166.585938s-74.730468 166.585937-166.585937 166.585937c-15.960938 0-31.746094-2.25-46.910157-6.691406zm0 0"/><path d="m186.78125 51.046875c-16.824219 0-33.242188 3.058594-48.800781 9.09375-5.183594 2.011719-7.757813 7.84375-5.746094 13.03125s7.847656 7.757813 13.03125 5.746094c13.222656-5.128907 27.191406-7.726563 41.515625-7.726563 63.324219 0 114.84375 51.515625 114.84375 114.84375 0 63.324219-51.519531 114.84375-114.84375 114.84375-63.328125 0-114.84375-51.519531-114.84375-114.84375 0-21.140625 5.789062-41.800781 16.742188-59.746094 2.898437-4.746093 1.398437-10.945312-3.351563-13.84375-4.75-2.898437-10.945313-1.398437-13.84375 3.351563-12.882813 21.101563-19.691406 45.390625-19.691406 70.238281 0 74.429688 60.554687 134.988282 134.988281 134.988282s134.988281-60.554688 134.988281-134.988282-60.554687-134.988281-134.988281-134.988281zm0 0"/><path d="m402.058594 385.722656c1.585937 3.917969 5.359375 6.292969 9.339844 6.292969 1.257812 0 2.539062-.238281 3.773437-.738281 5.15625-2.085938 7.644531-7.957032 5.558594-13.113282l-.363281-.902343c-2.089844-5.15625-7.960938-7.640625-13.117188-5.558594-5.15625 2.085937-7.644531 7.960937-5.554688 13.113281zm0 0"/><path d="m97.320312 93.960938c1.585938 3.917968 5.355469 6.296874 9.339844 6.296874 1.257813 0 2.535156-.238281 3.773438-.738281 5.15625-2.085937 7.644531-7.960937 5.558594-13.113281l-.367188-.90625c-2.085938-5.15625-7.960938-7.640625-13.113281-5.554688-5.15625 2.085938-7.644531 7.957032-5.558594 13.113282zm0 0"/><path d="m275.753906 155.320312c-1.5625-3.761718-5.234375-6.214843-9.308594-6.214843h-49.824218l-23.273438-50.421875c-1.644531-3.566406-5.214844-5.851563-9.140625-5.851563-3.929687 0-7.5 2.285157-9.148437 5.851563l-23.269532 50.421875h-45.5c-4.070312 0-7.746093 2.453125-9.304687 6.214843-1.558594 3.765626-.695313 8.097657 2.183594 10.976563l35.078125 35.078125-11.894532 55.238281c-.863281 4.023438.804688 8.171875 4.21875 10.472657 1.703126 1.144531 3.664063 1.71875 5.628907 1.71875 1.976562 0 3.957031-.582032 5.664062-1.742188l46.332031-31.523438 46.21875 31.515626c3.296876 2.246093 7.609376 2.335937 10.996094.230468 3.386719-2.109375 5.210938-6.019531 4.648438-9.964844l-7.890625-55.621093 35.398437-35.402344c2.882813-2.878906 3.742188-7.210937 2.1875-10.976563zm-55.386718 35.691407c-2.238282 2.238281-3.292969 5.398437-2.847657 8.535156l5.390625 38.011719-33.03125-22.523438c-1.710937-1.167968-3.695312-1.75-5.675781-1.75-1.976563 0-3.957031.582032-5.664063 1.742188l-31.199218 21.222656 7.75-35.996094c.71875-3.34375-.304688-6.824218-2.722656-9.242187l-21.765626-21.765625h27.628907c3.929687 0 7.5-2.285156 9.144531-5.851563l16.828125-36.457031 16.828125 36.457031c1.644531 3.566407 5.214844 5.851563 9.144531 5.851563h31.953125zm0 0"/></svg>