<svg height="511pt" viewBox="-25 1 511 511.99899" width="511pt" xmlns="http://www.w3.org/2000/svg"><path d="m448.402344 411.15625-5.710938-7.472656c-3.375-4.417969-9.695312-5.269532-14.117187-1.890625-4.421875 3.378906-5.265625 9.699219-1.890625 14.117187l5.710937 7.476563c13.910157 18.203125 11.429688 43.808593-5.636719 58.28125-.398437.339843-.808593.671875-1.21875.996093-18.582031 14.65625-45.625 11.457032-60.234374-7.074218l-94.714844-121.769532c25.988281-13.015624 48.539062-31.914062 65.886718-54.949218l41.214844 52.917968 2.457032 3.214844c1.980468 2.59375 4.976562 3.957032 8.007812 3.957032 2.132812 0 4.285156-.675782 6.109375-2.070313 4.417969-3.378906 5.265625-9.699219 1.886719-14.121094l-2.511719-3.285156-45.375-58.265625c16.332031-27.734375 25.722656-60.027344 25.722656-94.476562-.003906-102.96875-83.777343-186.742188-186.746093-186.742188s-186.742188 83.773438-186.742188 186.742188c0 60.664062 29.640625 117.765624 79.292969 152.753906 6.859375 4.832031 14.105469 9.238281 21.535156 13.09375 10.632813 5.519531 21.851563 10.027344 33.339844 13.390625 17.007812 4.980469 34.695312 7.503906 52.574219 7.503906 22.566406 0 44.214843-4.023437 64.257812-11.390625l97.945312 125.917969c12.429688 15.757812 30.917969 23.988281 49.585938 23.988281 13.671875-.003906 27.445312-4.417969 38.992188-13.523438.59375-.472656 1.179687-.949218 1.761718-1.441406 25.257813-21.421875 29.042969-59.144531 8.617188-85.878906zm-308.070313-64.507812c-10.242187-3-20.242187-7.015626-29.726562-11.941407-6.625-3.4375-13.089844-7.367187-19.210938-11.679687-44.300781-31.21875-70.75-82.164063-70.75-136.285156 0-91.863282 74.734375-166.597657 166.597657-166.597657 91.863281 0 166.597656 74.734375 166.597656 166.597657 0 68.820312-41.945313 128.023437-101.609375 153.398437-.84375.21875-1.667969.558594-2.449219 1.007813-19.320312 7.855468-40.429688 12.195312-62.539062 12.195312-15.960938 0-31.746094-2.253906-46.910157-6.695312zm0 0"/><path d="m322.289062 186.046875c0-74.4375-60.558593-134.996094-134.996093-134.996094-16.824219 0-33.246094 3.058594-48.800781 9.09375-5.1875 2.011719-7.761719 7.847657-5.75 13.03125 2.011718 5.1875 7.851562 7.757813 13.03125 5.75 13.226562-5.128906 27.195312-7.730469 41.519531-7.730469 63.332031 0 114.851562 51.523438 114.851562 114.851563 0 63.332031-51.519531 114.851563-114.851562 114.851563-63.328125 0-114.851563-51.519532-114.851563-114.851563 0-21.140625 5.789063-41.800781 16.742188-59.746094 2.898437-4.75 1.398437-10.949219-3.347656-13.84375-4.75-2.902343-10.949219-1.402343-13.847657 3.347657-12.882812 21.105468-19.691406 45.394531-19.691406 70.242187 0 74.4375 60.558594 134.996094 134.996094 134.996094s134.996093-60.558594 134.996093-134.996094zm0 0"/><path d="m402.585938 385.746094c1.585937 3.921875 5.359374 6.296875 9.339843 6.296875 1.257813 0 2.539063-.238281 3.777344-.738281 5.15625-2.085938 7.644531-7.957032 5.558594-13.113282l-.367188-.902344c-2.085937-5.160156-7.960937-7.644531-13.113281-5.558593-5.15625 2.085937-7.644531 7.957031-5.558594 13.113281zm0 0"/><path d="m97.824219 93.957031c1.582031 3.925781 5.355469 6.308594 9.339843 6.308594 1.257813 0 2.53125-.238281 3.765626-.738281 5.160156-2.082032 7.65625-7.949219 5.570312-13.109375l-.363281-.902344c-2.085938-5.160156-7.957031-7.652344-13.109375-5.570313-5.160156 2.082032-7.65625 7.953126-5.570313 13.109376zm0 0"/><path d="m124.261719 248.847656c16.507812 16.507813 38.457031 25.597656 61.800781 25.597656s45.292969-9.089843 61.796875-25.597656c16.507813-16.507812 25.601563-38.457031 25.601563-61.800781s-9.09375-45.292969-25.601563-61.800781c-16.503906-16.503906-38.453125-25.597656-61.796875-25.597656-23.347656 0-45.292969 9.09375-61.800781 25.597656-34.078125 34.078125-34.078125 89.523437 0 123.601562zm109.355469-14.242187c-12.703126 12.703125-29.589844 19.699219-47.554688 19.699219-14.5625 0-28.417969-4.597657-39.910156-13.105469l94.0625-94.058594c8.503906 11.492187 13.101562 25.347656 13.101562 39.90625 0 17.964844-6.996094 34.855469-19.699218 47.558594zm-95.109376-95.113281c12.699219-12.703126 29.589844-19.699219 47.554688-19.699219 14.558594 0 28.414062 4.597656 39.90625 13.101562l-94.054688 94.054688c-19.40625-26.300781-17.210937-63.65625 6.59375-87.457031zm0 0"/></svg>