<svg height="512pt" viewBox="0 0 512.001 512" width="512pt" xmlns="http://www.w3.org/2000/svg"><path d="m437.019531 74.980469c-48.351562-48.351563-112.640625-74.980469-181.019531-74.980469s-132.667969 26.628906-181.019531 74.980469c-48.351563 48.351562-74.980469 112.640625-74.980469 181.019531s26.628906 132.667969 74.980469 181.019531c48.351562 48.351563 112.640625 74.980469 181.019531 74.980469s132.667969-26.628906 181.019531-74.980469c48.351563-48.351562 74.980469-112.636719 74.980469-181.019531s-26.628906-132.667969-74.980469-181.019531zm-14.199219 347.839843c-44.558593 44.5625-103.804687 69.101563-166.820312 69.101563s-122.261719-24.539063-166.820312-69.101563c-44.558594-44.558593-69.101563-103.804687-69.101563-166.820312s24.542969-122.261719 69.101563-166.820312c44.558593-44.558594 103.804687-69.097657 166.820312-69.097657s122.261719 24.539063 166.820312 69.097657c44.558594 44.558593 69.101563 103.804687 69.101563 166.820312s-24.542969 122.261719-69.101563 166.820312zm0 0"/><path d="m459.90625 256.507812c-.46875-23.546874-4.136719-46.8125-10.890625-69.152343-1.605469-5.308594-7.210937-8.308594-12.519531-6.703125-5.304688 1.605468-8.304688 7.210937-6.699219 12.515625 6.222656 20.582031 9.601563 42.027343 10.035156 63.742187.207031 10.253906-.253906 20.585938-1.363281 30.710938-1.230469 11.234375-3.289062 22.460937-6.117188 33.371094-1.394531 5.367187 1.828126 10.847656 7.195313 12.238281.847656.21875 1.695313.324219 2.53125.324219 4.460937 0 8.539063-3 9.710937-7.519532 3.070313-11.84375 5.304688-24.035156 6.640626-36.230468 1.203124-10.976563 1.699218-22.179688 1.476562-33.296876zm0 0"/><path d="m280.28125 322.617188c-9.054688-11.546876-24.433594-15.453126-37.519531-9.847657-6.476563-15.40625-10.070313-31.71875-10.691407-48.527343-.621093-16.785157 1.757813-33.296876 7.070313-49.128907 13.441406 4.632813 28.5-.390625 36.6875-12.582031l35.40625-52.742188c5.871094-8.742187 5.527344-20.226562-.835937-28.605468-2.046876-2.757813-4.4375-5.414063-7.113282-7.898438-23.941406-22.234375-60.996094-21.824218-84.359375.9375-.042969.039063-.082031.082032-.125.121094-.691406.699219-1.386719 1.402344-2.074219 2.140625-.660156.714844-1.28125 1.425781-1.914062 2.152344-4.597656 5.082031-6.964844 8.300781-10.539062 13.160156l-.75 1.019531c-.855469 1.15625-21.101563 28.542969-28.089844 49.074219-4.769532 14.011719-8.28125 28.457031-10.433594 42.941406-.816406 5.484375 2.96875 10.589844 8.453125 11.40625 5.484375.816407 10.589844-2.96875 11.40625-8.453125 1.976563-13.289062 5.199219-26.554687 9.582031-39.421875 5.972656-17.546875 25.011719-43.316406 25.226563-43.609375l.78125-1.0625c3.453125-4.695312 5.359375-7.285156 9.3125-11.652344.042969-.046874.101562-.113281.144531-.164062.5-.570312.996094-1.148438 1.539062-1.730469.515626-.554687 1.03125-1.078125 1.550782-1.601562 15.695312-15.222657 40.550781-15.46875 56.621094-.542969 1.785156 1.65625 3.355468 3.398438 4.675781 5.183594.035156.046875.066406.089844.101562.136718 1.183594 1.542969 1.25 3.664063.167969 5.277344l-35.410156 52.742188c-3.199219 4.769531-9.40625 6.667968-14.4375 4.40625l-.265625-.121094c-4.34375-1.988281-9.351563-2.070312-13.742188-.230469-4.367187 1.832031-7.796875 5.445313-9.410156 9.910157-6.921875 19.167968-10.046875 39.25-9.292969 59.679687.757813 20.453125 5.359375 40.265625 13.683594 58.882813 1.9375 4.332031 5.621094 7.683593 10.113281 9.1875 4.507813 1.511718 9.496094 1.0625 13.660157-1.226563l.285156-.15625c4.851562-2.621094 11.1875-1.191406 14.734375 3.335937l36.042969 45.945313c1.847656 2.359375 2.9375 7.355469 2.460937 10.695313-1.042969 1.476562-2.203125 2.898437-3.457031 4.253906-7.488282 8.058594-17.65625 12.71875-28.644532 13.125-10.988281.390625-21.476562-3.492188-29.542968-10.980469-.574219-.535156-1.117188-1.074219-1.660156-1.609375-.046876-.050781-.097657-.097656-.144532-.144531-26.683594-25.425781-44.902344-58.199219-52.679687-94.773438-1.152344-5.421875-6.488281-8.886719-11.910157-7.730469-5.421874 1.152344-8.882812 6.484376-7.730468 11.90625 8.617187 40.519532 28.808594 76.847657 58.394531 105.066407.679687.671875 1.359375 1.339843 2.074219 2.003906 11.421875 10.605469 26.125 16.371094 41.621094 16.371094.773437 0 1.546874-.015625 2.320312-.042969 16.347656-.605469 31.480469-7.539062 42.613281-19.527344 2.433594-2.621094 4.632813-5.4375 6.53125-8.375.503907-.78125.898438-1.628906 1.171875-2.519531 2.871094-9.417969.457032-22.363281-5.617187-30.109375zm0 0"/><path d="m427.738281 145.847656c-2.183593-5.09375-8.085937-7.457031-13.183593-5.273437-5.09375 2.1875-7.457032 8.089843-5.269532 13.1875l.253906.597656c1.632813 3.804687 5.335938 6.085937 9.234376 6.085937 1.316406 0 2.660156-.261718 3.949218-.816406 5.097656-2.183594 7.457032-8.085937 5.273438-13.183594zm0 0"/><path d="m174.570312 274.640625c5.140626-2.082031 7.621094-7.933594 5.539063-13.074219l-.246094-.601562c-2.078125-5.140625-7.929687-7.617188-13.074219-5.539063-5.136718 2.082031-7.617187 7.933594-5.535156 13.074219l.242188.601562c1.582031 3.90625 5.339844 6.277344 9.308594 6.277344 1.253906 0 2.53125-.238281 3.765624-.738281zm0 0"/></svg>