<svg height="512pt" viewBox="-56 0 512 512.00053" width="512pt" xmlns="http://www.w3.org/2000/svg"><path d="m260.734375 415.175781-52.371094-50.210937c-.074219-.078125-.140625-.160156-.21875-.238282-.1875-.1875-.382812-.355468-.578125-.523437l-14.015625-13.4375c-15.890625-15.234375-40.101562-16.875-57.554687-3.90625l-.402344.300781c-.355469.265625-.695312.273438-.917969.234375-.398437-.074219-.554687-.324219-.613281-.417969-15.519531-24.644531-26.015625-51.730468-31.203125-80.507812-5.183594-28.78125-4.792969-57.84375 1.167969-86.367188.019531-.097656.074218-.355468.382812-.539062.246094-.148438.523438-.179688.828125-.085938l.464844.136719c20.953125 6.125 43.144531-3.886719 52.761719-23.804687l43.972656-91.050782c6.195312-12.828124 3.542969-28.148437-6.59375-38.152343-3.597656-3.644531-7.691406-7.070313-12.171875-10.179688-40.128906-27.878906-94.902344-19.46875-124.695313 19.144531-.035156.046876-.066406.089844-.101562.136719-.820312 1.101563-1.746094 2.347657-2.675781 3.6875-.878907 1.261719-1.664063 2.472657-2.464844 3.707031-5.964844 8.828126-8.921875 14.339844-13.390625 22.664063l-.953125 1.773437c-1.074219 1.980469-26.410156 48.882813-32.652344 81.910157-12.234375 64.746093-7.75 130.238281 12.972657 189.398437 21.984374 62.769532 61.777343 116.070313 115.089843 154.148438 1.027344.761718 2.285157 1.695312 3.609375 2.613281 15.503906 10.769531 33.570313 16.390625 52.089844 16.390625 5.136719 0 10.308594-.433594 15.46875-1.308594 23.726562-4.023437 44.585938-16.945312 58.730469-36.386718.859375-1.183594 1.695312-2.484376 2.550781-3.976563l.230469-.398437c8.785156-15.308594 8.152343-34.402344-1.613281-48.644532-1.574219-2.296875-3.300782-4.355468-5.132813-6.109375zm-10.75 44.710938-.230469.402343c-.488281.851563-.933594 1.554688-1.367187 2.148438-11.027344 15.15625-27.289063 25.230469-45.789063 28.367188-18.527344 3.144531-37.238281-1.03125-52.679687-11.757813-1.085938-.753906-2.183594-1.570313-3.152344-2.292969-.050781-.039062-.105469-.078125-.160156-.117187-49.945313-35.648438-87.242188-85.601563-107.855469-144.457031-19.550781-55.820313-23.765625-117.710938-12.1875-178.984376 5.652344-29.90625 30.308594-75.570312 30.578125-76.066406l.976563-1.820312c4.339843-8.082032 6.960937-12.964844 12.386718-20.988282.035156-.054687.113282-.179687.148438-.234374.6875-1.054688 1.371094-2.113282 2.113281-3.183594.726563-1.042969 1.492187-2.074219 2.234375-3.074219 23.230469-30.039063 65.894531-36.558594 97.164062-14.835937 3.476563 2.417968 6.628907 5.050781 9.363282 7.828124.039062.039063.082031.078126.121094.117188 4.011718 3.9375 5.066406 9.984375 2.621093 15.050781l-7.617187 15.773438-24.136719-12.058594c-4.984375-2.492187-11.042969-.464844-13.53125 4.519531-2.492187 4.984375-.46875 11.039063 4.515625 13.53125l24.378906 12.175782-13.152344 27.230468-24.738281-12.355468c-4.988281-2.492188-11.042969-.46875-13.53125 4.515624-2.488281 4.984376-.464843 11.042969 4.515625 13.53125l24.980469 12.476563-5.652344 11.707031c-5.3125 11.003906-17.484375 16.5625-28.878906 13.234375l-.421875-.125c-5.679688-1.695312-11.84375-.933593-16.917969 2.089844-5.027343 2.996094-8.601562 8.003906-9.800781 13.738281-6.492188 31.078125-6.921875 62.726563-1.269531 94.074219 5.644531 31.335937 17.078125 60.835937 33.980469 87.679687 3.132812 4.976563 8.246093 8.441407 14.027343 9.507813 5.839844 1.074219 11.921875-.363281 16.679688-3.933594l.3125-.234375c9.539062-7.085937 22.820312-6.136718 31.578125 2.261719l6.988281 6.703125-19.003906 19.003906c-3.9375 3.9375-3.9375 10.324219 0 14.265625 1.96875 1.96875 4.550781 2.953125 7.132812 2.953125s5.164063-.984375 7.132813-2.953125l19.304687-19.304687 24.601563 23.582031-19.03125 19.03125c-3.941406 3.9375-3.941406 10.324219 0 14.265625 1.96875 1.96875 4.550781 2.953125 7.128906 2.953125 2.582031 0 5.164062-.984375 7.132812-2.953125l19.332032-19.332031 6.464844 6.195312c.832031.800781 1.660156 1.792969 2.457031 2.957031 5.410156 7.890626 5.707031 18.566407.753906 27.191407zm0 0"/><path d="m272.695312 147.167969c-19.417968 0-35.21875 15.796875-35.21875 35.21875v9.394531c0 5.570312 4.515626 10.085938 10.085938 10.085938s10.085938-4.515626 10.085938-10.085938v-9.394531c0-8.296875 6.75-15.046875 15.046874-15.046875 8.296876 0 15.046876 6.75 15.046876 15.046875v101.089843c0 8.296876-6.75 15.046876-15.046876 15.046876-8.296874 0-15.046874-6.75-15.046874-15.046876v-10.5c0-5.566406-4.515626-10.085937-10.085938-10.085937s-10.085938 4.519531-10.085938 10.085937v10.5c0 19.417969 15.800782 35.21875 35.21875 35.21875 19.421876 0 35.21875-15.800781 35.21875-35.21875v-101.089843c.003907-19.421875-15.796874-35.21875-35.21875-35.21875zm0 0"/><path d="m365.359375 147.167969c-19.421875 0-35.21875 15.796875-35.21875 35.21875v101.089843c0 19.417969 15.796875 35.21875 35.21875 35.21875 19.417969 0 35.21875-15.800781 35.21875-35.21875v-101.089843c0-19.421875-15.800781-35.21875-35.21875-35.21875zm15.046875 136.308593c0 8.296876-6.75 15.046876-15.046875 15.046876s-15.046875-6.75-15.046875-15.046876v-101.089843c0-8.296875 6.75-15.046875 15.046875-15.046875s15.046875 6.75 15.046875 15.046875zm0 0"/><path d="m247.265625 242.007812c1.3125 0 2.648437-.257812 3.929687-.804687l.605469-.253906c5.128907-2.171875 7.523438-8.09375 5.347657-13.222657-2.171876-5.128906-8.09375-7.523437-13.222657-5.351562l-.601562.257812c-5.128907 2.171876-7.523438 8.09375-5.351563 13.222657 1.632813 3.84375 5.363282 6.152343 9.292969 6.152343zm0 0"/><path d="m89.511719 108.574219c1.3125 0 2.648437-.257813 3.929687-.804688l.601563-.253906c5.128906-2.175781 7.523437-8.09375 5.351562-13.222656-2.175781-5.128907-8.09375-7.523438-13.222656-5.351563l-.601563.257813c-5.128906 2.171875-7.523437 8.09375-5.351562 13.21875 1.632812 3.847656 5.363281 6.15625 9.292969 6.15625zm0 0"/></svg>