<svg height="512pt" viewBox="-51 0 512 512.0009" width="512pt" xmlns="http://www.w3.org/2000/svg"><path d="m260.734375 415.175781-52.371094-50.207031c-.074219-.082031-.140625-.164062-.21875-.242188-.1875-.191406-.386719-.359374-.585937-.53125l-14.011719-13.433593c-15.886719-15.230469-40.097656-16.871094-57.5625-3.890625-.007813.003906-.089844.0625-.09375.066406l-.296875.222656c-.355469.269532-.695312.273438-.917969.234375-.398437-.074219-.554687-.324219-.613281-.421875-9.0625-14.386718-16.503906-29.847656-22.121094-45.949218-1.835937-5.261719-7.589844-8.039063-12.847656-6.199219-5.261719 1.832031-8.035156 7.585937-6.199219 12.84375 6.117188 17.539062 14.226563 34.378906 24.097657 50.054687 3.132812 4.976563 8.246093 8.441406 14.027343 9.507813 5.839844 1.074219 11.921875-.359375 16.71875-3.964844l.273438-.203125c9.539062-7.085938 22.816406-6.132812 31.578125 2.261719l6.988281 6.703125-19.003906 19.003906c-3.9375 3.941406-3.9375 10.328125 0 14.265625 1.96875 1.96875 4.550781 2.953125 7.132812 2.953125s5.164063-.984375 7.132813-2.953125l19.304687-19.304687 24.597657 23.582031-19.027344 19.03125c-3.941406 3.9375-3.941406 10.324219 0 14.261719 1.96875 1.972656 4.550781 2.957031 7.128906 2.957031 2.582031 0 5.164062-.984375 7.132812-2.957031l19.332032-19.328126 6.464844 6.199219c.835937.796875 1.660156 1.789063 2.457031 2.953125 5.414062 7.890625 5.710937 18.566406.753906 27.203125l-.222656.386719c-.492188.855469-.941407 1.5625-1.371094 2.152344-11.027344 15.15625-27.292969 25.234375-45.792969 28.371094-18.53125 3.136718-37.238281-1.035157-52.683594-11.765626-1.070312-.742187-2.125-1.527343-3.144531-2.285156-.054687-.042968-.109375-.082031-.164062-.121094-49.945313-35.648437-87.242188-85.601562-107.855469-144.457031-19.554688-55.816406-23.769531-117.707031-12.1875-178.980469 5.648438-29.910156 30.308594-75.574218 30.574219-76.066406l.980469-1.824218c4.339843-8.082032 6.960937-12.960938 12.382812-20.988282.039062-.054687.105469-.15625.140625-.210937.722656-1.117188 1.40625-2.171875 2.125-3.203125.707031-1.019532 1.445313-2.011719 2.234375-3.074219 23.230469-30.039063 65.894531-36.558594 97.160156-14.835937 3.484375 2.417968 6.632813 5.050781 9.367188 7.824218.039062.039063.078125.082032.121094.121094 4.011718 3.9375 5.066406 9.984375 2.621093 15.050781l-7.617187 15.773438-24.136719-12.058594c-4.984375-2.492187-11.042969-.46875-13.53125 4.515625s-.46875 11.042969 4.515625 13.53125l24.378906 12.175781-13.148437 27.234375-24.742188-12.359375c-4.984375-2.488281-11.039062-.464843-13.53125 4.519531-2.488281 4.980469-.464843 11.039063 4.519531 13.527344l24.980469 12.480469-5.65625 11.707031c-5.3125 11.003906-17.484375 16.558594-28.949219 13.210938l-.351562-.105469c-5.679688-1.691406-11.847656-.933594-16.917969 2.089844-5.03125 3-8.601562 8.007812-9.800781 13.742187-3.335938 15.972656-5.082031 32.355469-5.1875 48.695313-.035156 5.570312 4.453125 10.113281 10.023438 10.148437h.0625c5.542968 0 10.050781-4.472656 10.085937-10.019531.097656-15 1.699219-30.039063 4.761719-44.699219.019531-.097656.074218-.355468.382812-.539062.25-.148438.527344-.175782.816406-.089844l.476563.140625c20.957031 6.125 43.144531-3.886719 52.765625-23.804687l43.96875-91.046876c6.195312-12.832031 3.546875-28.152343-6.59375-38.15625-3.59375-3.640624-7.6875-7.066406-12.171875-10.179687-40.128906-27.875-94.902344-19.460937-124.695313 19.148437-.035156.046876-.078124.105469-.113281.15625-.863281 1.15625-1.757812 2.355469-2.664062 3.667969-.882813 1.269531-1.671875 2.484375-2.464844 3.707031-5.960937 8.828126-8.917969 14.335938-13.386719 22.660157l-.957031 1.777343c-1.074219 1.980469-26.410156 48.882813-32.652344 81.910157-12.234375 64.746093-7.75 130.242187 12.972657 189.398437 21.984374 62.765625 61.78125 116.070313 115.089843 154.144532 1.078125.804687 2.296875 1.707031 3.605469 2.617187 15.503906 10.769531 33.574219 16.390625 52.09375 16.390625 5.136719 0 10.308594-.433594 15.46875-1.308594 23.726562-4.023437 44.585938-16.945312 58.730469-36.386718.859375-1.183594 1.695312-2.484376 2.558593-3.984376l.222657-.390624c8.785156-15.308594 8.152343-34.402344-1.613281-48.644532-1.578126-2.300781-3.304688-4.355468-5.132813-6.109375zm0 0"/><path d="m399.375 270.375c-5.320312-1.660156-10.972656 1.308594-12.632812 6.625-.714844 2.296875-1.695313 4.523438-2.90625 6.613281-5.816407 10.019531-16.617188 16.242188-28.1875 16.242188h-72.539063c-17.953125 0-32.5625-14.605469-32.5625-32.5625v-49.484375c0-17.957032 14.609375-32.5625 32.5625-32.5625h72.539063c10.429687 0 20.304687 5.058594 26.421874 13.527344 1.960938 2.710937 3.480469 5.6875 4.519532 8.851562 1.742187 5.289062 7.441406 8.171875 12.734375 6.429688 5.289062-1.738282 8.171875-7.4375 6.429687-12.730469-1.6875-5.136719-4.15625-9.96875-7.328125-14.363281-3.503906-4.851563-7.78125-8.992188-12.582031-12.34375-2.582031-39.101563-32.007812-70.046876-67.832031-70.046876-36.476563 0-66.332031 32.078126-67.957031 72.191407-11.992188 9.675781-19.683594 24.476562-19.683594 41.046875v49.488281c0 29.074219 23.65625 52.730469 52.734375 52.730469h72.542969c18.730468 0 36.21875-10.070313 45.632812-26.285156 1.964844-3.390626 3.554688-7.003907 4.71875-10.738282 1.660156-5.316406-1.308594-10.972656-6.625-12.628906zm-81.359375-145.632812c22.089844 0 40.726563 17.441406 46.214844 41.058593-2.816407-.46875-5.683594-.726562-8.578125-.726562h-72.542969c-3.929687 0-7.757813.445312-11.445313 1.265625 5.328126-23.894532 24.085938-41.597656 46.351563-41.597656zm0 0"/><path d="m320.882812 277.402344c5.570313 0 10.085938-4.515625 10.085938-10.085938v-14.054687c7.394531-3.710938 12.484375-11.359375 12.484375-20.183594 0-12.445313-10.125-22.570313-22.570313-22.570313-12.445312 0-22.570312 10.125-22.570312 22.570313 0 8.824219 5.089844 16.472656 12.484375 20.183594v14.054687c0 5.570313 4.515625 10.085938 10.085937 10.085938zm0-46.71875c1.320313 0 2.398438 1.074218 2.398438 2.394531 0 1.324219-1.078125 2.398437-2.398438 2.398437-1.324218 0-2.398437-1.074218-2.398437-2.398437 0-1.320313 1.074219-2.394531 2.398437-2.394531zm0 0"/><path d="m408.585938 238.488281c-2.175782-5.128906-8.09375-7.523437-13.226563-5.351562l-.601563.257812c-5.128906 2.171875-7.523437 8.09375-5.347656 13.21875 1.628906 3.847657 5.363282 6.15625 9.289063 6.15625 1.3125 0 2.648437-.257812 3.933593-.804687l.601563-.253906c5.128906-2.175782 7.523437-8.09375 5.351563-13.222657zm0 0"/><path d="m88.398438 256-.601563.253906c-5.128906 2.175782-7.523437 8.097656-5.347656 13.222656 1.628906 3.847657 5.363281 6.15625 9.289062 6.15625 1.3125 0 2.648438-.257812 3.933594-.804687l.601563-.253906c5.128906-2.175781 7.523437-8.09375 5.347656-13.222657-2.171875-5.128906-8.09375-7.523437-13.222656-5.351562zm0 0"/></svg>