<svg height="512pt" viewBox="0 -34 512.00035 512" width="512pt" xmlns="http://www.w3.org/2000/svg"><path d="m511.105469 325.601562-48.589844-107.5c-2.285156-5.046874-8.226563-7.292968-13.273437-5.007812-5.050782 2.28125-7.292969 8.226562-5.011719 13.273438l44.460937 98.355468-117.78125 53.246094v-295.792969c0-5.539062-4.492187-10.03125-10.035156-10.03125h-116.46875l108.035156-48.835937 55.730469 123.289062c1.675781 3.710938 5.328125 5.902344 9.148437 5.902344 1.382813 0 2.785157-.285156 4.125-.890625 5.050782-2.285156 7.292969-8.226563 5.011719-13.273437l-59.867187-132.433594c-2.28125-5.046875-8.222656-7.292969-13.273438-5.007813l-115.96875 52.421875c-10.160156-18.199218-29.609375-30.542968-51.894531-30.542968-29.332031 0-53.753906 21.378906-58.535156 49.371093h-116.886719c-5.539062 0-10.03125 4.492188-10.03125 10.03125v350.84375c0 5.542969 4.492188 10.035157 10.03125 10.035157h350.84375c5.542969 0 10.03125-4.492188 10.03125-10.035157v-33.035156l135.191406-61.109375c5.050782-2.285156 7.292969-8.226562 5.007813-13.273438zm-325.652344-282.761718c21.691406 0 39.339844 17.644531 39.339844 39.335937 0 21.691407-17.648438 39.339844-39.339844 39.339844s-39.335937-17.648437-39.335937-39.339844c0-21.691406 17.644531-39.335937 39.335937-39.335937zm165.390625 380.148437h-330.78125v-330.78125h106.851562c4.785157 27.992188 29.207032 49.371094 58.539063 49.371094 29.335937 0 53.753906-21.378906 58.539063-49.371094h106.851562zm0 0"/><path d="m114.574219 200.90625c-16.09375 19.265625-24.253907 44.550781-24.253907 75.148438 0 16.039062 2.328126 30.5625 6.925782 43.160156 4.621094 12.695312 11.074218 23.0625 19.175781 30.816406 8.046875 7.695312 17.1875 13.632812 27.160156 17.640625 9.972657 4.003906 20.738281 6.035156 32.003907 6.035156 11.488281 0 22.90625-1.761719 33.933593-5.242187 12.097657-3.820313 17.980469-8.480469 17.980469-14.246094 0-2.097656-.820312-4.273438-2.445312-6.46875-2.230469-3.015625-4.902344-3.648438-6.75-3.648438-.648438 0-1.042969 0-13.890626 5-7.941406 3.089844-16.761718 4.660157-26.210937 4.660157-11.886719 0-22.339844-2.109375-31.066406-6.265625-8.632813-4.121094-15.398438-9.941406-20.105469-17.292969-4.824219-7.535156-8.421875-15.855469-10.6875-24.722656-2.285156-8.914063-3.445312-18.914063-3.445312-29.714844 0-11.4375 1.300781-22.050781 3.871093-31.546875 2.550781-9.433594 6.621094-18.183594 12.097657-26.003906 5.382812-7.683594 13.078124-13.800782 22.871093-18.175782 9.898438-4.421874 21.839844-6.664062 35.488281-6.664062 24.066407 0 42.257813 6.804688 54.074219 20.226562 11.898438 13.519532 17.929688 33.351563 17.929688 58.941407 0 27.28125-5.613281 41.109375-16.683594 41.109375-3.140625 0-5.785156-.988282-8.085937-3.027344-2.277344-2.015625-3.644532-4.859375-4.171876-8.683594v-48.71875c0-13.09375-4.289062-23.363281-12.742187-30.519531-8.339844-7.054687-19.472656-10.632813-33.089844-10.632813-9.640625 0-18.761719 1.660157-27.117187 4.929688-9.117188 3.574219-13.742188 8.234375-13.742188 13.84375 0 2.316406.898438 4.796875 2.660156 7.375 2.453126 3.585938 5.308594 4.335938 7.269532 4.335938.597656 0 1.070312 0 9.808594-3.386719 5.226562-2.027344 11.414062-3.050781 18.394531-3.050781 17.324219 0 25.394531 6.644531 25.394531 20.910156v2.761718h-9.253906c-19.316406 0-34.285156 2.601563-44.488282 7.734376-10.765624 5.410156-16.226562 15.078124-16.226562 28.734374 0 11.90625 3.882812 20.851563 11.53125 26.59375 7.429688 5.578126 16.96875 8.40625 28.351562 8.40625 8.121094 0 15.105469-1.527343 20.761719-4.535156 4.558594-2.421875 9.1875-5.9375 13.796875-10.472656 1.796875 4.269531 4.894532 8.011719 9.25 11.164062 5.660156 4.105469 12.460938 6.1875 20.222656 6.1875 13.976563 0 24.441407-6.304687 31.109376-18.742187 6.390624-11.929687 9.632812-27.148437 9.632812-45.242187 0-30.863282-8.273438-55.160157-24.59375-72.207032-16.347656-17.078125-39.800781-25.734375-69.703125-25.734375-32.191406 0-56.734375 9.832031-72.941406 29.230469zm93.136719 77.074219v11.835937c0 5.152344-2.535157 9.898438-7.742188 14.515625-5.296875 4.699219-11.75 6.980469-19.726562 6.980469-11.59375 0-16.992188-4.785156-16.992188-15.054688 0-6.980468 2.75-11.59375 8.402344-14.101562 6.246094-2.773438 15.695312-4.175781 28.089844-4.175781zm0 0"/><path d="m425.015625 186c1.625 3.816406 5.332031 6.105469 9.234375 6.105469 1.308594 0 2.644531-.261719 3.925781-.804688l.667969-.285156c5.097656-2.171875 7.472656-8.0625 5.300781-13.160156-2.171875-5.097657-8.0625-7.472657-13.160156-5.300781l-.667969.285156c-5.097656 2.167968-7.472656 8.0625-5.300781 13.160156zm0 0"/><path d="m48.035156 182.933594-.671875.28125c-5.101562 2.164062-7.480469 8.050781-5.320312 13.152344 1.621093 3.824218 5.335937 6.121093 9.242187 6.121093 1.304688 0 2.632813-.257812 3.910156-.800781l.671876-.28125c5.101562-2.164062 7.480468-8.050781 5.320312-13.152344-2.164062-5.101562-8.054688-7.484375-13.152344-5.320312zm0 0"/><path d="m96.769531 119.226562c0-5.542968-4.492187-10.035156-10.03125-10.035156h-35.910156c-5.539063 0-10.03125 4.492188-10.03125 10.035156v31.417969c0 5.539063 4.492187 10.035157 10.03125 10.035157s10.03125-4.496094 10.03125-10.035157v-21.386719h25.878906c5.539063 0 10.03125-4.492187 10.03125-10.03125zm0 0"/></svg>