<svg height="512pt" viewBox="0 -77 512 512" width="512pt" xmlns="http://www.w3.org/2000/svg"><path d="m501.960938 62.648438h-210.828126v-24.785157c0-20.878906-16.984374-37.863281-37.863281-37.863281-20.878906 0-37.867187 16.984375-37.867187 37.863281v24.785157h-205.363282c-5.542968 0-10.039062 4.496093-10.039062 10.039062v274.328125c0 5.546875 4.496094 10.042969 10.039062 10.042969h288.777344c5.542969 0 10.039063-4.496094 10.039063-10.042969 0-5.542969-4.496094-10.039063-10.039063-10.039063h-278.734375v-254.25h195.320313v5.113282c0 20.878906 16.988281 37.863281 37.867187 37.863281 20.878907 0 37.863281-16.984375 37.863281-37.863281v-5.113282h200.785157v254.25h-104.246094c-5.542969 0-10.039063 4.496094-10.039063 10.039063 0 5.546875 4.496094 10.042969 10.039063 10.042969h114.289063c5.542968 0 10.039062-4.496094 10.039062-10.042969v-274.328125c0-5.542969-4.496094-10.039062-10.039062-10.039062zm-230.90625 25.191406c0 9.804687-7.980469 17.78125-17.785157 17.78125-9.808593 0-17.785156-7.976563-17.785156-17.78125v-49.972656c0-9.808594 7.976563-17.785157 17.785156-17.785157 9.804688 0 17.785157 7.976563 17.785157 17.785157zm0 0"/><path d="m49.925781 146.480469h102.050781c5.542969 0 10.039063-4.496094 10.039063-10.042969 0-5.542969-4.496094-10.039062-10.039063-10.039062h-102.050781c-5.542969 0-10.039062 4.496093-10.039062 10.039062 0 5.546875 4.492187 10.042969 10.039062 10.042969zm0 0"/><path d="m49.925781 187.871094h139.03125c5.542969 0 10.039063-4.496094 10.039063-10.039063s-4.496094-10.039062-10.039063-10.039062h-139.03125c-5.542969 0-10.039062 4.496093-10.039062 10.039062s4.492187 10.039063 10.039062 10.039063zm0 0"/><path d="m49.925781 227.804688h98.058594c5.546875 0 10.042969-4.496094 10.042969-10.039063s-4.496094-10.039063-10.042969-10.039063h-98.058594c-5.542969 0-10.039062 4.496094-10.039062 10.039063s4.492187 10.039063 10.039062 10.039063zm0 0"/><path d="m200.644531 146.933594c1.253907 0 2.527344-.238282 3.761719-.738282 5.140625-2.078124 7.621094-7.933593 5.542969-13.070312l-.367188-.902344c-2.078125-5.140625-7.933593-7.617187-13.070312-5.539062-5.140625 2.078125-7.621094 7.933594-5.542969 13.074218l.367188.898438c1.578124 3.90625 5.339843 6.277344 9.308593 6.277344zm0 0"/><path d="m353.085938 342.796875c-2.078126-5.140625-7.933594-7.617187-13.070313-5.539063-5.140625 2.082032-7.621094 7.933594-5.542969 13.074219l.367188.898438c1.582031 3.910156 5.339844 6.277343 9.308594 6.277343 1.253906 0 2.53125-.234374 3.761718-.734374 5.140625-2.082032 7.621094-7.933594 5.542969-13.074219zm0 0"/><path d="m459.414062 321.535156c5.542969 0 10.039063-4.496094 10.039063-10.042968v-40.378907c0-29.585937-18.71875-56.015625-46.605469-65.847656 7.316406-7.894531 11.800782-18.449219 11.800782-30.035156v-28.308594c0-2.507813-.21875-4.960937-.621094-7.355469-.066406-.65625-.167969-1.339844-.320313-2.050781-1.003906-4.664063-2.777343-9.027344-5.167969-12.988281-7.699218-13.050782-21.898437-21.832032-38.113281-21.832032h-5.265625c-16.449218 0-30.816406 9.035157-38.433594 22.390626-.148437.25-.292968.5-.433593.753906-.011719.019531-.023438.039062-.03125.058594-3.390625 6.121093-5.320313 13.101562-5.320313 20.511718 0 .027344.003906.050782.003906.074219 0 .148437-.011718.289063-.011718.4375v28.308594c0 11.550781 4.457031 22.078125 11.734375 29.960937-27.988281 9.78125-46.789063 36.269532-46.789063 65.917969v40.382813c0 5.542968 4.496094 10.039062 10.039063 10.039062h143.496093zm-98.398437-146.304687v-15.671875c3.476563.828125 6.71875 1.253906 9.804687 1.253906 4.535157 0 8.738282-.898438 12.859376-2.699219 13.640624-5.960937 20.914062-5.027343 29.695312-3.054687.390625.085937.789062.15625 1.195312.210937v19.960938c0 13.316406-10.832031 24.144531-24.144531 24.144531h-5.265625c-13.3125 0-24.144531-10.828125-24.144531-24.144531zm28.289063-52.453125c8.980468 0 17.074218 4.472656 21.566406 11.328125.011718.019531.023437.039062.035156.054687-10.761719-1.601562-20.929688-.710937-35.261719 5.550782-2.53125 1.105468-5.894531 1.789062-13.3125-.632813.4375-1.269531.96875-2.492187 1.601563-3.65625 4.238281-7.507813 12.667968-12.644531 22.359375-12.644531zm-63.347657 148.335937c0-21.132812 13.40625-40.007812 33.355469-46.96875l11.515625-4.019531c1.292969-.449219 2.449219-1.152344 3.421875-2.035156 3.492188.890625 7.144531 1.367187 10.910156 1.367187h5.265625c3.691407 0 7.277344-.464843 10.707031-1.320312.960938.859375 2.101563 1.542969 3.371094 1.988281l11.515625 4.019531c19.949219 6.960938 33.355469 25.835938 33.355469 46.964844v30.34375h-21.113281v-34.566406c0-5.542969-4.496094-10.039063-10.039063-10.039063-5.542968 0-10.039062 4.496094-10.039062 10.039063v34.566406h-41.019532v-34.015625c0-5.542969-4.496093-10.039062-10.042968-10.039062-5.542969 0-10.039063 4.496093-10.039063 10.039062v34.015625h-21.125zm0 0"/><path d="m34.058594 268.234375v44.925781c0 5.542969 4.496094 10.039063 10.039062 10.039063h207.773438c5.542968 0 10.039062-4.496094 10.039062-10.039063v-44.925781c0-5.542969-4.496094-10.039063-10.039062-10.039063h-207.773438c-5.542968 0-10.039062 4.492188-10.039062 10.039063zm20.082031 10.039063h187.6875v24.847656h-187.6875zm0 0"/></svg>