<svg height="511pt" viewBox="-25 1 511 511.99899" width="511pt" xmlns="http://www.w3.org/2000/svg"><path d="m448.371094 411.128906-5.710938-7.472656c-3.375-4.421875-9.695312-5.269531-14.117187-1.890625-4.417969 3.378906-5.265625 9.699219-1.886719 14.117187l5.707031 7.476563c13.90625 18.203125 11.429688 43.800781-5.640625 58.28125-.398437.335937-.800781.664063-1.210937.988281-9 7.101563-20.230469 10.265625-31.613281 8.921875-11.386719-1.347656-21.5625-7.042969-28.621094-15.996093l-94.757813-121.734376c26.007813-13.019531 48.574219-31.925781 65.933594-54.96875l41.210937 52.914063 2.453126 3.210937c1.984374 2.59375 4.980468 3.957032 8.011718 3.957032 2.132813 0 4.28125-.675782 6.105469-2.070313 4.421875-3.378906 5.265625-9.695312 1.886719-14.117187l-2.511719-3.285156-45.371094-58.261719c16.332031-27.734375 25.71875-60.023438 25.71875-94.46875 0-102.964844-83.765625-186.730469-186.726562-186.730469-102.964844 0-186.730469 83.765625-186.730469 186.730469 0 60.65625 29.640625 117.757812 79.289062 152.742187 6.855469 4.828125 14.097657 9.234375 21.53125 13.089844 10.636719 5.523438 21.851563 10.027344 33.339844 13.390625 17.003906 4.980469 34.6875 7.507813 52.570313 7.507813 22.546875 0 44.171875-4.019532 64.199219-11.375l97.992187 125.890624c10.429687 13.226563 25.386719 21.601563 42.113281 23.578126 2.515625.296874 5.03125.445312 7.527344.445312 14.089844-.003906 27.6875-4.695312 38.921875-13.550781.601563-.476563 1.191406-.960938 1.769531-1.449219 25.253906-21.417969 29.039063-59.136719 8.617188-85.871094zm-308.050782-64.503906c-10.238281-3-20.238281-7.015625-29.722656-11.9375-6.628906-3.441406-13.09375-7.371094-19.207031-11.683594-44.300781-31.214844-70.75-82.160156-70.75-136.273437 0-91.855469 74.730469-166.585938 166.589844-166.585938 91.855469 0 166.585937 74.730469 166.585937 166.585938s-74.730468 166.585937-166.585937 166.585937c-15.964844 0-31.746094-2.25-46.910157-6.691406zm0 0"/><path d="m187.28125 51.046875c-16.828125 0-33.246094 3.058594-48.800781 9.09375-5.183594 2.011719-7.757813 7.84375-5.746094 13.03125s7.847656 7.757813 13.03125 5.746094c13.222656-5.128907 27.191406-7.726563 41.515625-7.726563 63.324219 0 114.84375 51.515625 114.84375 114.84375 0 63.324219-51.519531 114.84375-114.84375 114.84375-63.328125 0-114.847656-51.519531-114.847656-114.84375 0-21.140625 5.789062-41.800781 16.742187-59.746094 2.898438-4.746093 1.402344-10.945312-3.347656-13.84375-4.75-2.898437-10.945313-1.398437-13.84375 3.351563-12.882813 21.101563-19.691406 45.390625-19.691406 70.238281 0 74.429688 60.554687 134.988282 134.988281 134.988282 74.429688 0 134.988281-60.554688 134.988281-134.988282s-60.558593-134.988281-134.988281-134.988281zm0 0"/><path d="m402.558594 385.722656c1.585937 3.917969 5.355468 6.292969 9.339844 6.292969 1.257812 0 2.535156-.238281 3.773437-.738281 5.15625-2.085938 7.644531-7.957032 5.558594-13.113282l-.367188-.902343c-2.085937-5.15625-7.957031-7.644531-13.113281-5.558594s-7.644531 7.960937-5.558594 13.113281zm0 0"/><path d="m97.820312 93.960938c1.585938 3.917968 5.355469 6.296874 9.335938 6.296874 1.261719 0 2.539062-.238281 3.777344-.738281 5.15625-2.085937 7.644531-7.960937 5.558594-13.113281l-.367188-.90625c-2.085938-5.15625-7.960938-7.640625-13.113281-5.554688-5.15625 2.085938-7.644531 7.957032-5.558594 13.113282zm0 0"/><path d="m98.5 191.351562c1.484375 2.460938 36.976562 60.335938 88.070312 60.503907h.222657c51.03125 0 86.445312-58.050781 87.929687-60.527344 1.914063-3.191406 1.910156-7.179687-.007812-10.371094-1.488282-2.472656-36.988282-60.515625-88.109375-60.515625-51.125 0-86.625 58.046875-88.113281 60.515625-1.921876 3.199219-1.921876 7.199219.007812 10.394531zm88.105469-50.765624c31.984375 0 58.230469 32.636718 67.378906 45.570312-9.128906 12.945312-35.296875 45.558594-67.191406 45.558594-.050781 0-.105469 0-.15625 0-31.992188-.105469-58.238281-32.652344-67.402344-45.574219 9.160156-12.949219 35.398437-45.554687 67.371094-45.554687zm0 0"/><path d="m186.605469 218.851562c18.03125 0 32.699219-14.671874 32.699219-32.703124s-14.667969-32.699219-32.699219-32.699219c-18.035157 0-32.703125 14.667969-32.703125 32.699219s14.671875 32.703124 32.703125 32.703124zm0-45.261718c6.921875 0 12.558593 5.636718 12.558593 12.558594 0 6.925781-5.636718 12.558593-12.558593 12.558593-6.925781 0-12.558594-5.632812-12.558594-12.558593 0-6.921876 5.632813-12.558594 12.558594-12.558594zm0 0"/></svg>