<svg height="511pt" viewBox="-44 0 511 511.99905" width="511pt" xmlns="http://www.w3.org/2000/svg"><path d="m423.28125 248.246094c-.011719-.3125-.027344-.621094-.0625-.925782-.023438-.164062-.054688-.324218-.082031-.484374-.046875-.265626-.097657-.527344-.164063-.785157-.046875-.167969-.097656-.335937-.148437-.5-.078125-.246093-.164063-.484375-.257813-.722656-.066406-.164063-.132812-.324219-.207031-.480469-.105469-.234375-.226563-.464844-.355469-.691406-.082031-.144531-.160156-.292969-.25-.433594-.144531-.234375-.308594-.457031-.472656-.679687-.089844-.121094-.175781-.246094-.273438-.363281-.214843-.261719-.449218-.507813-.691406-.75-.0625-.0625-.117187-.128907-.183594-.191407-.296874-.28125-.613281-.542969-.945312-.789062l-58.125-42.597657.136719-66.6875 51.621093-51.621093c3.929688-3.929688 3.929688-10.304688 0-14.234375-3.933593-3.929688-10.304687-3.929688-14.238281 0l-59.671875 59.671875c-9.960937 9.960937-17.011718 15.207031-25.730468 14.429687-18.535157-1.664062-33.007813-16.941406-33.667969-35.539062l-.023438-.609375c-.363281-10.222657 3.578125-20.238281 10.8125-27.472657l44.636719-44.636718c.089844-.089844.207031-.210938.292969-.304688 2.710937-2.925781 11.695312-10.554687 20.554687-10.71875 4.617188-.074218 8.847656 1.878906 12.972656 6.003906 3.6875 3.6875 5.367188 7.476563 5.289063 11.929688-.179687 10.4375-10.042969 21.890625-13.808594 25.398438-.097656.09375-.195312.1875-.292969.28125l-41.019531 41.023437c-.972656.972656-2.265625 1.507813-3.644531 1.507813-.007812 0-.011719 0-.015625 0-2.824219-.007813-5.128906-2.3125-5.132813-5.136719-.003906-1.378907.53125-2.675781 1.507813-3.652344l43.6875-43.6875c3.929687-3.929687 3.929687-10.304687 0-14.234375-3.933594-3.929688-10.304687-3.929688-14.238281 0l-43.683594 43.6875c-4.722656 4.71875-7.421875 11.257812-7.40625 17.933594.03125 13.867187 11.339844 25.179687 25.214844 25.21875h.066406c6.65625 0 13.171875-2.695313 17.878906-7.402344l40.894532-40.890625c2.679687-2.507813 19.707031-19.234375 20.121093-39.589844.199219-9.898437-3.667969-19.105469-11.179687-26.621093-8.015625-8.011719-17.621094-12.09375-27.75-11.8906255-18.421875.4257815-32.417969 14.6210935-34.683594 17.0546875l-44.492188 44.492188c-.265624.261718-.507812.539062-.765624.804687h-202.160157c-2.671875 0-5.230469 1.0625-7.117187 2.949219-1.886719 1.890625-2.949219 4.449218-2.949219 7.121094l.011719 125.640624-58.433594 42.347657c-.34375.25-.667969.523437-.976562.808593-.082032.078126-.15625.171876-.238282.253907-.222656.222656-.441406.445312-.636718.6875-.101563.121093-.191407.25-.285157.378906-.160156.214844-.320312.433594-.460937.660156-.09375.144531-.175782.292969-.257813.445313-.125.222656-.246093.449218-.355469.683594-.070312.160156-.140624.320312-.207031.484374-.09375.238282-.179687.476563-.257812.722657-.050781.164062-.101563.332031-.148438.5-.066406.257812-.117187.519531-.164062.785156-.027344.164063-.0625.324219-.082031.488281-.039063.304688-.054688.613282-.0625.925782-.003907.109374-.023438.214843-.023438.324218v253.367188c0 5.558594 4.507812 10.066406 10.066406 10.066406h402.671875c5.558594 0 10.066407-4.507812 10.066407-10.066406v-253.367188c0-.109375-.019532-.210937-.023438-.320312zm-27.40625.078125-34.453125 23.785156v-49.039063zm-133.085938-165.832031c-2.476562 6.824218-3.679687 14.117187-3.417968 21.488281l.023437.609375c1.019531 28.714844 23.371094 52.304687 51.988281 54.871094 1.246094.113281 2.460938.167968 3.65625.167968 10.261719-.003906 18.613282-4 25.992188-9.558594l-.28125 136.316407-104.292969 72.003906c-14.683593 10.140625-34.421875 10.140625-49.109375 0l-104.117187-71.886719-.019531-204.011718zm-199.710937 190.101562-35.085937-24.226562 35.085937-25.425782zm-42.449219 219.273438v-224.113282l46.792969 32.316406c.039063.027344.082031.042969.117187.066407l108.367188 74.820312c4.609375 3.183594 9.5625 5.679688 14.703125 7.496094.113281.039063.222656.085937.332031.125.195313.066406.394532.125.589844.191406 2.820312.949219 5.695312 1.703125 8.601562 2.246094.082032.015625.167969.027344.25.042969 3.027344.554687 6.085938.890625 9.152344 1.003906.332032.011719.664063.011719.996094.015625.457031.011719.910156.027344 1.367188.027344 12.617187 0 25.230468-3.71875 35.992187-11.148438l107.046875-73.90625c.753906-.289062 1.488281-.644531 2.167969-1.117187l46.066406-32.085938v224.019532zm0 0"/><path d="m317.34375 466.289062c-2.078125-5.15625-7.949219-7.652343-13.101562-5.570312-5.15625 2.082031-7.648438 7.945312-5.566407 13.101562l.160157.402344c1.582031 3.921875 5.355468 6.304688 9.339843 6.304688 1.253907 0 2.527344-.238282 3.761719-.734375 5.15625-2.078125 7.648438-7.945313 5.566406-13.101563zm0 0"/><path d="m233.402344 266.128906c-2.085938-5.152344-7.953125-7.644531-13.105469-5.558594-5.15625 2.082032-7.644531 7.949219-5.558594 13.105469l.164063.402344c1.582031 3.917969 5.351562 6.292969 9.332031 6.292969 1.257813 0 2.535156-.234375 3.769531-.734375 5.15625-2.085938 7.644532-7.953125 5.558594-13.105469zm0 0"/><path d="m137.230469 375.015625h-94.71875c-5.558594 0-10.066407 4.507813-10.066407 10.066406v51.097657c0 5.558593 4.507813 10.066406 10.066407 10.066406h94.71875c5.558593 0 10.066406-4.507813 10.066406-10.066406v-51.097657c0-5.558593-4.507813-10.066406-10.066406-10.066406zm-10.066407 51.097656h-74.589843v-30.964843h74.59375v30.964843zm0 0"/><path d="m137.230469 458.910156h-94.71875c-5.558594 0-10.066407 4.507813-10.066407 10.066406 0 5.558594 4.507813 10.066407 10.066407 10.066407h94.71875c5.558593 0 10.066406-4.507813 10.066406-10.066407 0-5.558593-4.507813-10.066406-10.066406-10.066406zm0 0"/><path d="m381.894531 423.746094h-94.722656c-5.558594 0-10.066406 4.507812-10.066406 10.066406s4.507812 10.066406 10.066406 10.066406h94.722656c5.558594 0 10.066407-4.507812 10.066407-10.066406s-4.507813-10.066406-10.066407-10.066406zm0 0"/><path d="m381.894531 388.863281h-52.804687c-5.558594 0-10.066406 4.507813-10.066406 10.066407 0 5.558593 4.507812 10.066406 10.066406 10.066406h52.804687c5.558594 0 10.066407-4.507813 10.066407-10.066406 0-5.558594-4.507813-10.066407-10.066407-10.066407zm0 0"/><path d="m381.894531 460.191406h-30.539062c-5.558594 0-10.066407 4.507813-10.066407 10.066406 0 5.554688 4.507813 10.0625 10.066407 10.0625h30.539062c5.558594 0 10.066407-4.507812 10.066407-10.0625 0-5.558593-4.507813-10.066406-10.066407-10.066406zm0 0"/><path d="m121.9375 152.585938h84.703125c5.558594 0 10.066406-4.507813 10.066406-10.066407 0-5.558593-4.507812-10.066406-10.066406-10.066406h-84.703125c-5.558594 0-10.066406 4.507813-10.066406 10.066406 0 5.558594 4.503906 10.066407 10.066406 10.066407zm0 0"/><path d="m121.9375 196.507812h121.304688c5.558593 0 10.066406-4.507812 10.066406-10.066406s-4.507813-10.066406-10.066406-10.066406h-121.304688c-5.558594 0-10.066406 4.507812-10.066406 10.066406s4.503906 10.066406 10.066406 10.066406zm0 0"/><path d="m121.9375 238.515625h121.304688c5.558593 0 10.066406-4.507813 10.066406-10.066406 0-5.558594-4.507813-10.066407-10.066406-10.066407h-121.304688c-5.558594 0-10.066406 4.507813-10.066406 10.066407 0 5.558593 4.503906 10.066406 10.066406 10.066406zm0 0"/><path d="m121.9375 280.167969h56.46875c5.558594 0 10.066406-4.507813 10.066406-10.066407 0-5.558593-4.507812-10.066406-10.066406-10.066406h-56.46875c-5.558594 0-10.066406 4.507813-10.066406 10.066406 0 5.558594 4.503906 10.066407 10.066406 10.066407zm0 0"/></svg>