<svg height="512pt" viewBox="0 -61 512 512" width="512pt" xmlns="http://www.w3.org/2000/svg"><path d="m501.972656.25h-84.21875c-5.535156 0-10.027344 4.492188-10.027344 10.027344s4.492188 10.027344 10.027344 10.027344h74.195313v74.265624h-471.898438v-74.265624h308.136719c5.535156 0 10.027344-4.492188 10.027344-10.027344s-4.492188-10.027344-10.027344-10.027344h-318.160156c-5.539063 0-10.027344 4.492188-10.027344 10.027344v369.175781c0 5.539063 4.488281 10.027344 10.027344 10.027344h491.945312c5.539063 0 10.027344-4.488281 10.027344-10.027344v-369.175781c0-5.539063-4.488281-10.027344-10.027344-10.027344zm-10.023437 369.179688h-471.898438v-254.808594h471.898438zm0 0"/><path d="m30.386719 57.550781c0 14.808594 12.050781 26.859375 26.859375 26.859375s26.859375-12.050781 26.859375-26.859375c0-14.808593-12.050781-26.859375-26.859375-26.859375s-26.859375 12.050782-26.859375 26.859375zm33.667969 0c0 3.753907-3.054688 6.804688-6.808594 6.804688s-6.808594-3.050781-6.808594-6.804688c0-3.753906 3.054688-6.804687 6.808594-6.804687s6.808594 3.050781 6.808594 6.804687zm0 0"/><path d="m86.832031 57.550781c0 14.808594 12.050781 26.859375 26.859375 26.859375s26.859375-12.050781 26.859375-26.859375c0-14.808593-12.050781-26.859375-26.859375-26.859375s-26.859375 12.050782-26.859375 26.859375zm33.667969 0c0 3.753907-3.054688 6.804688-6.808594 6.804688-3.75 0-6.804687-3.050781-6.804687-6.804688 0-3.753906 3.054687-6.804687 6.804687-6.804687 3.753906 0 6.808594 3.050781 6.808594 6.804687zm0 0"/><path d="m143.28125 57.550781c0 14.808594 12.046875 26.859375 26.859375 26.859375 14.808594 0 26.859375-12.050781 26.859375-26.859375 0-14.808593-12.050781-26.859375-26.859375-26.859375-14.8125 0-26.859375 12.050782-26.859375 26.859375zm33.664062 0c0 3.753907-3.054687 6.804688-6.804687 6.804688-3.753906 0-6.808594-3.050781-6.808594-6.804688 0-3.753906 3.054688-6.804687 6.808594-6.804687 3.75 0 6.804687 3.050781 6.804687 6.804687zm0 0"/><path d="m362.875 14.28125c1.578125 3.90625 5.332031 6.273438 9.296875 6.273438 1.253906 0 2.523437-.234376 3.753906-.730469 5.132813-2.074219 7.617188-7.917969 5.542969-13.050781l-.203125-.5c-2.074219-5.136719-7.917969-7.613282-13.050781-5.542969-5.136719 2.074219-7.617188 7.917969-5.542969 13.054687zm0 0"/><path d="m113.457031 148.195312c1.578125 3.902344 5.332031 6.265626 9.296875 6.265626 1.253906 0 2.527344-.234376 3.757813-.734376 5.132812-2.078124 7.609375-7.921874 5.535156-13.054687l-.203125-.5c-2.078125-5.132813-7.917969-7.605469-13.054688-5.53125-5.132812 2.078125-7.609374 7.921875-5.53125 13.054687zm0 0"/><path d="m76.730469 270.824219c-7.355469 0-13.117188 5.855469-13.117188 13.332031 0 7.230469 5.886719 13.113281 13.117188 13.113281 6.871093 0 12.902343-6.128906 12.902343-13.113281 0-7.351562-5.789062-13.332031-12.902343-13.332031zm0 0"/><path d="m147.023438 297.699219c20.324218 0 34.484374-9.050781 34.484374-17.175781 0-4.40625-3.773437-10.550782-9.910156-10.550782-2.277344 0-4.082031 1.183594-6.171875 2.558594-3.296875 2.164062-7.8125 5.132812-17.117187 5.132812-16.109375 0-24.277344-7.878906-24.277344-23.421874v-21.367188c0-15.320312 8.320312-23.417969 24.0625-23.417969 8.992188 0 13.507812 2.917969 16.804688 5.050781 2.015624 1.300782 3.757812 2.425782 5.84375 2.425782 5.253906 0 9.484374-5.890625 9.484374-10.765625 0-7.921875-13.722656-16.746094-33.414062-16.746094-14.300781 0-25.953125 4.394531-33.703125 12.710937-7.078125 7.59375-10.820313 18.226563-10.820313 30.746094v21.363282c0 27.210937 16.722657 43.457031 44.734376 43.457031zm0 0"/><path d="m234.199219 297.699219c23.605469 0 44.308593-20.308594 44.308593-43.457031v-21.792969c0-23.324219-20.289062-43.027344-44.308593-43.027344-23.902344 0-44.09375 19.703125-44.09375 43.027344v21.792969c-.003907 23.148437 20.605469 43.457031 44.09375 43.457031zm-22.351563-65.25c0-10.875 9.179688-22.992188 22.351563-22.992188 12.019531 0 22.566406 10.742188 22.566406 22.992188v21.792969c0 12.476562-10.546875 23.421874-22.566406 23.421874-11.90625 0-22.351563-10.945312-22.351563-23.421874zm0 0"/><path d="m306.632812 295.988281c5.847657 0 10.976563-3.933593 10.976563-8.414062v-55.125c0-14.933594 10.746094-22.992188 20.855469-22.992188 11.527344 0 20.214844 9.699219 20.214844 22.5625v55.769531c0 5.382813 5.417968 8.199219 10.765624 8.199219 6.570313 0 10.980469-3.296875 10.980469-8.199219v-55.980468c0-13.992188 10.605469-22.351563 20.855469-22.351563 10.152344 0 20.429688 7.898438 20.429688 22.992188v55.125c0 4.480469 5.03125 8.414062 10.765624 8.414062 5.847657 0 10.980469-3.933593 10.980469-8.414062v-55.125c0-28.25-19.390625-43.027344-38.542969-43.027344-12.988281 0-24.800781 7.007813-32.265624 18.941406-5.988282-11.78125-16.980469-18.941406-29.480469-18.941406-10.503907 0-19.984375 4.347656-26.414063 11.882813v-2.402344c0-4.671875-4.351562-8.199219-10.125-8.199219-6.238281 0-10.765625 3.449219-10.765625 8.199219v88.671875c.003907 4.640625 4.832031 8.414062 10.769531 8.414062zm0 0"/><path d="m38.078125 191.027344c-.691406 5.324218 2.957031 10.28125 8.296875 11.171875.558594.09375 1.109375.136719 1.65625.136719 4.8125 0 9.0625-3.472657 9.878906-8.378907.148438-.882812.574219-3.429687.242188-39.746093h23.621094c5.539062 0 10.027343-4.492188 10.027343-10.027344s-4.488281-10.027344-10.027343-10.027344h-33.75c-2.679688 0-5.246094 1.074219-7.128907 2.980469-1.882812 1.902343-2.925781 4.480469-2.898437 7.160156.226562 20.503906.320312 43.433594.082031 46.730469zm0 0"/></svg>