<svg height="511pt" viewBox="-33 0 511 511.99798" width="511pt" xmlns="http://www.w3.org/2000/svg"><path d="m446.449219 233.671875c-.007813-.3125-.023438-.621094-.0625-.925781-.019531-.164063-.054688-.324219-.082031-.484375-.046876-.265625-.097657-.527344-.164063-.789063-.042969-.167968-.09375-.332031-.148437-.5-.078126-.246094-.160157-.484375-.257813-.722656-.0625-.164062-.132813-.324219-.203125-.480469-.109375-.238281-.230469-.464843-.359375-.691406-.082031-.148437-.160156-.296875-.25-.4375-.144531-.234375-.308594-.457031-.472656-.675781-.089844-.125-.175781-.25-.273438-.367188-.214843-.261718-.449219-.507812-.691406-.75-.0625-.0625-.117187-.132812-.183594-.191406-.300781-.28125-.613281-.546875-.949219-.792969l-61.699218-45.214843.136718-64.726563c.144532-.679687.242188-1.375.242188-2.089844v-103.753906c0-5.566406-4.511719-10.078125-10.078125-10.078125h-80.089844c-5.566406 0-10.078125 4.511719-10.078125 10.078125v27.570313h-204.03125c-2.671875 0-5.238281 1.0625-7.125 2.953124-1.890625 1.890626-2.953125 4.457032-2.953125 7.128907l.011719 133.152343-61.972656 44.914063c-.003906.003906-.007813.003906-.007813.003906l-.042969.03125c-.347656.25-.667968.523438-.976562.808594-.089844.085937-.171875.183594-.257812.273437-.214844.214844-.425782.4375-.621094.667969-.101563.125-.191406.257813-.289063.386719-.160156.214844-.316406.429688-.460937.65625-.089844.148438-.171875.296875-.257813.445312-.125.222657-.246093.453126-.351562.683594-.074219.160156-.144531.320313-.210938.484375-.09375.238281-.179687.480469-.257812.722657-.050781.167968-.105469.335937-.148438.503906-.066406.257812-.117187.519531-.164062.785156-.027344.164062-.0625.324219-.082031.488281-.039063.304688-.054688.617188-.066407.925781-.003906.109376-.019531.21875-.019531.328126v267.925781c0 5.566406 4.511719 10.078125 10.078125 10.078125h425.816406c5.566407 0 10.078125-4.511719 10.078125-10.078125v-267.921875c0-.109375-.019531-.214844-.023437-.324219zm-27.441407.078125-37.976562 26.21875v-54.050781zm-118.066406-213.59375h59.933594v70.777344l-23.15625-21.210938c-1.929688-1.765625-4.367188-2.648437-6.808594-2.648437s-4.882812.882812-6.808594 2.648437l-23.160156 21.210938zm-20.15625 37.652344v56.023437c0 3.996094 2.363282 7.617188 6.019532 9.226563 3.660156 1.609375 7.921874.90625 10.867187-1.792969l33.238281-30.445313 29.71875 27.222657-.328125 156.238281-110.527343 76.3125c-15.722657 10.855469-36.851563 10.855469-52.574219 0l-110.34375-76.1875-.019531-216.597656zm-214.109375 202.667968-38.648437-26.679687 38.648437-28.011719zm-46.019531 231.367188v-238.640625l50.371094 34.789063c.039062.027343.082031.042968.125.070312l114.59375 79.121094c2.117187 1.460937 4.300781 2.785156 6.542968 3.972656 9.707032 5.140625 20.453126 7.714844 31.199219 7.714844 9.609375 0 19.214844-2.070313 28.082031-6.183594 1.8125-.835938 3.597657-1.753906 5.335938-2.765625 1.46875-.851563 2.910156-1.765625 4.320312-2.738281l113.246094-78.1875c.78125-.292969 1.539063-.660156 2.246094-1.148438l49.597656-34.550781v238.546875zm0 0"/><path d="m334.460938 464.4375c-2.082032-5.164062-7.957032-7.652344-13.117188-5.570312-5.160156 2.082031-7.65625 7.957031-5.570312 13.117187l.167968.425781c1.585938 3.925782 5.363282 6.308594 9.351563 6.308594 1.253906 0 2.53125-.238281 3.765625-.734375 5.164062-2.085937 7.660156-7.957031 5.574218-13.121094zm0 0"/><path d="m245.703125 252.789062c-2.078125-5.164062-7.949219-7.664062-13.113281-5.582031-5.164063 2.078125-7.664063 7.949219-5.582032 13.113281l.171876.425782c1.578124 3.929687 5.359374 6.316406 9.351562 6.316406 1.253906 0 2.527344-.234375 3.761719-.734375 5.164062-2.078125 7.660156-7.949219 5.582031-13.113281zm0 0"/><path d="m144.523438 368.273438h-100.164063c-5.566406 0-10.078125 4.515624-10.078125 10.082031v54.03125c0 5.566406 4.511719 10.078125 10.078125 10.078125h100.164063c5.566406 0 10.078124-4.511719 10.078124-10.078125v-54.03125c0-5.566407-4.511718-10.082031-10.078124-10.082031zm-10.078126 54.035156h-80.007812v-33.875h80.007812zm0 0"/><path d="m144.523438 456.996094h-100.164063c-5.566406 0-10.078125 4.511718-10.078125 10.078125 0 5.5625 4.511719 10.078125 10.078125 10.078125h100.164063c5.566406 0 10.078124-4.515625 10.078124-10.078125 0-5.566407-4.511718-10.078125-10.078124-10.078125zm0 0"/><path d="m403.25 420.085938h-100.167969c-5.5625 0-10.078125 4.511718-10.078125 10.078124 0 5.566407 4.515625 10.078126 10.078125 10.078126h100.167969c5.5625 0 10.078125-4.511719 10.078125-10.078126 0-5.566406-4.511719-10.078124-10.078125-10.078124zm0 0"/><path d="m403.25 383.476562h-55.839844c-5.566406 0-10.078125 4.511719-10.078125 10.078126 0 5.566406 4.511719 10.078124 10.078125 10.078124h55.839844c5.5625 0 10.078125-4.511718 10.078125-10.078124 0-5.566407-4.511719-10.078126-10.078125-10.078126zm0 0"/><path d="m403.25 458.347656h-32.296875c-5.566406 0-10.078125 4.511719-10.078125 10.078125 0 5.5625 4.511719 10.078125 10.078125 10.078125h32.296875c5.5625 0 10.078125-4.515625 10.078125-10.078125 0-5.566406-4.511719-10.078125-10.078125-10.078125zm0 0"/><path d="m128.351562 131.929688h89.574219c5.5625 0 10.078125-4.511719 10.078125-10.078126 0-5.566406-4.515625-10.078124-10.078125-10.078124h-89.574219c-5.566406 0-10.082031 4.511718-10.082031 10.078124 0 5.566407 4.515625 10.078126 10.082031 10.078126zm0 0"/><path d="m128.351562 178.375h128.277344c5.566406 0 10.078125-4.511719 10.078125-10.078125 0-5.5625-4.511719-10.078125-10.078125-10.078125h-128.277344c-5.566406 0-10.082031 4.515625-10.082031 10.078125 0 5.566406 4.515625 10.078125 10.082031 10.078125zm0 0"/><path d="m128.351562 222.800781h128.277344c5.566406 0 10.078125-4.515625 10.078125-10.078125 0-5.566406-4.511719-10.082031-10.078125-10.082031h-128.277344c-5.566406 0-10.082031 4.515625-10.082031 10.082031 0 5.5625 4.515625 10.078125 10.082031 10.078125zm0 0"/><path d="m128.351562 266.84375h59.710938c5.566406 0 10.078125-4.511719 10.078125-10.078125s-4.511719-10.078125-10.078125-10.078125h-59.710938c-5.566406 0-10.082031 4.511719-10.082031 10.078125s4.515625 10.078125 10.082031 10.078125zm0 0"/></svg>